SplineFontDB: 3.0
FontName: Alfphabet-I
FullName: Alfphabet-I
FamilyName: Alfphabet
Weight: Book
Copyright: Copyright (c) 2007-2010, OSP (http://osp.kitchen/foundry/)\nThe Alfphabet family is based on the Belgian road signage (1945-1975, originally from 3M system working for the Marshall plan after the end of the war).
Version: 001.001
ItalicAngle: 0
UnderlinePosition: 0
UnderlineWidth: 0
Ascent: 800
Descent: 200
InvalidEm: 0
sfntRevision: 0x00010000
LayerCount: 2
Layer: 0 1 "Arri+AOgA-re" 1
Layer: 1 1 "Avant" 0
PreferredKerning: 4
XUID: [1021 962 1798745627 15188849]
StyleMap: 0x0040
FSType: 4
OS2Version: 3
OS2_WeightWidthSlopeOnly: 0
OS2_UseTypoMetrics: 0
CreationTime: 1190643657
ModificationTime: 1497869176
PfmFamily: 33
TTFWeight: 400
TTFWidth: 5
LineGap: 62
VLineGap: 0
Panose: 2 0 5 6 2 0 0 2 0 4
OS2TypoAscent: 712
OS2TypoAOffset: 0
OS2TypoDescent: -121
OS2TypoDOffset: 0
OS2TypoLinegap: 62
OS2WinAscent: 897
OS2WinAOffset: 0
OS2WinDescent: 250
OS2WinDOffset: 0
HheadAscent: 712
HheadAOffset: 0
HheadDescent: -121
HheadDOffset: 0
OS2SubXSize: 700
OS2SubYSize: 650
OS2SubXOff: 0
OS2SubYOff: 140
OS2SupXSize: 700
OS2SupYSize: 650
OS2SupXOff: 0
OS2SupYOff: 477
OS2StrikeYSize: 50
OS2StrikeYPos: 250
OS2CapHeight: 712
OS2XHeight: 591
OS2Vendor: 'pyrs'
OS2CodePages: 00000001.00000000
OS2UnicodeRanges: 80000027.40000008.00000000.00000000
Lookup: 4 0 0 "'clig' Contextual Ligatures in Latin lookup 0" { "'clig' Contextual Ligatures in Latin lookup 0 subtable"  } ['clig' ('latn' <'dflt' > ) ]
Lookup: 4 0 1 "'liga' Standard Ligatures dans Latin lookup 1" { } ['liga' ('DFLT' <'dflt' > 'latn' <'dflt' > ) ]
MarkAttachClasses: 1
DEI: 91125
TtTable: prep
PUSHW_1
 0
CALL
SVTCA[y-axis]
PUSHW_3
 1
 1
 2
CALL
SVTCA[x-axis]
PUSHW_3
 2
 1
 2
CALL
SVTCA[x-axis]
PUSHW_8
 2
 47
 38
 30
 22
 13
 0
 8
CALL
SVTCA[y-axis]
PUSHW_8
 1
 47
 38
 30
 22
 13
 0
 8
CALL
SVTCA[y-axis]
PUSHW_3
 3
 4
 7
CALL
PUSHW_1
 0
DUP
RCVT
RDTG
ROUND[Black]
RTG
WCVTP
EndTTInstrs
TtTable: fpgm
PUSHW_1
 0
FDEF
MPPEM

StartChar: Acircumflex
Encoding: 194 194 4
GlifName: A_circumflex
Width: 684
Flags: W
LayerCount: 2
Fore
SplineSet
402 712 m 1,0,-1
 614 0 l 1,1,-1
 490 0 l 1,2,-1
 451 131 l 1,3,-1
 235 131 l 1,4,-1
 196 0 l 1,5,-1
 72 0 l 1,6,-1
 283 712 l 1,7,-1
 402 712 l 1,0,-1
416 249 m 1,8,-1
 343 495 l 1,9,-1
 270 249 l 1,10,-1
 416 249 l 1,8,-1
335 831 m 1,11,-1
 244 741 l 1,12,-1
 214 771 l 1,13,-1
 335 892 l 1,14,-1
 456 771 l 1,15,-1
 426 741 l 1,16,-1
 335 831 l 1,11,-1
EndSplineSet
Validated: 1
EndChar

StartChar: Adieresis
Encoding: 196 196 5
GlifName: A_dieresis
Width: 684
Flags: W
LayerCount: 2
Fore
SplineSet
401 712 m 1,0,-1
 613 0 l 1,1,-1
 489 0 l 1,2,-1
 450 131 l 1,3,-1
 234 131 l 1,4,-1
 195 0 l 1,5,-1
 71 0 l 1,6,-1
 282 712 l 1,7,-1
 401 712 l 1,0,-1
415 249 m 1,8,-1
 342 495 l 1,9,-1
 269 249 l 1,10,-1
 415 249 l 1,8,-1
229 755 m 1,11,-1
 229 826 l 1,12,-1
 300 826 l 1,13,-1
 300 755 l 1,14,-1
 229 755 l 1,11,-1
371 755 m 1,15,-1
 371 826 l 1,16,-1
 442 826 l 1,17,-1
 442 755 l 1,18,-1
 371 755 l 1,15,-1
EndSplineSet
Validated: 1
EndChar

StartChar: Agrave
Encoding: 192 192 6
GlifName: A_grave
Width: 684
Flags: W
LayerCount: 2
Fore
SplineSet
402 712 m 1,0,-1
 614 0 l 1,1,-1
 490 0 l 1,2,-1
 451 131 l 1,3,-1
 235 131 l 1,4,-1
 196 0 l 1,5,-1
 72 0 l 1,6,-1
 283 712 l 1,7,-1
 402 712 l 1,0,-1
416 249 m 1,8,-1
 343 495 l 1,9,-1
 270 249 l 1,10,-1
 416 249 l 1,8,-1
311 886 m 1,11,-1
 407 790 l 1,12,-1
 372 755 l 1,13,-1
 261 836 l 1,14,-1
 311 886 l 1,11,-1
EndSplineSet
Validated: 1
EndChar

StartChar: Aring
Encoding: 197 197 7
GlifName: A_ring
Width: 684
Flags: W
LayerCount: 2
Fore
SplineSet
401 712 m 1,0,-1
 613 0 l 1,1,-1
 489 0 l 1,2,-1
 450 131 l 1,3,-1
 234 131 l 1,4,-1
 195 0 l 1,5,-1
 71 0 l 1,6,-1
 282 712 l 1,7,-1
 401 712 l 1,0,-1
415 249 m 1,8,-1
 342 495 l 1,9,-1
 269 249 l 1,10,-1
 415 249 l 1,8,-1
EndSplineSet
Validated: 1
EndChar

StartChar: Atilde
Encoding: 195 195 8
GlifName: A_tilde
Width: 684
Flags: W
LayerCount: 2
Fore
SplineSet
401 712 m 1,0,-1
 613 0 l 1,1,-1
 489 0 l 1,2,-1
 450 131 l 1,3,-1
 234 131 l 1,4,-1
 195 0 l 1,5,-1
 71 0 l 1,6,-1
 282 712 l 1,7,-1
 401 712 l 1,0,-1
415 249 m 1,8,-1
 342 495 l 1,9,-1
 269 249 l 1,10,-1
 415 249 l 1,8,-1
EndSplineSet
Validated: 1
EndChar

StartChar: B
Encoding: 66 66 9
GlifName: B_
Width: 617
Flags: W
LayerCount: 2
Fore
SplineSet
427 228 m 0,0,1
 427 250 427 250 418.5 270 c 128,-1,2
 410 290 410 290 395 305 c 128,-1,3
 380 320 380 320 360 328.5 c 128,-1,4
 340 337 340 337 318 337 c 2,5,-1
 190 337 l 1,6,-1
 190 119 l 1,7,-1
 318 119 l 2,8,9
 340 119 340 119 360 127.5 c 128,-1,10
 380 136 380 136 395 151 c 128,-1,11
 410 166 410 166 418.5 185.5 c 128,-1,12
 427 205 427 205 427 228 c 0,0,1
453 412 m 1,13,14
 495 380 495 380 520.5 332.5 c 128,-1,15
 546 285 546 285 546 228 c 0,16,17
 546 181 546 181 528 139.5 c 128,-1,18
 510 98 510 98 479 67 c 128,-1,19
 448 36 448 36 406.5 18 c 128,-1,20
 365 0 365 0 318 0 c 2,21,-1
 71 0 l 1,22,-1
 71 712 l 1,23,-1
 318 712 l 2,24,25
 355 712 355 712 388 698 c 128,-1,26
 421 684 421 684 446 659.5 c 128,-1,27
 471 635 471 635 485 602 c 128,-1,28
 499 569 499 569 499 532 c 0,29,30
 499 497 499 497 486.5 466.5 c 128,-1,31
 474 436 474 436 453 412 c 1,13,14
380 532 m 256,32,33
 380 558 380 558 362 575.5 c 128,-1,34
 344 593 344 593 318 593 c 2,35,-1
 190 593 l 1,36,-1
 190 470 l 1,37,-1
 318 470 l 2,38,39
 344 470 344 470 362 488 c 128,-1,40
 380 506 380 506 380 532 c 256,32,33
EndSplineSet
Validated: 1
EndChar

StartChar: C
Encoding: 67 67 10
GlifName: C_
Width: 617
Flags: W
LayerCount: 2
Fore
SplineSet
309 -14 m 256,0,1
 260 -14 260 -14 216.5 4.5 c 128,-1,2
 173 23 173 23 141 55.5 c 128,-1,3
 109 88 109 88 90 131 c 128,-1,4
 71 174 71 174 71 223 c 2,5,-1
 71 489 l 2,6,7
 71 538 71 538 90 581.5 c 128,-1,8
 109 625 109 625 141 657 c 128,-1,9
 173 689 173 689 216.5 708 c 128,-1,10
 260 727 260 727 309 727 c 256,11,12
 358 727 358 727 401 708 c 128,-1,13
 444 689 444 689 476.5 657 c 128,-1,14
 509 625 509 625 527.5 581.5 c 128,-1,15
 546 538 546 538 546 489 c 1,16,-1
 427 489 l 1,17,18
 427 514 427 514 417.5 535.5 c 128,-1,19
 408 557 408 557 392 573 c 128,-1,20
 376 589 376 589 354.5 598.5 c 128,-1,21
 333 608 333 608 309 608 c 0,22,23
 284 608 284 608 262.5 598.5 c 128,-1,24
 241 589 241 589 225 573 c 128,-1,25
 209 557 209 557 199.5 535.5 c 128,-1,26
 190 514 190 514 190 489 c 2,27,-1
 190 223 l 2,28,29
 190 199 190 199 199.5 177.5 c 128,-1,30
 209 156 209 156 225 140 c 128,-1,31
 241 124 241 124 262.5 114.5 c 128,-1,32
 284 105 284 105 309 105 c 0,33,34
 333 105 333 105 354.5 114.5 c 128,-1,35
 376 124 376 124 392 140 c 128,-1,36
 408 156 408 156 417.5 177.5 c 128,-1,37
 427 199 427 199 427 223 c 1,38,-1
 546 223 l 1,39,40
 546 174 546 174 527.5 131 c 128,-1,41
 509 88 509 88 476.5 55.5 c 128,-1,42
 444 23 444 23 401 4.5 c 128,-1,43
 358 -14 358 -14 309 -14 c 256,0,1
EndSplineSet
Validated: 1
EndChar

StartChar: Ccedilla
Encoding: 199 199 11
GlifName: C_cedilla
Width: 617
Flags: W
LayerCount: 2
Fore
SplineSet
309 105 m 0,0,1
 333 105 333 105 354.5 114.5 c 128,-1,2
 376 124 376 124 392 140 c 128,-1,3
 408 156 408 156 417.5 177.5 c 128,-1,4
 427 199 427 199 427 223 c 1,5,-1
 546 223 l 1,6,7
 546 177 546 177 530 136.5 c 128,-1,8
 514 96 514 96 485.5 64.5 c 128,-1,9
 457 33 457 33 418.5 12.5 c 128,-1,10
 380 -8 380 -8 335 -13 c 1,11,-1
 335 -135 l 1,12,-1
 264 -135 l 1,13,-1
 283 -13 l 1,14,15
 238 -8 238 -8 199.5 12.5 c 128,-1,16
 161 33 161 33 132.5 64.5 c 128,-1,17
 104 96 104 96 87.5 136.5 c 128,-1,18
 71 177 71 177 71 223 c 2,19,-1
 71 489 l 2,20,21
 71 538 71 538 90 581.5 c 128,-1,22
 109 625 109 625 141 657 c 128,-1,23
 173 689 173 689 216.5 708 c 128,-1,24
 260 727 260 727 309 727 c 256,25,26
 358 727 358 727 401 708 c 128,-1,27
 444 689 444 689 476.5 657 c 128,-1,28
 509 625 509 625 527.5 581.5 c 128,-1,29
 546 538 546 538 546 489 c 1,30,-1
 427 489 l 1,31,32
 427 514 427 514 417.5 535.5 c 128,-1,33
 408 557 408 557 392 573 c 128,-1,34
 376 589 376 589 354.5 598.5 c 128,-1,35
 333 608 333 608 309 608 c 0,36,37
 284 608 284 608 262.5 598.5 c 128,-1,38
 241 589 241 589 225 573 c 128,-1,39
 209 557 209 557 199.5 535.5 c 128,-1,40
 190 514 190 514 190 489 c 2,41,-1
 190 223 l 2,42,43
 190 199 190 199 199.5 177.5 c 128,-1,44
 209 156 209 156 225 140 c 128,-1,45
 241 124 241 124 262.5 114.5 c 128,-1,46
 284 105 284 105 309 105 c 0,0,1
EndSplineSet
Validated: 1
EndChar

StartChar: D
Encoding: 68 68 12
GlifName: D_
Width: 617
Flags: W
LayerCount: 2
Fore
SplineSet
71 0 m 1,0,-1
 71 712 l 1,1,-1
 309 712 l 2,2,3
 358 712 358 712 401 693.5 c 128,-1,4
 444 675 444 675 476.5 642.5 c 128,-1,5
 509 610 509 610 527.5 567 c 128,-1,6
 546 524 546 524 546 475 c 2,7,-1
 546 237 l 2,8,9
 546 188 546 188 527.5 145 c 128,-1,10
 509 102 509 102 476.5 69.5 c 128,-1,11
 444 37 444 37 401 18.5 c 128,-1,12
 358 0 358 0 309 0 c 2,13,-1
 71 0 l 1,0,-1
427 475 m 2,14,15
 427 499 427 499 417.5 520.5 c 128,-1,16
 408 542 408 542 392 558 c 128,-1,17
 376 574 376 574 354.5 583.5 c 128,-1,18
 333 593 333 593 309 593 c 2,19,-1
 190 593 l 1,20,-1
 190 119 l 1,21,-1
 309 119 l 2,22,23
 333 119 333 119 354.5 128.5 c 128,-1,24
 376 138 376 138 392 154 c 128,-1,25
 408 170 408 170 417.5 191.5 c 128,-1,26
 427 213 427 213 427 237 c 2,27,-1
 427 475 l 2,14,15
EndSplineSet
Validated: 1
EndChar

StartChar: E
Encoding: 69 69 13
GlifName: E_
Width: 536
Flags: W
LayerCount: 2
Fore
SplineSet
71 712 m 1,0,-1
 465 712 l 1,1,-1
 465 593 l 1,2,-1
 190 593 l 1,3,-1
 190 458 l 1,4,-1
 408 458 l 1,5,-1
 408 339 l 1,6,-1
 190 339 l 1,7,-1
 190 119 l 1,8,-1
 465 119 l 1,9,-1
 465 0 l 1,10,-1
 71 0 l 1,11,-1
 71 712 l 1,0,-1
EndSplineSet
Validated: 1
EndChar

StartChar: Eacute
Encoding: 201 201 14
GlifName: E_acute
Width: 536
Flags: W
LayerCount: 2
Fore
SplineSet
71 712 m 1,0,-1
 465 712 l 1,1,-1
 465 593 l 1,2,-1
 190 593 l 1,3,-1
 190 458 l 1,4,-1
 408 458 l 1,5,-1
 408 339 l 1,6,-1
 190 339 l 1,7,-1
 190 119 l 1,8,-1
 465 119 l 1,9,-1
 465 0 l 1,10,-1
 71 0 l 1,11,-1
 71 712 l 1,0,-1
224 755 m 1,12,-1
 189 790 l 1,13,-1
 284 886 l 1,14,-1
 335 836 l 1,15,-1
 224 755 l 1,12,-1
EndSplineSet
Validated: 1
EndChar

StartChar: Ecircumflex
Encoding: 202 202 15
GlifName: E_circumflex
Width: 536
Flags: W
LayerCount: 2
Fore
SplineSet
71 712 m 1,0,-1
 465 712 l 1,1,-1
 465 593 l 1,2,-1
 190 593 l 1,3,-1
 190 458 l 1,4,-1
 408 458 l 1,5,-1
 408 339 l 1,6,-1
 190 339 l 1,7,-1
 190 119 l 1,8,-1
 465 119 l 1,9,-1
 465 0 l 1,10,-1
 71 0 l 1,11,-1
 71 712 l 1,0,-1
271 831 m 1,12,-1
 180 741 l 1,13,-1
 150 771 l 1,14,-1
 271 892 l 1,15,-1
 392 771 l 1,16,-1
 362 741 l 1,17,-1
 271 831 l 1,12,-1
EndSplineSet
Validated: 1
EndChar

StartChar: Edieresis
Encoding: 203 203 16
GlifName: E_dieresis
Width: 536
Flags: W
LayerCount: 2
Fore
SplineSet
71 712 m 1,0,-1
 465 712 l 1,1,-1
 465 593 l 1,2,-1
 190 593 l 1,3,-1
 190 458 l 1,4,-1
 408 458 l 1,5,-1
 408 339 l 1,6,-1
 190 339 l 1,7,-1
 190 119 l 1,8,-1
 465 119 l 1,9,-1
 465 0 l 1,10,-1
 71 0 l 1,11,-1
 71 712 l 1,0,-1
162 755 m 1,12,-1
 162 826 l 1,13,-1
 233 826 l 1,14,-1
 233 755 l 1,15,-1
 162 755 l 1,12,-1
304 755 m 1,16,-1
 304 826 l 1,17,-1
 375 826 l 1,18,-1
 375 755 l 1,19,-1
 304 755 l 1,16,-1
EndSplineSet
Validated: 1
EndChar

StartChar: Egrave
Encoding: 200 200 17
GlifName: E_grave
Width: 536
Flags: W
LayerCount: 2
Fore
SplineSet
71 712 m 1,0,-1
 465 712 l 1,1,-1
 465 593 l 1,2,-1
 190 593 l 1,3,-1
 190 458 l 1,4,-1
 408 458 l 1,5,-1
 408 339 l 1,6,-1
 190 339 l 1,7,-1
 190 119 l 1,8,-1
 465 119 l 1,9,-1
 465 0 l 1,10,-1
 71 0 l 1,11,-1
 71 712 l 1,0,-1
239 886 m 1,12,-1
 335 790 l 1,13,-1
 300 755 l 1,14,-1
 189 836 l 1,15,-1
 239 886 l 1,12,-1
EndSplineSet
Validated: 1
EndChar

StartChar: F
Encoding: 70 70 18
GlifName: F_
Width: 536
Flags: W
LayerCount: 2
Fore
SplineSet
71 712 m 1,0,-1
 465 712 l 1,1,-1
 465 593 l 1,2,-1
 190 593 l 1,3,-1
 190 458 l 1,4,-1
 408 458 l 1,5,-1
 408 339 l 1,6,-1
 190 339 l 1,7,-1
 190 0 l 1,8,-1
 71 0 l 1,9,-1
 71 712 l 1,0,-1
EndSplineSet
Validated: 1
EndChar

StartChar: G
Encoding: 71 71 19
GlifName: G_
Width: 617
Flags: W
LayerCount: 2
Fore
SplineSet
309 -14 m 256,0,1
 260 -14 260 -14 216.5 4.5 c 128,-1,2
 173 23 173 23 141 55.5 c 128,-1,3
 109 88 109 88 90 131 c 128,-1,4
 71 174 71 174 71 223 c 2,5,-1
 71 489 l 2,6,7
 71 538 71 538 90 581.5 c 128,-1,8
 109 625 109 625 141 657 c 128,-1,9
 173 689 173 689 216.5 708 c 128,-1,10
 260 727 260 727 309 727 c 256,11,12
 358 727 358 727 401 708 c 128,-1,13
 444 689 444 689 476.5 657 c 128,-1,14
 509 625 509 625 527.5 581.5 c 128,-1,15
 546 538 546 538 546 489 c 1,16,-1
 427 489 l 1,17,18
 427 514 427 514 417.5 535.5 c 128,-1,19
 408 557 408 557 392 573 c 128,-1,20
 376 589 376 589 354.5 598.5 c 128,-1,21
 333 608 333 608 309 608 c 0,22,23
 284 608 284 608 262.5 598.5 c 128,-1,24
 241 589 241 589 225 573 c 128,-1,25
 209 557 209 557 199.5 535.5 c 128,-1,26
 190 514 190 514 190 489 c 2,27,-1
 190 223 l 2,28,29
 190 199 190 199 199.5 177.5 c 128,-1,30
 209 156 209 156 225 140 c 128,-1,31
 241 124 241 124 262.5 114.5 c 128,-1,32
 284 105 284 105 309 105 c 0,33,34
 333 105 333 105 354.5 114.5 c 128,-1,35
 376 124 376 124 392 140 c 128,-1,36
 408 156 408 156 417.5 177.5 c 128,-1,37
 427 199 427 199 427 223 c 1,38,-1
 309 223 l 1,39,-1
 309 342 l 1,40,-1
 546 342 l 1,41,-1
 546 223 l 2,42,43
 546 174 546 174 527.5 131 c 128,-1,44
 509 88 509 88 476.5 55.5 c 128,-1,45
 444 23 444 23 401 4.5 c 128,-1,46
 358 -14 358 -14 309 -14 c 256,0,1
EndSplineSet
Validated: 1
EndChar

StartChar: H
Encoding: 72 72 20
GlifName: H_
Width: 617
Flags: W
LayerCount: 2
Fore
SplineSet
546 712 m 1,0,-1
 546 0 l 1,1,-1
 427 0 l 1,2,-1
 427 339 l 1,3,-1
 190 339 l 1,4,-1
 190 0 l 1,5,-1
 71 0 l 1,6,-1
 71 712 l 1,7,-1
 190 712 l 1,8,-1
 190 458 l 1,9,-1
 427 458 l 1,10,-1
 427 712 l 1,11,-1
 546 712 l 1,0,-1
EndSplineSet
Validated: 1
EndChar

StartChar: I
Encoding: 73 73 21
GlifName: I_
Width: 261
Flags: W
LayerCount: 2
Fore
SplineSet
71 0 m 1,0,-1
 71 712 l 1,1,-1
 190 712 l 1,2,-1
 190 0 l 1,3,-1
 71 0 l 1,0,-1
EndSplineSet
Validated: 1
EndChar

StartChar: Iacute
Encoding: 205 205 22
GlifName: I_acute
Width: 261
Flags: W
LayerCount: 2
Fore
SplineSet
71 0 m 1,0,-1
 71 712 l 1,1,-1
 190 712 l 1,2,-1
 190 0 l 1,3,-1
 71 0 l 1,0,-1
100 755 m 1,4,-1
 65 790 l 1,5,-1
 160 886 l 1,6,-1
 211 836 l 1,7,-1
 100 755 l 1,4,-1
EndSplineSet
Validated: 1
EndChar

StartChar: Icircumflex
Encoding: 206 206 23
GlifName: I_circumflex
Width: 261
Flags: W
LayerCount: 2
Fore
SplineSet
71 0 m 1,0,-1
 71 712 l 1,1,-1
 190 712 l 1,2,-1
 190 0 l 1,3,-1
 71 0 l 1,0,-1
131 831 m 1,4,-1
 40 741 l 1,5,-1
 10 771 l 1,6,-1
 131 892 l 1,7,-1
 252 771 l 1,8,-1
 222 741 l 1,9,-1
 131 831 l 1,4,-1
EndSplineSet
Validated: 1
EndChar

StartChar: Idieresis
Encoding: 207 207 24
GlifName: I_dieresis
Width: 261
Flags: W
LayerCount: 2
Fore
SplineSet
71 0 m 1,0,-1
 71 712 l 1,1,-1
 190 712 l 1,2,-1
 190 0 l 1,3,-1
 71 0 l 1,0,-1
21 755 m 1,4,-1
 21 826 l 1,5,-1
 92 826 l 1,6,-1
 92 755 l 1,7,-1
 21 755 l 1,4,-1
163 755 m 1,8,-1
 163 826 l 1,9,-1
 234 826 l 1,10,-1
 234 755 l 1,11,-1
 163 755 l 1,8,-1
EndSplineSet
Validated: 1
EndChar

StartChar: Igrave
Encoding: 204 204 25
GlifName: I_grave
Width: 261
Flags: W
LayerCount: 2
Fore
SplineSet
71 0 m 1,0,-1
 71 712 l 1,1,-1
 190 712 l 1,2,-1
 190 0 l 1,3,-1
 71 0 l 1,0,-1
105 886 m 1,4,-1
 201 790 l 1,5,-1
 166 755 l 1,6,-1
 55 836 l 1,7,-1
 105 886 l 1,4,-1
EndSplineSet
Validated: 1
EndChar

StartChar: J
Encoding: 74 74 26
GlifName: J_
Width: 617
Flags: W
LayerCount: 2
Fore
SplineSet
546 223 m 2,0,1
 546 125 546 125 476.5 55.5 c 128,-1,2
 407 -14 407 -14 309 -14 c 256,3,4
 209 -14 209 -14 140 56.5 c 128,-1,5
 71 127 71 127 71 223 c 1,6,-1
 190 223 l 1,7,8
 190 175 190 175 225 140 c 128,-1,9
 260 105 260 105 308.5 105 c 128,-1,10
 357 105 357 105 392 140 c 128,-1,11
 427 175 427 175 427 223 c 2,12,-1
 427 712 l 1,13,-1
 546 712 l 1,14,-1
 546 223 l 2,0,1
EndSplineSet
Validated: 1
EndChar

StartChar: K
Encoding: 75 75 27
GlifName: K_
Width: 617
Flags: W
LayerCount: 2
Fore
SplineSet
413 0 m 1,0,-1
 220 386 l 1,1,-1
 190 356 l 1,2,-1
 190 0 l 1,3,-1
 71 0 l 1,4,-1
 71 712 l 1,5,-1
 190 712 l 1,6,-1
 190 524 l 1,7,-1
 378 712 l 1,8,-1
 546 712 l 1,9,-1
 309 475 l 1,10,-1
 546 0 l 1,11,-1
 413 0 l 1,0,-1
EndSplineSet
Validated: 1
EndChar

StartChar: L
Encoding: 76 76 28
GlifName: L_
Width: 536
Flags: W
LayerCount: 2
Fore
SplineSet
465 119 m 1,0,-1
 465 0 l 1,1,-1
 71 0 l 1,2,-1
 71 712 l 1,3,-1
 190 712 l 1,4,-1
 190 119 l 1,5,-1
 465 119 l 1,0,-1
EndSplineSet
Validated: 1
EndChar

StartChar: M
Encoding: 77 77 29
GlifName: M_
Width: 617
Flags: W
LayerCount: 2
Fore
SplineSet
546 712 m 1,0,-1
 546 0 l 1,1,-1
 427 0 l 1,2,-1
 427 475 l 1,3,-1
 309 269 l 1,4,-1
 190 475 l 1,5,-1
 190 0 l 1,6,-1
 71 0 l 1,7,-1
 71 712 l 1,8,-1
 190 712 l 1,9,-1
 309 506 l 1,10,-1
 427 712 l 1,11,-1
 546 712 l 1,0,-1
EndSplineSet
Validated: 1
EndChar

StartChar: N
Encoding: 78 78 30
GlifName: N_
Width: 617
Flags: W
LayerCount: 2
Fore
SplineSet
190 532 m 1,0,-1
 190 0 l 1,1,-1
 71 0 l 1,2,-1
 71 712 l 1,3,-1
 190 712 l 1,4,-1
 427 442 l 1,5,-1
 427 712 l 1,6,-1
 546 712 l 1,7,-1
 546 0 l 1,8,-1
 427 0 l 1,9,-1
 427 262 l 1,10,-1
 190 532 l 1,0,-1
EndSplineSet
Validated: 1
EndChar

StartChar: Ntilde
Encoding: 209 209 31
GlifName: N_tilde
Width: 617
Flags: W
LayerCount: 2
Fore
SplineSet
190 532 m 1,0,-1
 190 0 l 1,1,-1
 71 0 l 1,2,-1
 71 712 l 1,3,-1
 190 712 l 1,4,-1
 427 442 l 1,5,-1
 427 712 l 1,6,-1
 546 712 l 1,7,-1
 546 0 l 1,8,-1
 427 0 l 1,9,-1
 427 262 l 1,10,-1
 190 532 l 1,0,-1
EndSplineSet
Validated: 1
EndChar

StartChar: O
Encoding: 79 79 32
GlifName: O_
Width: 617
Flags: W
LayerCount: 2
Fore
SplineSet
427 489 m 2,0,1
 427 514 427 514 417.5 535.5 c 128,-1,2
 408 557 408 557 392 573 c 128,-1,3
 376 589 376 589 354.5 598.5 c 128,-1,4
 333 608 333 608 309 608 c 0,5,6
 284 608 284 608 262.5 598.5 c 128,-1,7
 241 589 241 589 225 573 c 128,-1,8
 209 557 209 557 199.5 535.5 c 128,-1,9
 190 514 190 514 190 489 c 2,10,-1
 190 223 l 2,11,12
 190 199 190 199 199.5 177.5 c 128,-1,13
 209 156 209 156 225 140 c 128,-1,14
 241 124 241 124 262.5 114.5 c 128,-1,15
 284 105 284 105 309 105 c 0,16,17
 333 105 333 105 354.5 114.5 c 128,-1,18
 376 124 376 124 392 140 c 128,-1,19
 408 156 408 156 417.5 177.5 c 128,-1,20
 427 199 427 199 427 223 c 2,21,-1
 427 489 l 2,0,1
309 -14 m 256,22,23
 260 -14 260 -14 216.5 4.5 c 128,-1,24
 173 23 173 23 141 55.5 c 128,-1,25
 109 88 109 88 90 131 c 128,-1,26
 71 174 71 174 71 223 c 2,27,-1
 71 489 l 2,28,29
 71 538 71 538 90 581.5 c 128,-1,30
 109 625 109 625 141 657 c 128,-1,31
 173 689 173 689 216.5 708 c 128,-1,32
 260 727 260 727 309 727 c 256,33,34
 358 727 358 727 401 708 c 128,-1,35
 444 689 444 689 476.5 657 c 128,-1,36
 509 625 509 625 527.5 581.5 c 128,-1,37
 546 538 546 538 546 489 c 2,38,-1
 546 223 l 2,39,40
 546 174 546 174 527.5 131 c 128,-1,41
 509 88 509 88 476.5 55.5 c 128,-1,42
 444 23 444 23 401 4.5 c 128,-1,43
 358 -14 358 -14 309 -14 c 256,22,23
EndSplineSet
Validated: 1
EndChar

StartChar: OE
Encoding: 338 338 33
GlifName: O_E_
Width: 894
Flags: W
LayerCount: 2
Fore
SplineSet
427 489 m 2,0,1
 427 514 427 514 417.5 535.5 c 128,-1,2
 408 557 408 557 392 573 c 128,-1,3
 376 589 376 589 354.5 598.5 c 128,-1,4
 333 608 333 608 309 608 c 0,5,6
 284 608 284 608 262.5 598.5 c 128,-1,7
 241 589 241 589 225 573 c 128,-1,8
 209 557 209 557 199.5 535.5 c 128,-1,9
 190 514 190 514 190 489 c 2,10,-1
 190 223 l 2,11,12
 190 199 190 199 199.5 177.5 c 128,-1,13
 209 156 209 156 225 140 c 128,-1,14
 241 124 241 124 262.5 114.5 c 128,-1,15
 284 105 284 105 309 105 c 0,16,17
 333 105 333 105 354.5 114.5 c 128,-1,18
 376 124 376 124 392 140 c 128,-1,19
 408 156 408 156 417.5 177.5 c 128,-1,20
 427 199 427 199 427 223 c 2,21,-1
 427 489 l 2,0,1
429 712 m 1,22,-1
 823 712 l 1,23,-1
 823 593 l 1,24,-1
 548 593 l 1,25,-1
 548 458 l 1,26,-1
 766 458 l 1,27,-1
 766 339 l 1,28,-1
 548 339 l 1,29,-1
 548 119 l 1,30,-1
 823 119 l 1,31,-1
 823 0 l 1,32,-1
 429 0 l 1,33,-1
 429 38 l 1,34,35
 415 23 415 23 397 12 c 0,36,37
 381 2 381 2 359.5 -6 c 128,-1,38
 338 -14 338 -14 309 -14 c 0,39,40
 260 -14 260 -14 216.5 4.5 c 128,-1,41
 173 23 173 23 141 55.5 c 128,-1,42
 109 88 109 88 90 131 c 128,-1,43
 71 174 71 174 71 223 c 2,44,-1
 71 489 l 2,45,46
 71 538 71 538 90 581.5 c 128,-1,47
 109 625 109 625 141 657 c 128,-1,48
 173 689 173 689 216.5 708 c 128,-1,49
 260 727 260 727 309 727 c 0,50,51
 337 727 337 727 359 718.5 c 128,-1,52
 381 710 381 710 397 700 c 0,53,54
 415 689 415 689 429 674 c 1,55,-1
 429 712 l 1,22,-1
EndSplineSet
Validated: 1
EndChar

StartChar: Oacute
Encoding: 211 211 34
GlifName: O_acute
Width: 617
Flags: W
LayerCount: 2
Fore
SplineSet
427 489 m 2,0,1
 427 514 427 514 417.5 535.5 c 128,-1,2
 408 557 408 557 392 573 c 128,-1,3
 376 589 376 589 354.5 598.5 c 128,-1,4
 333 608 333 608 309 608 c 0,5,6
 284 608 284 608 262.5 598.5 c 128,-1,7
 241 589 241 589 225 573 c 128,-1,8
 209 557 209 557 199.5 535.5 c 128,-1,9
 190 514 190 514 190 489 c 2,10,-1
 190 223 l 2,11,12
 190 199 190 199 199.5 177.5 c 128,-1,13
 209 156 209 156 225 140 c 128,-1,14
 241 124 241 124 262.5 114.5 c 128,-1,15
 284 105 284 105 309 105 c 0,16,17
 333 105 333 105 354.5 114.5 c 128,-1,18
 376 124 376 124 392 140 c 128,-1,19
 408 156 408 156 417.5 177.5 c 128,-1,20
 427 199 427 199 427 223 c 2,21,-1
 427 489 l 2,0,1
309 -14 m 256,22,23
 260 -14 260 -14 216.5 4.5 c 128,-1,24
 173 23 173 23 141 55.5 c 128,-1,25
 109 88 109 88 90 131 c 128,-1,26
 71 174 71 174 71 223 c 2,27,-1
 71 489 l 2,28,29
 71 538 71 538 90 581.5 c 128,-1,30
 109 625 109 625 141 657 c 128,-1,31
 173 689 173 689 216.5 708 c 128,-1,32
 260 727 260 727 309 727 c 256,33,34
 358 727 358 727 401 708 c 128,-1,35
 444 689 444 689 476.5 657 c 128,-1,36
 509 625 509 625 527.5 581.5 c 128,-1,37
 546 538 546 538 546 489 c 2,38,-1
 546 223 l 2,39,40
 546 174 546 174 527.5 131 c 128,-1,41
 509 88 509 88 476.5 55.5 c 128,-1,42
 444 23 444 23 401 4.5 c 128,-1,43
 358 -14 358 -14 309 -14 c 256,22,23
270 755 m 1,44,-1
 235 790 l 1,45,-1
 330 886 l 1,46,-1
 381 836 l 1,47,-1
 270 755 l 1,44,-1
EndSplineSet
Validated: 1
EndChar

StartChar: Ocircumflex
Encoding: 212 212 35
GlifName: O_circumflex
Width: 617
Flags: W
LayerCount: 2
Fore
SplineSet
427 489 m 2,0,1
 427 514 427 514 417.5 535.5 c 128,-1,2
 408 557 408 557 392 573 c 128,-1,3
 376 589 376 589 354.5 598.5 c 128,-1,4
 333 608 333 608 309 608 c 0,5,6
 284 608 284 608 262.5 598.5 c 128,-1,7
 241 589 241 589 225 573 c 128,-1,8
 209 557 209 557 199.5 535.5 c 128,-1,9
 190 514 190 514 190 489 c 2,10,-1
 190 223 l 2,11,12
 190 199 190 199 199.5 177.5 c 128,-1,13
 209 156 209 156 225 140 c 128,-1,14
 241 124 241 124 262.5 114.5 c 128,-1,15
 284 105 284 105 309 105 c 0,16,17
 333 105 333 105 354.5 114.5 c 128,-1,18
 376 124 376 124 392 140 c 128,-1,19
 408 156 408 156 417.5 177.5 c 128,-1,20
 427 199 427 199 427 223 c 2,21,-1
 427 489 l 2,0,1
309 -14 m 256,22,23
 260 -14 260 -14 216.5 4.5 c 128,-1,24
 173 23 173 23 141 55.5 c 128,-1,25
 109 88 109 88 90 131 c 128,-1,26
 71 174 71 174 71 223 c 2,27,-1
 71 489 l 2,28,29
 71 538 71 538 90 581.5 c 128,-1,30
 109 625 109 625 141 657 c 128,-1,31
 173 689 173 689 216.5 708 c 128,-1,32
 260 727 260 727 309 727 c 256,33,34
 358 727 358 727 401 708 c 128,-1,35
 444 689 444 689 476.5 657 c 128,-1,36
 509 625 509 625 527.5 581.5 c 128,-1,37
 546 538 546 538 546 489 c 2,38,-1
 546 223 l 2,39,40
 546 174 546 174 527.5 131 c 128,-1,41
 509 88 509 88 476.5 55.5 c 128,-1,42
 444 23 444 23 401 4.5 c 128,-1,43
 358 -14 358 -14 309 -14 c 256,22,23
309 831 m 1,44,-1
 218 741 l 1,45,-1
 188 771 l 1,46,-1
 309 892 l 1,47,-1
 430 771 l 1,48,-1
 400 741 l 1,49,-1
 309 831 l 1,44,-1
EndSplineSet
Validated: 1
EndChar

StartChar: Odieresis
Encoding: 214 214 36
GlifName: O_dieresis
Width: 617
Flags: W
LayerCount: 2
Fore
SplineSet
427 489 m 2,0,1
 427 514 427 514 417.5 535.5 c 128,-1,2
 408 557 408 557 392 573 c 128,-1,3
 376 589 376 589 354.5 598.5 c 128,-1,4
 333 608 333 608 309 608 c 0,5,6
 284 608 284 608 262.5 598.5 c 128,-1,7
 241 589 241 589 225 573 c 128,-1,8
 209 557 209 557 199.5 535.5 c 128,-1,9
 190 514 190 514 190 489 c 2,10,-1
 190 223 l 2,11,12
 190 199 190 199 199.5 177.5 c 128,-1,13
 209 156 209 156 225 140 c 128,-1,14
 241 124 241 124 262.5 114.5 c 128,-1,15
 284 105 284 105 309 105 c 0,16,17
 333 105 333 105 354.5 114.5 c 128,-1,18
 376 124 376 124 392 140 c 128,-1,19
 408 156 408 156 417.5 177.5 c 128,-1,20
 427 199 427 199 427 223 c 2,21,-1
 427 489 l 2,0,1
309 -14 m 256,22,23
 260 -14 260 -14 216.5 4.5 c 128,-1,24
 173 23 173 23 141 55.5 c 128,-1,25
 109 88 109 88 90 131 c 128,-1,26
 71 174 71 174 71 223 c 2,27,-1
 71 489 l 2,28,29
 71 538 71 538 90 581.5 c 128,-1,30
 109 625 109 625 141 657 c 128,-1,31
 173 689 173 689 216.5 708 c 128,-1,32
 260 727 260 727 309 727 c 256,33,34
 358 727 358 727 401 708 c 128,-1,35
 444 689 444 689 476.5 657 c 128,-1,36
 509 625 509 625 527.5 581.5 c 128,-1,37
 546 538 546 538 546 489 c 2,38,-1
 546 223 l 2,39,40
 546 174 546 174 527.5 131 c 128,-1,41
 509 88 509 88 476.5 55.5 c 128,-1,42
 444 23 444 23 401 4.5 c 128,-1,43
 358 -14 358 -14 309 -14 c 256,22,23
200 755 m 1,44,-1
 200 826 l 1,45,-1
 271 826 l 1,46,-1
 271 755 l 1,47,-1
 200 755 l 1,44,-1
342 755 m 1,48,-1
 342 826 l 1,49,-1
 413 826 l 1,50,-1
 413 755 l 1,51,-1
 342 755 l 1,48,-1
EndSplineSet
Validated: 1
EndChar

StartChar: Ograve
Encoding: 210 210 37
GlifName: O_grave
Width: 617
Flags: W
LayerCount: 2
Fore
SplineSet
427 489 m 2,0,1
 427 514 427 514 417.5 535.5 c 128,-1,2
 408 557 408 557 392 573 c 128,-1,3
 376 589 376 589 354.5 598.5 c 128,-1,4
 333 608 333 608 309 608 c 0,5,6
 284 608 284 608 262.5 598.5 c 128,-1,7
 241 589 241 589 225 573 c 128,-1,8
 209 557 209 557 199.5 535.5 c 128,-1,9
 190 514 190 514 190 489 c 2,10,-1
 190 223 l 2,11,12
 190 199 190 199 199.5 177.5 c 128,-1,13
 209 156 209 156 225 140 c 128,-1,14
 241 124 241 124 262.5 114.5 c 128,-1,15
 284 105 284 105 309 105 c 0,16,17
 333 105 333 105 354.5 114.5 c 128,-1,18
 376 124 376 124 392 140 c 128,-1,19
 408 156 408 156 417.5 177.5 c 128,-1,20
 427 199 427 199 427 223 c 2,21,-1
 427 489 l 2,0,1
309 -14 m 256,22,23
 260 -14 260 -14 216.5 4.5 c 128,-1,24
 173 23 173 23 141 55.5 c 128,-1,25
 109 88 109 88 90 131 c 128,-1,26
 71 174 71 174 71 223 c 2,27,-1
 71 489 l 2,28,29
 71 538 71 538 90 581.5 c 128,-1,30
 109 625 109 625 141 657 c 128,-1,31
 173 689 173 689 216.5 708 c 128,-1,32
 260 727 260 727 309 727 c 256,33,34
 358 727 358 727 401 708 c 128,-1,35
 444 689 444 689 476.5 657 c 128,-1,36
 509 625 509 625 527.5 581.5 c 128,-1,37
 546 538 546 538 546 489 c 2,38,-1
 546 223 l 2,39,40
 546 174 546 174 527.5 131 c 128,-1,41
 509 88 509 88 476.5 55.5 c 128,-1,42
 444 23 444 23 401 4.5 c 128,-1,43
 358 -14 358 -14 309 -14 c 256,22,23
287 886 m 1,44,-1
 383 790 l 1,45,-1
 348 755 l 1,46,-1
 237 836 l 1,47,-1
 287 886 l 1,44,-1
EndSplineSet
Validated: 1
EndChar

StartChar: Otilde
Encoding: 213 213 38
GlifName: O_tilde
Width: 617
Flags: W
LayerCount: 2
Fore
SplineSet
427 489 m 2,0,1
 427 514 427 514 417.5 535.5 c 128,-1,2
 408 557 408 557 392 573 c 128,-1,3
 376 589 376 589 354.5 598.5 c 128,-1,4
 333 608 333 608 309 608 c 0,5,6
 284 608 284 608 262.5 598.5 c 128,-1,7
 241 589 241 589 225 573 c 128,-1,8
 209 557 209 557 199.5 535.5 c 128,-1,9
 190 514 190 514 190 489 c 2,10,-1
 190 223 l 2,11,12
 190 199 190 199 199.5 177.5 c 128,-1,13
 209 156 209 156 225 140 c 128,-1,14
 241 124 241 124 262.5 114.5 c 128,-1,15
 284 105 284 105 309 105 c 0,16,17
 333 105 333 105 354.5 114.5 c 128,-1,18
 376 124 376 124 392 140 c 128,-1,19
 408 156 408 156 417.5 177.5 c 128,-1,20
 427 199 427 199 427 223 c 2,21,-1
 427 489 l 2,0,1
309 -14 m 256,22,23
 260 -14 260 -14 216.5 4.5 c 128,-1,24
 173 23 173 23 141 55.5 c 128,-1,25
 109 88 109 88 90 131 c 128,-1,26
 71 174 71 174 71 223 c 2,27,-1
 71 489 l 2,28,29
 71 538 71 538 90 581.5 c 128,-1,30
 109 625 109 625 141 657 c 128,-1,31
 173 689 173 689 216.5 708 c 128,-1,32
 260 727 260 727 309 727 c 256,33,34
 358 727 358 727 401 708 c 128,-1,35
 444 689 444 689 476.5 657 c 128,-1,36
 509 625 509 625 527.5 581.5 c 128,-1,37
 546 538 546 538 546 489 c 2,38,-1
 546 223 l 2,39,40
 546 174 546 174 527.5 131 c 128,-1,41
 509 88 509 88 476.5 55.5 c 128,-1,42
 444 23 444 23 401 4.5 c 128,-1,43
 358 -14 358 -14 309 -14 c 256,22,23
EndSplineSet
Validated: 1
EndChar

StartChar: P
Encoding: 80 80 39
GlifName: P_
Width: 617
Flags: W
LayerCount: 2
Fore
SplineSet
318 375 m 2,0,1
 340 375 340 375 360 383.5 c 128,-1,2
 380 392 380 392 395 407 c 128,-1,3
 410 422 410 422 418.5 441.5 c 128,-1,4
 427 461 427 461 427 484 c 256,5,6
 427 507 427 507 418.5 527 c 128,-1,7
 410 547 410 547 395 561.5 c 128,-1,8
 380 576 380 576 360 584.5 c 128,-1,9
 340 593 340 593 318 593 c 2,10,-1
 190 593 l 1,11,-1
 190 375 l 1,12,-1
 318 375 l 2,0,1
546 484 m 256,13,14
 546 437 546 437 528 395.5 c 128,-1,15
 510 354 510 354 479 323 c 128,-1,16
 448 292 448 292 406.5 274 c 128,-1,17
 365 256 365 256 318 256 c 2,18,-1
 190 256 l 1,19,-1
 190 0 l 1,20,-1
 71 0 l 1,21,-1
 71 712 l 1,22,-1
 318 712 l 2,23,24
 365 712 365 712 406.5 694 c 128,-1,25
 448 676 448 676 479 645 c 128,-1,26
 510 614 510 614 528 572.5 c 128,-1,27
 546 531 546 531 546 484 c 256,13,14
EndSplineSet
Validated: 1
EndChar

StartChar: Q
Encoding: 81 81 40
GlifName: Q_
Width: 617
Flags: W
LayerCount: 2
Fore
SplineSet
190 223 m 2,0,1
 190 199 190 199 199.5 177.5 c 128,-1,2
 209 156 209 156 225 140 c 128,-1,3
 241 124 241 124 262.5 114.5 c 128,-1,4
 284 105 284 105 309 105 c 0,5,6
 324 105 324 105 338 108 c 1,7,-1
 272 223 l 1,8,-1
 409 223 l 1,9,-1
 424 197 l 1,10,11
 427 209 427 209 427 223 c 2,12,-1
 427 475 l 2,13,14
 427 499 427 499 417.5 520.5 c 128,-1,15
 408 542 408 542 392 558 c 128,-1,16
 376 574 376 574 354.5 583.5 c 128,-1,17
 333 593 333 593 309 593 c 0,18,19
 284 593 284 593 262.5 583.5 c 128,-1,20
 241 574 241 574 225 558 c 128,-1,21
 209 542 209 542 199.5 520.5 c 128,-1,22
 190 499 190 499 190 475 c 2,23,-1
 190 223 l 2,0,1
71 475 m 2,24,25
 71 524 71 524 90 567 c 128,-1,26
 109 610 109 610 141 642.5 c 128,-1,27
 173 675 173 675 216.5 693.5 c 128,-1,28
 260 712 260 712 309 712 c 256,29,30
 358 712 358 712 401 693.5 c 128,-1,31
 444 675 444 675 476.5 642.5 c 128,-1,32
 509 610 509 610 527.5 567 c 128,-1,33
 546 524 546 524 546 475 c 2,34,-1
 546 223 l 2,35,36
 546 181 546 181 532.5 143.5 c 128,-1,37
 519 106 519 106 494 75 c 1,38,-1
 546 -14 l 1,39,-1
 409 -14 l 1,40,-1
 399 4 l 1,41,42
 357 -14 357 -14 309 -14 c 0,43,44
 260 -14 260 -14 216.5 4.5 c 128,-1,45
 173 23 173 23 141 55.5 c 128,-1,46
 109 88 109 88 90 131 c 128,-1,47
 71 174 71 174 71 223 c 2,48,-1
 71 475 l 2,24,25
EndSplineSet
Validated: 1
EndChar

StartChar: R
Encoding: 82 82 41
GlifName: R_
Width: 617
Flags: W
LayerCount: 2
Fore
SplineSet
318 375 m 2,0,1
 340 375 340 375 360 383.5 c 128,-1,2
 380 392 380 392 395 407 c 128,-1,3
 410 422 410 422 418.5 441.5 c 128,-1,4
 427 461 427 461 427 484 c 256,5,6
 427 507 427 507 418.5 527 c 128,-1,7
 410 547 410 547 395 561.5 c 128,-1,8
 380 576 380 576 360 584.5 c 128,-1,9
 340 593 340 593 318 593 c 2,10,-1
 190 593 l 1,11,-1
 190 375 l 1,12,-1
 318 375 l 2,0,1
71 712 m 1,13,-1
 318 712 l 2,14,15
 365 712 365 712 406.5 694 c 128,-1,16
 448 676 448 676 479 645 c 128,-1,17
 510 614 510 614 528 572.5 c 128,-1,18
 546 531 546 531 546 484 c 0,19,20
 546 421 546 421 515 369 c 128,-1,21
 484 317 484 317 433 288 c 1,22,-1
 546 0 l 1,23,-1
 419 0 l 1,24,-1
 318 256 l 1,25,-1
 190 256 l 1,26,-1
 190 0 l 1,27,-1
 71 0 l 1,28,-1
 71 712 l 1,13,-1
EndSplineSet
Validated: 1
EndChar

StartChar: S
Encoding: 83 83 42
GlifName: S_
Width: 617
Flags: W
LayerCount: 2
Fore
SplineSet
190 223 m 1,0,1
 190 199 190 199 199.5 177.5 c 128,-1,2
 209 156 209 156 225 140 c 128,-1,3
 241 124 241 124 262.5 114.5 c 128,-1,4
 284 105 284 105 309 105 c 0,5,6
 333 105 333 105 354.5 114.5 c 128,-1,7
 376 124 376 124 392 140 c 128,-1,8
 408 156 408 156 417.5 177.5 c 128,-1,9
 427 199 427 199 427 223 c 0,10,11
 427 248 427 248 417.5 269.5 c 128,-1,12
 408 291 408 291 392 307 c 128,-1,13
 376 323 376 323 354.5 332.5 c 128,-1,14
 333 342 333 342 309 342 c 0,15,16
 269 342 269 342 234 357 c 128,-1,17
 199 372 199 372 172.5 398 c 128,-1,18
 146 424 146 424 131 459 c 128,-1,19
 116 494 116 494 116 534 c 256,20,21
 116 574 116 574 131 609 c 128,-1,22
 146 644 146 644 172.5 670.5 c 128,-1,23
 199 697 199 697 234 712 c 128,-1,24
 269 727 269 727 309 727 c 256,25,26
 349 727 349 727 384 712 c 128,-1,27
 419 697 419 697 445 670.5 c 128,-1,28
 471 644 471 644 486 609 c 128,-1,29
 501 574 501 574 501 534 c 1,30,-1
 382 534 l 1,31,32
 382 565 382 565 360.5 586.5 c 128,-1,33
 339 608 339 608 309 608 c 0,34,35
 278 608 278 608 256.5 586.5 c 128,-1,36
 235 565 235 565 235 534 c 0,37,38
 235 504 235 504 256.5 482.5 c 128,-1,39
 278 461 278 461 309 461 c 0,40,41
 358 461 358 461 401 442 c 128,-1,42
 444 423 444 423 476.5 391 c 128,-1,43
 509 359 509 359 527.5 315.5 c 128,-1,44
 546 272 546 272 546 223 c 256,45,46
 546 174 546 174 527.5 131 c 128,-1,47
 509 88 509 88 476.5 55.5 c 128,-1,48
 444 23 444 23 401 4.5 c 128,-1,49
 358 -14 358 -14 309 -14 c 256,50,51
 260 -14 260 -14 216.5 4.5 c 128,-1,52
 173 23 173 23 141 55.5 c 128,-1,53
 109 88 109 88 90 131 c 128,-1,54
 71 174 71 174 71 223 c 1,55,-1
 190 223 l 1,0,1
EndSplineSet
Validated: 1
EndChar

StartChar: T
Encoding: 84 84 43
GlifName: T_
Width: 574
Flags: W
LayerCount: 2
Fore
SplineSet
503 593 m 1,0,-1
 347 593 l 1,1,-1
 347 0 l 1,2,-1
 228 0 l 1,3,-1
 228 593 l 1,4,-1
 71 593 l 1,5,-1
 71 712 l 1,6,-1
 503 712 l 1,7,-1
 503 593 l 1,0,-1
EndSplineSet
Validated: 1
EndChar

StartChar: U
Encoding: 85 85 44
GlifName: U_
Width: 617
Flags: W
LayerCount: 2
Fore
SplineSet
546 223 m 1,0,1
 546 174 546 174 527.5 131 c 128,-1,2
 509 88 509 88 476.5 55.5 c 128,-1,3
 444 23 444 23 401 4.5 c 128,-1,4
 358 -14 358 -14 309 -14 c 256,5,6
 260 -14 260 -14 216.5 4.5 c 128,-1,7
 173 23 173 23 141 55.5 c 128,-1,8
 109 88 109 88 90 131 c 128,-1,9
 71 174 71 174 71 223 c 2,10,-1
 71 712 l 1,11,-1
 190 712 l 1,12,-1
 190 223 l 2,13,14
 190 199 190 199 199.5 177.5 c 128,-1,15
 209 156 209 156 225 140 c 128,-1,16
 241 124 241 124 262.5 114.5 c 128,-1,17
 284 105 284 105 309 105 c 0,18,19
 333 105 333 105 354.5 114.5 c 128,-1,20
 376 124 376 124 392 140 c 128,-1,21
 408 156 408 156 417.5 177.5 c 128,-1,22
 427 199 427 199 427 223 c 2,23,-1
 427 712 l 1,24,-1
 546 712 l 1,25,-1
 546 223 l 1,26,-1
 546 223 l 1,0,1
EndSplineSet
Validated: 5
EndChar

StartChar: Uacute
Encoding: 218 218 45
GlifName: U_acute
Width: 617
Flags: W
LayerCount: 2
Fore
SplineSet
546 223 m 2,0,1
 546 174 546 174 527.5 131 c 128,-1,2
 509 88 509 88 476.5 55.5 c 128,-1,3
 444 23 444 23 401 4.5 c 128,-1,4
 358 -14 358 -14 309 -14 c 256,5,6
 260 -14 260 -14 216.5 4.5 c 128,-1,7
 173 23 173 23 141 55.5 c 128,-1,8
 109 88 109 88 90 131 c 128,-1,9
 71 174 71 174 71 223 c 2,10,-1
 71 712 l 1,11,-1
 190 712 l 1,12,-1
 190 223 l 2,13,14
 190 199 190 199 199.5 177.5 c 128,-1,15
 209 156 209 156 225 140 c 128,-1,16
 241 124 241 124 262.5 114.5 c 128,-1,17
 284 105 284 105 309 105 c 0,18,19
 333 105 333 105 354.5 114.5 c 128,-1,20
 376 124 376 124 392 140 c 128,-1,21
 408 156 408 156 417.5 177.5 c 128,-1,22
 427 199 427 199 427 223 c 2,23,-1
 427 712 l 1,24,-1
 546 712 l 1,25,-1
 546 223 l 2,0,1
276 755 m 1,26,-1
 241 790 l 1,27,-1
 336 886 l 1,28,-1
 387 836 l 1,29,-1
 276 755 l 1,26,-1
EndSplineSet
Validated: 1
EndChar

StartChar: Ucircumflex
Encoding: 219 219 46
GlifName: U_circumflex
Width: 617
Flags: W
LayerCount: 2
Fore
SplineSet
546 223 m 2,0,1
 546 174 546 174 527.5 131 c 128,-1,2
 509 88 509 88 476.5 55.5 c 128,-1,3
 444 23 444 23 401 4.5 c 128,-1,4
 358 -14 358 -14 309 -14 c 256,5,6
 260 -14 260 -14 216.5 4.5 c 128,-1,7
 173 23 173 23 141 55.5 c 128,-1,8
 109 88 109 88 90 131 c 128,-1,9
 71 174 71 174 71 223 c 2,10,-1
 71 712 l 1,11,-1
 190 712 l 1,12,-1
 190 223 l 2,13,14
 190 199 190 199 199.5 177.5 c 128,-1,15
 209 156 209 156 225 140 c 128,-1,16
 241 124 241 124 262.5 114.5 c 128,-1,17
 284 105 284 105 309 105 c 0,18,19
 333 105 333 105 354.5 114.5 c 128,-1,20
 376 124 376 124 392 140 c 128,-1,21
 408 156 408 156 417.5 177.5 c 128,-1,22
 427 199 427 199 427 223 c 2,23,-1
 427 712 l 1,24,-1
 546 712 l 1,25,-1
 546 223 l 2,0,1
309 831 m 1,26,-1
 218 741 l 1,27,-1
 188 771 l 1,28,-1
 309 892 l 1,29,-1
 430 771 l 1,30,-1
 400 741 l 1,31,-1
 309 831 l 1,26,-1
EndSplineSet
Validated: 1
EndChar

StartChar: Udieresis
Encoding: 220 220 47
GlifName: U_dieresis
Width: 617
Flags: W
LayerCount: 2
Fore
SplineSet
546 223 m 2,0,1
 546 174 546 174 527.5 131 c 128,-1,2
 509 88 509 88 476.5 55.5 c 128,-1,3
 444 23 444 23 401 4.5 c 128,-1,4
 358 -14 358 -14 309 -14 c 256,5,6
 260 -14 260 -14 216.5 4.5 c 128,-1,7
 173 23 173 23 141 55.5 c 128,-1,8
 109 88 109 88 90 131 c 128,-1,9
 71 174 71 174 71 223 c 2,10,-1
 71 712 l 1,11,-1
 190 712 l 1,12,-1
 190 223 l 2,13,14
 190 199 190 199 199.5 177.5 c 128,-1,15
 209 156 209 156 225 140 c 128,-1,16
 241 124 241 124 262.5 114.5 c 128,-1,17
 284 105 284 105 309 105 c 0,18,19
 333 105 333 105 354.5 114.5 c 128,-1,20
 376 124 376 124 392 140 c 128,-1,21
 408 156 408 156 417.5 177.5 c 128,-1,22
 427 199 427 199 427 223 c 2,23,-1
 427 712 l 1,24,-1
 546 712 l 1,25,-1
 546 223 l 2,0,1
200 755 m 1,26,-1
 200 826 l 1,27,-1
 271 826 l 1,28,-1
 271 755 l 1,29,-1
 200 755 l 1,26,-1
342 755 m 1,30,-1
 342 826 l 1,31,-1
 413 826 l 1,32,-1
 413 755 l 1,33,-1
 342 755 l 1,30,-1
EndSplineSet
Validated: 1
EndChar

StartChar: Ugrave
Encoding: 217 217 48
GlifName: U_grave
Width: 617
Flags: W
LayerCount: 2
Fore
SplineSet
546 223 m 2,0,1
 546 174 546 174 527.5 131 c 128,-1,2
 509 88 509 88 476.5 55.5 c 128,-1,3
 444 23 444 23 401 4.5 c 128,-1,4
 358 -14 358 -14 309 -14 c 256,5,6
 260 -14 260 -14 216.5 4.5 c 128,-1,7
 173 23 173 23 141 55.5 c 128,-1,8
 109 88 109 88 90 131 c 128,-1,9
 71 174 71 174 71 223 c 2,10,-1
 71 712 l 1,11,-1
 190 712 l 1,12,-1
 190 223 l 2,13,14
 190 199 190 199 199.5 177.5 c 128,-1,15
 209 156 209 156 225 140 c 128,-1,16
 241 124 241 124 262.5 114.5 c 128,-1,17
 284 105 284 105 309 105 c 0,18,19
 333 105 333 105 354.5 114.5 c 128,-1,20
 376 124 376 124 392 140 c 128,-1,21
 408 156 408 156 417.5 177.5 c 128,-1,22
 427 199 427 199 427 223 c 2,23,-1
 427 712 l 1,24,-1
 546 712 l 1,25,-1
 546 223 l 2,0,1
275 886 m 1,26,-1
 371 790 l 1,27,-1
 336 755 l 1,28,-1
 225 836 l 1,29,-1
 275 886 l 1,26,-1
EndSplineSet
Validated: 1
EndChar

StartChar: V
Encoding: 86 86 49
GlifName: V_
Width: 617
Flags: W
LayerCount: 2
Fore
SplineSet
249 0 m 1,0,-1
 71 712 l 1,1,-1
 194 712 l 1,2,-1
 309 252 l 1,3,-1
 424 712 l 1,4,-1
 546 712 l 1,5,-1
 368 0 l 1,6,-1
 249 0 l 1,0,-1
EndSplineSet
Validated: 1
EndChar

StartChar: W
Encoding: 87 87 50
GlifName: W_
Width: 717
Flags: W
LayerCount: 2
Fore
SplineSet
299 0 m 1,0,-1
 180 0 l 1,1,-1
 71 712 l 1,2,-1
 191 712 l 1,3,-1
 263 247 l 1,4,-1
 358 510 l 1,5,-1
 454 247 l 1,6,-1
 526 712 l 1,7,-1
 646 712 l 1,8,-1
 537 0 l 1,9,-1
 418 0 l 1,10,-1
 358 163 l 1,11,-1
 299 0 l 1,0,-1
EndSplineSet
Validated: 1
EndChar

StartChar: X
Encoding: 88 88 51
GlifName: X_
Width: 617
Flags: W
LayerCount: 2
Fore
SplineSet
546 712 m 5,0,-1
 546 712 l 5,1,-1
 416 712 l 5,2,-1
 309 491 l 5,3,-1
 202 712 l 5,4,-1
 71 712 l 5,5,-1
 243 356 l 5,6,-1
 71 0 l 5,7,-1
 202 0 l 5,8,-1
 309 221 l 5,9,-1
 416 0 l 5,10,-1
 546 0 l 5,11,-1
 374 356 l 5,12,-1
 546 712 l 5,0,-1
EndSplineSet
Validated: 5
EndChar

StartChar: Y
Encoding: 89 89 52
GlifName: Y_
Width: 617
Flags: W
LayerCount: 2
Fore
SplineSet
368 356 m 1,0,-1
 368 0 l 1,1,-1
 249 0 l 1,2,-1
 249 356 l 1,3,-1
 71 712 l 1,4,-1
 204 712 l 1,5,-1
 309 503 l 1,6,-1
 413 712 l 1,7,-1
 546 712 l 1,8,-1
 368 356 l 1,0,-1
EndSplineSet
Validated: 1
EndChar

StartChar: Ydieresis
Encoding: 376 376 53
GlifName: Y_dieresis
Width: 617
Flags: W
LayerCount: 2
Fore
SplineSet
368 356 m 1,0,-1
 368 0 l 1,1,-1
 249 0 l 1,2,-1
 249 356 l 1,3,-1
 71 712 l 1,4,-1
 204 712 l 1,5,-1
 309 503 l 1,6,-1
 413 712 l 1,7,-1
 546 712 l 1,8,-1
 368 356 l 1,0,-1
201 755 m 1,9,-1
 201 826 l 1,10,-1
 272 826 l 1,11,-1
 272 755 l 1,12,-1
 201 755 l 1,9,-1
343 755 m 1,13,-1
 343 826 l 1,14,-1
 414 826 l 1,15,-1
 414 755 l 1,16,-1
 343 755 l 1,13,-1
EndSplineSet
Validated: 1
EndChar

StartChar: Z
Encoding: 90 90 54
GlifName: Z_
Width: 617
Flags: W
LayerCount: 2
Fore
SplineSet
546 593 m 1,0,-1
 214 119 l 1,1,-1
 546 119 l 1,2,-1
 546 0 l 1,3,-1
 71 0 l 1,4,-1
 71 119 l 1,5,-1
 403 593 l 1,6,-1
 71 593 l 1,7,-1
 71 712 l 1,8,-1
 546 712 l 1,9,-1
 546 593 l 1,0,-1
EndSplineSet
Validated: 1
EndChar

StartChar: a
Encoding: 97 97 55
GlifName: a
Width: 534
Flags: W
LayerCount: 2
Fore
SplineSet
281 602 m 256,0,1
 319 602 319 602 352 588 c 128,-1,2
 385 574 385 574 410 549 c 128,-1,3
 435 524 435 524 449 491 c 128,-1,4
 463 458 463 458 463 420 c 2,5,-1
 463 0 l 1,6,-1
 342 0 l 1,7,-1
 342 15 l 1,8,9
 307 0 307 0 267 0 c 0,10,11
 226 0 226 0 190.5 15.5 c 128,-1,12
 155 31 155 31 128.5 57.5 c 128,-1,13
 102 84 102 84 86.5 119.5 c 128,-1,14
 71 155 71 155 71 196 c 0,15,16
 71 236 71 236 86.5 272 c 128,-1,17
 102 308 102 308 128.5 334.5 c 128,-1,18
 155 361 155 361 190.5 376.5 c 128,-1,19
 226 392 226 392 267 392 c 0,20,21
 287 392 287 392 306 388 c 128,-1,22
 325 384 325 384 342 377 c 1,23,-1
 342 420 l 2,24,25
 342 446 342 446 324.5 463.5 c 128,-1,26
 307 481 307 481 281 481 c 0,27,28
 256 481 256 481 238.5 463.5 c 128,-1,29
 221 446 221 446 221 420 c 1,30,-1
 100 420 l 1,31,32
 100 458 100 458 114 491 c 128,-1,33
 128 524 128 524 153 549 c 128,-1,34
 178 574 178 574 210.5 588 c 128,-1,35
 243 602 243 602 281 602 c 256,0,1
267 121 m 256,36,37
 298 121 298 121 320 143 c 128,-1,38
 342 165 342 165 342 196 c 256,39,40
 342 227 342 227 320 249 c 128,-1,41
 298 271 298 271 267 271 c 256,42,43
 236 271 236 271 214 249 c 128,-1,44
 192 227 192 227 192 196 c 256,45,46
 192 165 192 165 214 143 c 128,-1,47
 236 121 236 121 267 121 c 256,36,37
EndSplineSet
Validated: 1
EndChar

StartChar: aacute
Encoding: 225 225 56
GlifName: aacute
Width: 534
Flags: W
LayerCount: 2
Fore
SplineSet
281 602 m 256,0,1
 319 602 319 602 352 588 c 128,-1,2
 385 574 385 574 410 549 c 128,-1,3
 435 524 435 524 449 491 c 128,-1,4
 463 458 463 458 463 420 c 2,5,-1
 463 0 l 1,6,-1
 342 0 l 1,7,-1
 342 15 l 1,8,9
 307 0 307 0 267 0 c 0,10,11
 226 0 226 0 190.5 15.5 c 128,-1,12
 155 31 155 31 128.5 57.5 c 128,-1,13
 102 84 102 84 86.5 119.5 c 128,-1,14
 71 155 71 155 71 196 c 0,15,16
 71 236 71 236 86.5 272 c 128,-1,17
 102 308 102 308 128.5 334.5 c 128,-1,18
 155 361 155 361 190.5 376.5 c 128,-1,19
 226 392 226 392 267 392 c 0,20,21
 287 392 287 392 306 388 c 128,-1,22
 325 384 325 384 342 377 c 1,23,-1
 342 420 l 2,24,25
 342 446 342 446 324.5 463.5 c 128,-1,26
 307 481 307 481 281 481 c 0,27,28
 256 481 256 481 238.5 463.5 c 128,-1,29
 221 446 221 446 221 420 c 1,30,-1
 100 420 l 1,31,32
 100 458 100 458 114 491 c 128,-1,33
 128 524 128 524 153 549 c 128,-1,34
 178 574 178 574 210.5 588 c 128,-1,35
 243 602 243 602 281 602 c 256,0,1
267 121 m 256,36,37
 298 121 298 121 320 143 c 128,-1,38
 342 165 342 165 342 196 c 256,39,40
 342 227 342 227 320 249 c 128,-1,41
 298 271 298 271 267 271 c 256,42,43
 236 271 236 271 214 249 c 128,-1,44
 192 227 192 227 192 196 c 256,45,46
 192 165 192 165 214 143 c 128,-1,47
 236 121 236 121 267 121 c 256,36,37
255 640 m 1,48,-1
 220 675 l 1,49,-1
 315 771 l 1,50,-1
 366 721 l 1,51,-1
 255 640 l 1,48,-1
EndSplineSet
Validated: 1
EndChar

StartChar: acircumflex
Encoding: 226 226 57
GlifName: acircumflex
Width: 534
Flags: W
LayerCount: 2
Fore
SplineSet
281 602 m 256,0,1
 319 602 319 602 352 588 c 128,-1,2
 385 574 385 574 410 549 c 128,-1,3
 435 524 435 524 449 491 c 128,-1,4
 463 458 463 458 463 420 c 2,5,-1
 463 0 l 1,6,-1
 342 0 l 1,7,-1
 342 15 l 1,8,9
 307 0 307 0 267 0 c 0,10,11
 226 0 226 0 190.5 15.5 c 128,-1,12
 155 31 155 31 128.5 57.5 c 128,-1,13
 102 84 102 84 86.5 119.5 c 128,-1,14
 71 155 71 155 71 196 c 0,15,16
 71 236 71 236 86.5 272 c 128,-1,17
 102 308 102 308 128.5 334.5 c 128,-1,18
 155 361 155 361 190.5 376.5 c 128,-1,19
 226 392 226 392 267 392 c 0,20,21
 287 392 287 392 306 388 c 128,-1,22
 325 384 325 384 342 377 c 1,23,-1
 342 420 l 2,24,25
 342 446 342 446 324.5 463.5 c 128,-1,26
 307 481 307 481 281 481 c 0,27,28
 256 481 256 481 238.5 463.5 c 128,-1,29
 221 446 221 446 221 420 c 1,30,-1
 100 420 l 1,31,32
 100 458 100 458 114 491 c 128,-1,33
 128 524 128 524 153 549 c 128,-1,34
 178 574 178 574 210.5 588 c 128,-1,35
 243 602 243 602 281 602 c 256,0,1
267 121 m 256,36,37
 298 121 298 121 320 143 c 128,-1,38
 342 165 342 165 342 196 c 256,39,40
 342 227 342 227 320 249 c 128,-1,41
 298 271 298 271 267 271 c 256,42,43
 236 271 236 271 214 249 c 128,-1,44
 192 227 192 227 192 196 c 256,45,46
 192 165 192 165 214 143 c 128,-1,47
 236 121 236 121 267 121 c 256,36,37
277 719 m 1,48,-1
 186 629 l 1,49,-1
 156 659 l 1,50,-1
 277 780 l 1,51,-1
 398 659 l 1,52,-1
 368 629 l 1,53,-1
 277 719 l 1,48,-1
EndSplineSet
Validated: 1
EndChar

StartChar: acute
Encoding: 180 180 58
GlifName: acute
Width: 805
Flags: W
LayerCount: 2
Fore
SplineSet
224 755 m 1,0,-1
 189 790 l 1,1,-1
 284 886 l 1,2,-1
 335 836 l 1,3,-1
 224 755 l 1,0,-1
EndSplineSet
Validated: 1
EndChar

StartChar: adieresis
Encoding: 228 228 59
GlifName: adieresis
Width: 534
Flags: W
LayerCount: 2
Fore
SplineSet
281 602 m 256,0,1
 319 602 319 602 352 588 c 128,-1,2
 385 574 385 574 410 549 c 128,-1,3
 435 524 435 524 449 491 c 128,-1,4
 463 458 463 458 463 420 c 2,5,-1
 463 0 l 1,6,-1
 342 0 l 1,7,-1
 342 15 l 1,8,9
 307 0 307 0 267 0 c 0,10,11
 226 0 226 0 190.5 15.5 c 128,-1,12
 155 31 155 31 128.5 57.5 c 128,-1,13
 102 84 102 84 86.5 119.5 c 128,-1,14
 71 155 71 155 71 196 c 0,15,16
 71 236 71 236 86.5 272 c 128,-1,17
 102 308 102 308 128.5 334.5 c 128,-1,18
 155 361 155 361 190.5 376.5 c 128,-1,19
 226 392 226 392 267 392 c 0,20,21
 287 392 287 392 306 388 c 128,-1,22
 325 384 325 384 342 377 c 1,23,-1
 342 420 l 2,24,25
 342 446 342 446 324.5 463.5 c 128,-1,26
 307 481 307 481 281 481 c 0,27,28
 256 481 256 481 238.5 463.5 c 128,-1,29
 221 446 221 446 221 420 c 1,30,-1
 100 420 l 1,31,32
 100 458 100 458 114 491 c 128,-1,33
 128 524 128 524 153 549 c 128,-1,34
 178 574 178 574 210.5 588 c 128,-1,35
 243 602 243 602 281 602 c 256,0,1
267 121 m 256,36,37
 298 121 298 121 320 143 c 128,-1,38
 342 165 342 165 342 196 c 256,39,40
 342 227 342 227 320 249 c 128,-1,41
 298 271 298 271 267 271 c 256,42,43
 236 271 236 271 214 249 c 128,-1,44
 192 227 192 227 192 196 c 256,45,46
 192 165 192 165 214 143 c 128,-1,47
 236 121 236 121 267 121 c 256,36,37
170 650 m 1,48,-1
 170 721 l 1,49,-1
 241 721 l 1,50,-1
 241 650 l 1,51,-1
 170 650 l 1,48,-1
312 650 m 1,52,-1
 312 721 l 1,53,-1
 383 721 l 1,54,-1
 383 650 l 1,55,-1
 312 650 l 1,52,-1
EndSplineSet
Validated: 1
EndChar

StartChar: ae
Encoding: 230 230 60
GlifName: ae
Width: 805
Flags: W
LayerCount: 2
Fore
SplineSet
463 264 m 1,0,-1
 463 171 l 2,1,2
 463 146 463 146 480.5 128 c 128,-1,3
 498 110 498 110 524 110 c 0,4,5
 549 110 549 110 566.5 128 c 128,-1,6
 584 146 584 146 584 171 c 1,7,-1
 705 171 l 1,8,9
 705 133 705 133 691 100 c 128,-1,10
 677 67 677 67 652 42.5 c 128,-1,11
 627 18 627 18 594 3.5 c 128,-1,12
 561 -11 561 -11 524 -11 c 0,13,14
 488 -11 488 -11 456 2 c 128,-1,15
 424 15 424 15 400 38 c 2,16,17
 400 38 400 38 398 40 c 0,18,19
 372 16 372 16 338.5 2.5 c 128,-1,20
 305 -11 305 -11 267 -11 c 0,21,22
 226 -11 226 -11 190.5 4.5 c 128,-1,23
 155 20 155 20 128.5 46.5 c 128,-1,24
 102 73 102 73 86.5 108.5 c 128,-1,25
 71 144 71 144 71 185 c 0,26,27
 71 225 71 225 86.5 261 c 128,-1,28
 102 297 102 297 128.5 323.5 c 128,-1,29
 155 350 155 350 190.5 365.5 c 128,-1,30
 226 381 226 381 267 381 c 0,31,32
 307 381 307 381 342 366 c 1,33,-1
 342 420 l 2,34,35
 342 446 342 446 324.5 463.5 c 128,-1,36
 307 481 307 481 281 481 c 0,37,38
 256 481 256 481 238.5 463.5 c 128,-1,39
 221 446 221 446 221 420 c 1,40,-1
 100 420 l 1,41,42
 100 458 100 458 114 491 c 128,-1,43
 128 524 128 524 153 549 c 128,-1,44
 178 574 178 574 210.5 588 c 128,-1,45
 243 602 243 602 281 602 c 0,46,47
 318 602 318 602 350 588.5 c 128,-1,48
 382 575 382 575 407 552 c 1,49,50
 433 575 433 575 466.5 588.5 c 128,-1,51
 500 602 500 602 538 602 c 0,52,53
 578 602 578 602 614 586.5 c 128,-1,54
 650 571 650 571 676.5 544.5 c 128,-1,55
 703 518 703 518 718.5 482 c 128,-1,56
 734 446 734 446 734 406 c 2,57,-1
 734 264 l 1,58,-1
 463 264 l 1,0,-1
538 481 m 0,59,60
 506 481 506 481 484.5 459 c 128,-1,61
 463 437 463 437 463 406 c 2,62,-1
 463 385 l 1,63,-1
 613 385 l 1,64,-1
 613 406 l 2,65,66
 613 437 613 437 591 459 c 128,-1,67
 569 481 569 481 538 481 c 0,59,60
267 110 m 256,68,69
 298 110 298 110 320 132 c 128,-1,70
 342 154 342 154 342 185 c 256,71,72
 342 216 342 216 320 238 c 128,-1,73
 298 260 298 260 267 260 c 256,74,75
 236 260 236 260 214 238 c 128,-1,76
 192 216 192 216 192 185 c 256,77,78
 192 154 192 154 214 132 c 128,-1,79
 236 110 236 110 267 110 c 256,68,69
EndSplineSet
Validated: 1
EndChar

StartChar: agrave
Encoding: 224 224 61
GlifName: agrave
Width: 534
Flags: W
LayerCount: 2
Fore
SplineSet
281 602 m 256,0,1
 319 602 319 602 352 588 c 128,-1,2
 385 574 385 574 410 549 c 128,-1,3
 435 524 435 524 449 491 c 128,-1,4
 463 458 463 458 463 420 c 2,5,-1
 463 0 l 1,6,-1
 342 0 l 1,7,-1
 342 15 l 1,8,9
 307 0 307 0 267 0 c 0,10,11
 226 0 226 0 190.5 15.5 c 128,-1,12
 155 31 155 31 128.5 57.5 c 128,-1,13
 102 84 102 84 86.5 119.5 c 128,-1,14
 71 155 71 155 71 196 c 0,15,16
 71 236 71 236 86.5 272 c 128,-1,17
 102 308 102 308 128.5 334.5 c 128,-1,18
 155 361 155 361 190.5 376.5 c 128,-1,19
 226 392 226 392 267 392 c 0,20,21
 287 392 287 392 306 388 c 128,-1,22
 325 384 325 384 342 377 c 1,23,-1
 342 420 l 2,24,25
 342 446 342 446 324.5 463.5 c 128,-1,26
 307 481 307 481 281 481 c 0,27,28
 256 481 256 481 238.5 463.5 c 128,-1,29
 221 446 221 446 221 420 c 1,30,-1
 100 420 l 1,31,32
 100 458 100 458 114 491 c 128,-1,33
 128 524 128 524 153 549 c 128,-1,34
 178 574 178 574 210.5 588 c 128,-1,35
 243 602 243 602 281 602 c 256,0,1
267 121 m 256,36,37
 298 121 298 121 320 143 c 128,-1,38
 342 165 342 165 342 196 c 256,39,40
 342 227 342 227 320 249 c 128,-1,41
 298 271 298 271 267 271 c 256,42,43
 236 271 236 271 214 249 c 128,-1,44
 192 227 192 227 192 196 c 256,45,46
 192 165 192 165 214 143 c 128,-1,47
 236 121 236 121 267 121 c 256,36,37
250 771 m 1,48,-1
 346 675 l 1,49,-1
 311 640 l 1,50,-1
 200 721 l 1,51,-1
 250 771 l 1,48,-1
EndSplineSet
Validated: 1
EndChar

StartChar: asciicircum
Encoding: 94 94 63
GlifName: asciicircum
Width: 385
Flags: W
LayerCount: 2
Fore
SplineSet
193 897 m 1,0,-1
 314 778 l 1,1,-1
 193 897 l 1,2,-1
 314 778 l 1,3,-1
 284 748 l 5,4,-1
 193 837 l 1,5,-1
 103 748 l 1,6,-1
 71 778 l 1,7,-1
 193 897 l 1,0,-1
EndSplineSet
Validated: 5
EndChar

StartChar: asciitilde
Encoding: 126 126 64
GlifName: asciitilde
Width: 604
Flags: W
LayerCount: 2
Fore
SplineSet
71 239 m 1,0,1
 79 255 79 255 90.5 270.5 c 128,-1,2
 102 286 102 286 117 298.5 c 128,-1,3
 132 311 132 311 151.5 318.5 c 128,-1,4
 171 326 171 326 196 326 c 0,5,6
 222 326 222 326 250 316.5 c 128,-1,7
 278 307 278 307 307 293 c 0,8,9
 334 280 334 280 361.5 268.5 c 128,-1,10
 389 257 389 257 409 257 c 0,11,12
 424 257 424 257 436.5 263.5 c 128,-1,13
 449 270 449 270 459.5 280 c 128,-1,14
 470 290 470 290 479 303 c 128,-1,15
 488 316 488 316 497 329 c 1,16,-1
 533 266 l 1,17,18
 525 250 525 250 513.5 234.5 c 128,-1,19
 502 219 502 219 487 206.5 c 128,-1,20
 472 194 472 194 452.5 186.5 c 128,-1,21
 433 179 433 179 408 179 c 0,22,23
 382 179 382 179 354 189 c 128,-1,24
 326 199 326 199 297 212 c 0,25,26
 269 224 269 224 242 236 c 128,-1,27
 215 248 215 248 195 248 c 0,28,29
 180 248 180 248 167.5 241.5 c 128,-1,30
 155 235 155 235 144.5 225 c 128,-1,31
 134 215 134 215 125 202.5 c 128,-1,32
 116 190 116 190 107 177 c 1,33,-1
 71 239 l 1,0,1
EndSplineSet
Validated: 1
EndChar

StartChar: asterisk
Encoding: 42 42 65
GlifName: asterisk
Width: 350
Flags: W
LayerCount: 2
Fore
SplineSet
145 513 m 1,0,-1
 65 467 l 1,1,-1
 35 513 l 1,2,-1
 118 564 l 1,3,-1
 35 615 l 1,4,-1
 65 661 l 1,5,-1
 145 615 l 1,6,-1
 145 712 l 1,7,-1
 205 712 l 1,8,-1
 205 615 l 1,9,-1
 285 661 l 1,10,-1
 315 615 l 1,11,-1
 232 564 l 1,12,-1
 315 513 l 1,13,-1
 285 467 l 1,14,-1
 205 513 l 1,15,-1
 205 416 l 1,16,-1
 145 416 l 1,17,-1
 145 513 l 1,0,-1
EndSplineSet
Validated: 1
EndChar

StartChar: at
Encoding: 64 64 66
GlifName: at
Width: 913
Flags: W
LayerCount: 2
Fore
SplineSet
554 -49 m 2,0,1
 619 -49 619 -49 675.5 -24.5 c 128,-1,2
 732 0 732 0 774 42 c 1,3,-1
 827 -10 l 1,4,5
 774 -63 774 -63 704 -93 c 128,-1,6
 634 -123 634 -123 554 -123 c 2,7,-1
 456 -123 l 2,8,9
 376 -123 376 -123 306 -93 c 128,-1,10
 236 -63 236 -63 184 -10 c 0,11,12
 131 43 131 43 101 112.5 c 128,-1,13
 71 182 71 182 71 263 c 2,14,-1
 71 457 l 2,15,16
 71 537 71 537 101 607 c 128,-1,17
 131 677 131 677 184 729 c 0,18,19
 236 782 236 782 306 812 c 128,-1,20
 376 842 376 842 456 842 c 0,21,22
 537 842 537 842 606.5 812 c 128,-1,23
 676 782 676 782 729 729 c 0,24,25
 782 677 782 677 812 607 c 128,-1,26
 842 537 842 537 842 457 c 0,27,28
 842 376 842 376 812 306 c 128,-1,29
 782 236 782 236 729 184 c 0,30,31
 684 139 684 139 627 110.5 c 128,-1,32
 570 82 570 82 504 74 c 0,33,34
 496 72 496 72 489 71.5 c 128,-1,35
 482 71 482 71 475 71 c 2,36,-1
 468 71 l 1,37,-1
 456 71 l 1,38,-1
 456 72 l 1,39,40
 422 76 422 76 393 92 c 128,-1,41
 364 108 364 108 342.5 133 c 128,-1,42
 321 158 321 158 308.5 191 c 128,-1,43
 296 224 296 224 296 261 c 0,44,45
 296 300 296 300 310 334.5 c 128,-1,46
 324 369 324 369 348.5 394.5 c 128,-1,47
 373 420 373 420 405.5 435 c 128,-1,48
 438 450 438 450 475 450 c 0,49,50
 493 450 493 450 513 444.5 c 128,-1,51
 533 439 533 439 567 425 c 1,52,-1
 567 498 l 2,53,54
 567 533 567 533 544 557.5 c 128,-1,55
 521 582 521 582 489 582 c 0,56,57
 461 582 461 582 440 563.5 c 128,-1,58
 419 545 419 545 413 517 c 1,59,-1
 326 517 l 1,60,61
 329 550 329 550 343 578.5 c 128,-1,62
 357 607 357 607 379 628 c 128,-1,63
 401 649 401 649 429 661 c 128,-1,64
 457 673 457 673 489 673 c 0,65,66
 523 673 523 673 553 659.5 c 128,-1,67
 583 646 583 646 605 622 c 128,-1,68
 627 598 627 598 640 566 c 128,-1,69
 653 534 653 534 653 498 c 2,70,-1
 653 215 l 1,71,-1
 677 236 l 1,72,73
 719 279 719 279 743.5 335 c 128,-1,74
 768 391 768 391 768 457 c 0,75,76
 768 522 768 522 743.5 578 c 128,-1,77
 719 634 719 634 677 677 c 0,78,79
 634 719 634 719 577.5 743.5 c 128,-1,80
 521 768 521 768 456 768 c 256,81,82
 391 768 391 768 335 743.5 c 128,-1,83
 279 719 279 719 236 677 c 0,84,85
 194 634 194 634 169.5 578 c 128,-1,86
 145 522 145 522 145 457 c 2,87,-1
 145 263 l 2,88,89
 145 198 145 198 169.5 141.5 c 128,-1,90
 194 85 194 85 236 42 c 0,91,92
 279 0 279 0 335 -24.5 c 128,-1,93
 391 -49 391 -49 456 -49 c 2,94,-1
 554 -49 l 2,0,1
382 261 m 256,95,96
 382 241 382 241 389.5 223 c 128,-1,97
 397 205 397 205 409.5 191.5 c 128,-1,98
 422 178 422 178 439 170 c 128,-1,99
 456 162 456 162 475 162 c 256,100,101
 494 162 494 162 510.5 170 c 128,-1,102
 527 178 527 178 539.5 191.5 c 128,-1,103
 552 205 552 205 559.5 223 c 128,-1,104
 567 241 567 241 567 261 c 256,105,106
 567 281 567 281 559.5 298.5 c 128,-1,107
 552 316 552 316 539.5 329.5 c 128,-1,108
 527 343 527 343 510.5 351 c 128,-1,109
 494 359 494 359 475 359 c 256,110,111
 456 359 456 359 439 351 c 128,-1,112
 422 343 422 343 409.5 329.5 c 128,-1,113
 397 316 397 316 389.5 298.5 c 128,-1,114
 382 281 382 281 382 261 c 256,95,96
EndSplineSet
Validated: 1
EndChar

StartChar: b
Encoding: 98 98 68
GlifName: b
Width: 505
Flags: W
LayerCount: 2
Fore
SplineSet
253 591 m 0,0,1
 290 591 290 591 323 577 c 128,-1,2
 356 563 356 563 381 538 c 128,-1,3
 406 513 406 513 420 480 c 128,-1,4
 434 447 434 447 434 410 c 2,5,-1
 434 182 l 2,6,7
 434 144 434 144 420 111 c 128,-1,8
 406 78 406 78 381 53 c 128,-1,9
 356 28 356 28 323 14 c 128,-1,10
 290 0 290 0 253 0 c 0,11,12
 237 0 237 0 221.5 2.5 c 128,-1,13
 206 5 206 5 192 10 c 1,14,-1
 192 0 l 1,15,-1
 71 0 l 1,16,-1
 71 712 l 1,17,-1
 192 712 l 1,18,-1
 192 581 l 1,19,20
 219 591 219 591 253 591 c 0,0,1
313 410 m 2,21,22
 313 435 313 435 295.5 452.5 c 128,-1,23
 278 470 278 470 253 470 c 0,24,25
 227 470 227 470 209.5 452.5 c 128,-1,26
 192 435 192 435 192 410 c 2,27,-1
 192 182 l 2,28,29
 192 156 192 156 209.5 138.5 c 128,-1,30
 227 121 227 121 253 121 c 0,31,32
 278 121 278 121 295.5 138.5 c 128,-1,33
 313 156 313 156 313 182 c 2,34,-1
 313 410 l 2,21,22
EndSplineSet
Validated: 1
EndChar

StartChar: backslash
Encoding: 92 92 69
GlifName: backslash
Width: 833
Flags: W
LayerCount: 2
Fore
SplineSet
8 718 m 1,0,-1
 86 718 l 1,1,-1
 325 -6 l 1,2,-1
 247 -6 l 1,3,-1
 8 718 l 1,0,-1
EndSplineSet
Validated: 1
EndChar

StartChar: bar
Encoding: 124 124 70
GlifName: bar
Width: 267
Flags: W
LayerCount: 2
Fore
SplineSet
90 750 m 1,0,-1
 177 750 l 1,1,-1
 177 -250 l 1,2,-1
 90 -250 l 1,3,-1
 90 750 l 1,0,-1
EndSplineSet
Validated: 1
EndChar

StartChar: braceleft
Encoding: 123 123 71
GlifName: braceleft
Width: 370
Flags: W
LayerCount: 2
Fore
SplineSet
159 326 m 1,0,1
 163 323 163 323 175.5 312 c 128,-1,2
 188 301 188 301 200.5 280.5 c 128,-1,3
 213 260 213 260 223 230 c 128,-1,4
 233 200 233 200 233 158 c 2,5,-1
 233 -43 l 2,6,7
 233 -68 233 -68 254 -91 c 0,8,9
 264 -99 264 -99 275.5 -104.5 c 128,-1,10
 287 -110 287 -110 300 -110 c 1,11,-1
 300 -155 l 1,12,-1
 300 -202 l 1,13,14
 268 -202 268 -202 240 -189 c 128,-1,15
 212 -176 212 -176 190 -155 c 0,16,17
 167 -133 167 -133 155 -104 c 128,-1,18
 143 -75 143 -75 143 -43 c 2,19,-1
 143 142 l 2,20,21
 143 198 143 198 125 235.5 c 128,-1,22
 107 273 107 273 70 289 c 1,23,-1
 70 363 l 1,24,25
 107 379 107 379 125 416.5 c 128,-1,26
 143 454 143 454 143 510 c 2,27,-1
 143 695 l 2,28,29
 143 727 143 727 155 756 c 128,-1,30
 167 785 167 785 190 807 c 0,31,32
 212 828 212 828 240 841 c 128,-1,33
 268 854 268 854 300 854 c 1,34,-1
 300 807 l 1,35,-1
 300 762 l 1,36,37
 287 762 287 762 275.5 756.5 c 128,-1,38
 264 751 264 751 254 743 c 0,39,40
 233 720 233 720 233 695 c 2,41,-1
 233 494 l 2,42,43
 233 452 233 452 223 422 c 128,-1,44
 213 392 213 392 200.5 371.5 c 128,-1,45
 188 351 188 351 175.5 340 c 128,-1,46
 163 329 163 329 159 326 c 1,0,1
EndSplineSet
Validated: 1
EndChar

StartChar: braceright
Encoding: 125 125 72
GlifName: braceright
Width: 370
Flags: W
LayerCount: 2
Fore
SplineSet
211 326 m 1,0,1
 206 329 206 329 194 340 c 128,-1,2
 182 351 182 351 169.5 371.5 c 128,-1,3
 157 392 157 392 147 422 c 128,-1,4
 137 452 137 452 137 494 c 2,5,-1
 137 695 l 2,6,7
 137 720 137 720 116 743 c 0,8,9
 106 751 106 751 94.5 756.5 c 128,-1,10
 83 762 83 762 70 762 c 1,11,-1
 70 807 l 1,12,-1
 70 854 l 1,13,14
 102 854 102 854 130 841 c 128,-1,15
 158 828 158 828 180 807 c 0,16,17
 203 785 203 785 215 756 c 128,-1,18
 227 727 227 727 227 695 c 2,19,-1
 227 510 l 2,20,21
 227 454 227 454 245 416.5 c 128,-1,22
 263 379 263 379 300 363 c 1,23,-1
 300 289 l 1,24,25
 263 273 263 273 245 235.5 c 128,-1,26
 227 198 227 198 227 142 c 2,27,-1
 227 -43 l 2,28,29
 227 -75 227 -75 215 -104 c 128,-1,30
 203 -133 203 -133 180 -155 c 0,31,32
 158 -176 158 -176 130 -189 c 128,-1,33
 102 -202 102 -202 70 -202 c 1,34,-1
 70 -155 l 1,35,-1
 70 -110 l 1,36,37
 83 -110 83 -110 94.5 -104.5 c 128,-1,38
 106 -99 106 -99 116 -91 c 0,39,40
 137 -68 137 -68 137 -43 c 2,41,-1
 137 158 l 2,42,43
 137 200 137 200 147 230 c 128,-1,44
 157 260 157 260 169.5 280.5 c 128,-1,45
 182 301 182 301 194 312 c 128,-1,46
 206 323 206 323 211 326 c 1,0,1
EndSplineSet
Validated: 1
EndChar

StartChar: bracketleft
Encoding: 91 91 73
GlifName: bracketleft
Width: 287
Flags: W
LayerCount: 2
Fore
SplineSet
70 -62 m 1,0,-1
 70 750 l 1,1,-1
 252 750 l 1,2,-1
 252 700 l 1,3,-1
 170 700 l 1,4,-1
 170 -12 l 1,5,-1
 252 -12 l 1,6,-1
 252 -62 l 1,7,-1
 70 -62 l 1,0,-1
EndSplineSet
Validated: 1
EndChar

StartChar: bracketright
Encoding: 93 93 74
GlifName: bracketright
Width: 287
Flags: W
LayerCount: 2
Fore
SplineSet
217 750 m 1,0,-1
 217 -62 l 1,1,-1
 35 -62 l 1,2,-1
 35 -12 l 1,3,-1
 117 -12 l 1,4,-1
 117 700 l 1,5,-1
 35 700 l 1,6,-1
 35 750 l 1,7,-1
 217 750 l 1,0,-1
EndSplineSet
Validated: 1
EndChar

StartChar: bullet
Encoding: 8226 8226 75
GlifName: bullet
Width: 499
Flags: W
LayerCount: 2
Fore
SplineSet
72 356 m 256,0,1
 72 393 72 393 86 425.5 c 128,-1,2
 100 458 100 458 124 482 c 128,-1,3
 148 506 148 506 180.5 520 c 128,-1,4
 213 534 213 534 250 534 c 256,5,6
 287 534 287 534 319.5 520 c 128,-1,7
 352 506 352 506 376 482 c 128,-1,8
 400 458 400 458 414 425.5 c 128,-1,9
 428 393 428 393 428 356 c 256,10,11
 428 319 428 319 414 286.5 c 128,-1,12
 400 254 400 254 376 230 c 128,-1,13
 352 206 352 206 319.5 192 c 128,-1,14
 287 178 287 178 250 178 c 256,15,16
 213 178 213 178 180.5 192 c 128,-1,17
 148 206 148 206 124 230 c 128,-1,18
 100 254 100 254 86 286.5 c 128,-1,19
 72 319 72 319 72 356 c 256,0,1
EndSplineSet
Validated: 1
EndChar

StartChar: c
Encoding: 99 99 76
GlifName: c
Width: 505
Flags: W
LayerCount: 2
Fore
SplineSet
434 171 m 1,0,1
 434 133 434 133 420 100 c 128,-1,2
 406 67 406 67 381 42.5 c 128,-1,3
 356 18 356 18 323 3.5 c 128,-1,4
 290 -11 290 -11 253 -11 c 0,5,6
 215 -11 215 -11 182 3.5 c 128,-1,7
 149 18 149 18 124 42.5 c 128,-1,8
 99 67 99 67 85 100 c 128,-1,9
 71 133 71 133 71 171 c 2,10,-1
 71 420 l 2,11,12
 71 458 71 458 85 491 c 128,-1,13
 99 524 99 524 124 549 c 128,-1,14
 149 574 149 574 182 588 c 128,-1,15
 215 602 215 602 253 602 c 0,16,17
 290 602 290 602 323 588 c 128,-1,18
 356 574 356 574 381 549 c 128,-1,19
 406 524 406 524 420 491 c 128,-1,20
 434 458 434 458 434 420 c 1,21,-1
 313 420 l 1,22,23
 313 446 313 446 295.5 463.5 c 128,-1,24
 278 481 278 481 253 481 c 0,25,26
 227 481 227 481 209.5 463.5 c 128,-1,27
 192 446 192 446 192 420 c 2,28,-1
 192 171 l 2,29,30
 192 146 192 146 209.5 128 c 128,-1,31
 227 110 227 110 253 110 c 0,32,33
 278 110 278 110 295.5 128 c 128,-1,34
 313 146 313 146 313 171 c 1,35,-1
 434 171 l 1,0,1
EndSplineSet
Validated: 1
EndChar

StartChar: caron
Encoding: 711 711 77
GlifName: caron
Width: 383
Flags: W
LayerCount: 2
Fore
SplineSet
191 747 m 1,0,-1
 71 868 l 1,1,-1
 101 898 l 1,2,-1
 191 807 l 1,3,-1
 282 898 l 1,4,-1
 312 868 l 1,5,-1
 191 747 l 1,0,-1
EndSplineSet
Validated: 1
EndChar

StartChar: ccedilla
Encoding: 231 231 78
GlifName: ccedilla
Width: 505
Flags: W
LayerCount: 2
Fore
SplineSet
253 111 m 0,0,1
 278 111 278 111 295.5 128.5 c 128,-1,2
 313 146 313 146 313 171 c 1,3,-1
 434 171 l 1,4,5
 434 136 434 136 422 105.5 c 128,-1,6
 410 75 410 75 389 51 c 128,-1,7
 368 27 368 27 339.5 11 c 128,-1,8
 311 -5 311 -5 278 -9 c 1,9,-1
 278 -135 l 1,10,-1
 207 -135 l 1,11,-1
 227 -9 l 1,12,13
 194 -4 194 -4 165.5 12 c 128,-1,14
 137 28 137 28 116 52 c 128,-1,15
 95 76 95 76 83 106.5 c 128,-1,16
 71 137 71 137 71 171 c 2,17,-1
 71 420 l 2,18,19
 71 458 71 458 85 491 c 128,-1,20
 99 524 99 524 124 549 c 128,-1,21
 149 574 149 574 182 588 c 128,-1,22
 215 602 215 602 253 602 c 0,23,24
 290 602 290 602 323 588 c 128,-1,25
 356 574 356 574 381 549 c 128,-1,26
 406 524 406 524 420 491 c 128,-1,27
 434 458 434 458 434 420 c 1,28,-1
 313 420 l 1,29,30
 313 446 313 446 295.5 463.5 c 128,-1,31
 278 481 278 481 253 481 c 0,32,33
 227 481 227 481 209.5 463.5 c 128,-1,34
 192 446 192 446 192 420 c 2,35,-1
 192 171 l 2,36,37
 192 146 192 146 209.5 128.5 c 128,-1,38
 227 111 227 111 253 111 c 0,0,1
EndSplineSet
Validated: 1
EndChar

StartChar: cedilla
Encoding: 184 184 79
GlifName: cedilla
Width: 5
Flags: W
LayerCount: 2
Fore
SplineSet
48 -90 m 1,0,-1
 62 0 l 1,1,-1
 95 0 l 1,2,-1
 95 -90 l 1,3,-1
 48 -90 l 1,0,-1
EndSplineSet
Validated: 1
EndChar

StartChar: circumflex
Encoding: 710 710 80
GlifName: circumflex
Width: 805
Flags: W
LayerCount: 2
Fore
SplineSet
309 831 m 1,0,-1
 218 741 l 1,1,-1
 188 771 l 1,2,-1
 309 892 l 1,3,-1
 430 771 l 1,4,-1
 400 741 l 1,5,-1
 309 831 l 1,0,-1
EndSplineSet
Validated: 1
EndChar

StartChar: colon
Encoding: 58 58 81
GlifName: colon
Width: 261
Flags: W
LayerCount: 2
Fore
SplineSet
71 0 m 5,0,-1
 71 119 l 5,1,-1
 190 119 l 5,2,-1
 190 0 l 5,3,-1
 71 0 l 5,0,-1
71 257 m 5,4,-1
 71 376 l 5,5,-1
 190 376 l 5,6,-1
 190 257 l 5,7,-1
 71 257 l 5,4,-1
EndSplineSet
Validated: 1
EndChar

StartChar: comma
Encoding: 44 44 82
GlifName: comma
Width: 261
Flags: W
LayerCount: 2
Fore
SplineSet
71 -59 m 1,0,-1
 71 119 l 1,1,-1
 190 119 l 1,2,-1
 190 0 l 1,3,-1
 71 -59 l 1,0,-1
EndSplineSet
Validated: 1
EndChar

StartChar: copyright
Encoding: 169 169 83
GlifName: copyright
Width: 518
Flags: W
LayerCount: 2
Fore
SplineSet
392 656 m 256,0,1
 418 630 418 630 432.5 596 c 128,-1,2
 447 562 447 562 447 523 c 0,3,4
 447 485 447 485 432.5 450.5 c 128,-1,5
 418 416 418 416 392 390 c 256,6,7
 366 364 366 364 332 349.5 c 128,-1,8
 298 335 298 335 259 335 c 256,9,10
 220 335 220 335 186 349.5 c 128,-1,11
 152 364 152 364 126 390 c 256,12,13
 100 416 100 416 85.5 450.5 c 128,-1,14
 71 485 71 485 71 523 c 0,15,16
 71 562 71 562 85.5 596 c 128,-1,17
 100 630 100 630 126 656 c 256,18,19
 152 682 152 682 186 696.5 c 128,-1,20
 220 711 220 711 259 711 c 256,21,22
 298 711 298 711 332 696.5 c 128,-1,23
 366 682 366 682 392 656 c 256,0,1
367 416 m 0,24,25
 387 437 387 437 399 464 c 128,-1,26
 411 491 411 491 411 523 c 256,27,28
 411 555 411 555 399 582.5 c 128,-1,29
 387 610 387 610 367 631 c 0,30,31
 346 651 346 651 318.5 663 c 128,-1,32
 291 675 291 675 259 675 c 256,33,34
 227 675 227 675 199.5 663 c 128,-1,35
 172 651 172 651 151 631 c 0,36,37
 131 610 131 610 119 582.5 c 128,-1,38
 107 555 107 555 107 523 c 256,39,40
 107 491 107 491 119 464 c 128,-1,41
 131 437 131 437 151 416 c 0,42,43
 172 395 172 395 199.5 383 c 128,-1,44
 227 371 227 371 259 371 c 256,45,46
 291 371 291 371 318.5 383 c 128,-1,47
 346 395 346 395 367 416 c 0,24,25
257 433 m 0,48,49
 234 433 234 433 217 450 c 128,-1,50
 200 467 200 467 200 490 c 2,51,-1
 200 555 l 2,52,53
 200 578 200 578 217 595 c 128,-1,54
 234 612 234 612 257 612 c 0,55,56
 281 612 281 612 297.5 595 c 128,-1,57
 314 578 314 578 314 555 c 1,58,-1
 286 555 l 1,59,60
 286 566 286 566 277.5 574.5 c 128,-1,61
 269 583 269 583 257 583 c 0,62,63
 246 583 246 583 237.5 574.5 c 128,-1,64
 229 566 229 566 229 555 c 2,65,-1
 229 490 l 2,66,67
 229 479 229 479 237.5 470.5 c 128,-1,68
 246 462 246 462 257 462 c 0,69,70
 269 462 269 462 277.5 470.5 c 128,-1,71
 286 479 286 479 286 490 c 1,72,-1
 314 490 l 1,73,74
 314 467 314 467 297.5 450 c 128,-1,75
 281 433 281 433 257 433 c 0,48,49
EndSplineSet
Validated: 1
EndChar

StartChar: d
Encoding: 100 100 84
GlifName: d
Width: 505
Flags: W
LayerCount: 2
Fore
SplineSet
71 410 m 2,0,1
 71 447 71 447 85 480 c 128,-1,2
 99 513 99 513 124 538 c 128,-1,3
 149 563 149 563 182 577 c 128,-1,4
 215 591 215 591 253 591 c 0,5,6
 286 591 286 591 313 581 c 1,7,-1
 313 712 l 1,8,-1
 434 712 l 1,9,-1
 434 0 l 1,10,-1
 313 0 l 1,11,-1
 313 10 l 1,12,13
 299 5 299 5 284 2.5 c 128,-1,14
 269 0 269 0 253 0 c 0,15,16
 215 0 215 0 182 14 c 128,-1,17
 149 28 149 28 124 53 c 128,-1,18
 99 78 99 78 85 111 c 128,-1,19
 71 144 71 144 71 182 c 2,20,-1
 71 410 l 2,0,1
192 182 m 2,21,22
 192 156 192 156 209.5 138.5 c 128,-1,23
 227 121 227 121 253 121 c 0,24,25
 278 121 278 121 295.5 138.5 c 128,-1,26
 313 156 313 156 313 182 c 2,27,-1
 313 410 l 2,28,29
 313 435 313 435 295.5 452.5 c 128,-1,30
 278 470 278 470 253 470 c 0,31,32
 227 470 227 470 209.5 452.5 c 128,-1,33
 192 435 192 435 192 410 c 2,34,-1
 192 182 l 2,21,22
EndSplineSet
Validated: 1
EndChar

StartChar: degree
Encoding: 176 176 85
GlifName: degree
Width: 403
Flags: W
LayerCount: 2
Fore
SplineSet
353 575 m 256,0,1
 353 544 353 544 341 516.5 c 128,-1,2
 329 489 329 489 308.5 468.5 c 128,-1,3
 288 448 288 448 260 436 c 128,-1,4
 232 424 232 424 201 424 c 256,5,6
 170 424 170 424 142.5 436 c 128,-1,7
 115 448 115 448 94.5 468.5 c 128,-1,8
 74 489 74 489 62 516.5 c 128,-1,9
 50 544 50 544 50 575 c 256,10,11
 50 606 50 606 62 634 c 128,-1,12
 74 662 74 662 94.5 682.5 c 128,-1,13
 115 703 115 703 142.5 715 c 128,-1,14
 170 727 170 727 201 727 c 256,15,16
 232 727 232 727 260 715 c 128,-1,17
 288 703 288 703 308.5 682.5 c 128,-1,18
 329 662 329 662 341 634 c 128,-1,19
 353 606 353 606 353 575 c 256,0,1
288 575 m 0,20,21
 288 611 288 611 262.5 636.5 c 128,-1,22
 237 662 237 662 201 662 c 0,23,24
 183 662 183 662 167.5 655 c 128,-1,25
 152 648 152 648 140.5 636.5 c 128,-1,26
 129 625 129 625 122 609 c 128,-1,27
 115 593 115 593 115 575 c 256,28,29
 115 557 115 557 122 541.5 c 128,-1,30
 129 526 129 526 140.5 514.5 c 128,-1,31
 152 503 152 503 167.5 496 c 128,-1,32
 183 489 183 489 201 489 c 256,33,34
 219 489 219 489 235 496 c 128,-1,35
 251 503 251 503 262.5 514.5 c 128,-1,36
 274 526 274 526 281 541.5 c 128,-1,37
 288 557 288 557 288 575 c 0,20,21
EndSplineSet
Validated: 1
EndChar

StartChar: dieresis
Encoding: 168 168 86
GlifName: dieresis
Width: 4
Flags: W
LayerCount: 2
Fore
SplineSet
97 755 m 1,0,-1
 97 826 l 1,1,-1
 168 826 l 1,2,-1
 168 755 l 1,3,-1
 97 755 l 1,0,-1
239 755 m 1,4,-1
 239 826 l 1,5,-1
 310 826 l 1,6,-1
 310 755 l 1,7,-1
 239 755 l 1,4,-1
EndSplineSet
Validated: 1
EndChar

StartChar: divide
Encoding: 247 247 87
GlifName: divide
Width: 624
Flags: W
LayerCount: 2
Fore
SplineSet
259.900390625 72.099609375 m 1,0,-1
 259.900390625 179.200195312 l 1,1,-1
 367 179.200195312 l 1,2,-1
 367 72.099609375 l 1,3,-1
 259.900390625 72.099609375 l 1,0,-1
260 446.799804688 m 5,4,-1
 260 553.900390625 l 5,5,-1
 367.099609375 553.900390625 l 5,6,-1
 367.099609375 446.799804688 l 5,7,-1
 260 446.799804688 l 5,4,-1
362 363 m 1,8,-1
 553 363 l 1,9,-1
 553 263 l 1,10,-1
 363 263 l 1,11,-1
 71 263 l 1,12,-1
 71 363 l 1,13,-1
 362 363 l 1,8,-1
EndSplineSet
Validated: 1
EndChar

StartChar: dotaccent
Encoding: 729 729 88
GlifName: dotaccent
Width: 335
Flags: W
LayerCount: 2
Fore
SplineSet
107 712 m 1,0,-1
 228 712 l 1,1,-1
 228 651 l 1,2,-1
 107 651 l 1,3,-1
 107 712 l 1,0,-1
EndSplineSet
Validated: 1
EndChar

StartChar: dotlessi
Encoding: 305 305 89
GlifName: dotlessi
Width: 263
Flags: W
LayerCount: 2
Fore
SplineSet
71 0 m 1,0,-1
 71 591 l 1,1,-1
 192 591 l 1,2,-1
 192 0 l 1,3,-1
 71 0 l 1,0,-1
EndSplineSet
Validated: 1
EndChar

StartChar: e
Encoding: 101 101 90
GlifName: e
Width: 534
Flags: W
LayerCount: 2
Fore
SplineSet
192 171 m 2,0,1
 192 146 192 146 209.5 128 c 128,-1,2
 227 110 227 110 253 110 c 0,3,4
 278 110 278 110 295.5 128 c 128,-1,5
 313 146 313 146 313 171 c 1,6,-1
 434 171 l 1,7,8
 434 133 434 133 420 100 c 128,-1,9
 406 67 406 67 381 42.5 c 128,-1,10
 356 18 356 18 323 3.5 c 128,-1,11
 290 -11 290 -11 253 -11 c 0,12,13
 215 -11 215 -11 182 3.5 c 128,-1,14
 149 18 149 18 124 42.5 c 128,-1,15
 99 67 99 67 85 100 c 128,-1,16
 71 133 71 133 71 171 c 2,17,-1
 71 406 l 2,18,19
 71 446 71 446 86.5 482 c 128,-1,20
 102 518 102 518 128.5 544.5 c 128,-1,21
 155 571 155 571 190.5 586.5 c 128,-1,22
 226 602 226 602 267 602 c 0,23,24
 307 602 307 602 343 586.5 c 128,-1,25
 379 571 379 571 405.5 544.5 c 128,-1,26
 432 518 432 518 447.5 482 c 128,-1,27
 463 446 463 446 463 406 c 2,28,-1
 463 264 l 1,29,-1
 192 264 l 1,30,-1
 192 171 l 2,0,1
342 406 m 2,31,32
 342 437 342 437 320 459 c 128,-1,33
 298 481 298 481 267 481 c 256,34,35
 236 481 236 481 214 459 c 128,-1,36
 192 437 192 437 192 406 c 2,37,-1
 192 385 l 1,38,-1
 342 385 l 1,39,-1
 342 406 l 2,31,32
EndSplineSet
Validated: 1
EndChar

StartChar: eacute
Encoding: 233 233 91
GlifName: eacute
Width: 534
Flags: W
LayerCount: 2
Fore
SplineSet
192 171 m 2,0,1
 192 146 192 146 209.5 128 c 128,-1,2
 227 110 227 110 253 110 c 0,3,4
 278 110 278 110 295.5 128 c 128,-1,5
 313 146 313 146 313 171 c 1,6,-1
 434 171 l 1,7,8
 434 133 434 133 420 100 c 128,-1,9
 406 67 406 67 381 42.5 c 128,-1,10
 356 18 356 18 323 3.5 c 128,-1,11
 290 -11 290 -11 253 -11 c 0,12,13
 215 -11 215 -11 182 3.5 c 128,-1,14
 149 18 149 18 124 42.5 c 128,-1,15
 99 67 99 67 85 100 c 128,-1,16
 71 133 71 133 71 171 c 2,17,-1
 71 406 l 2,18,19
 71 446 71 446 86.5 482 c 128,-1,20
 102 518 102 518 128.5 544.5 c 128,-1,21
 155 571 155 571 190.5 586.5 c 128,-1,22
 226 602 226 602 267 602 c 0,23,24
 307 602 307 602 343 586.5 c 128,-1,25
 379 571 379 571 405.5 544.5 c 128,-1,26
 432 518 432 518 447.5 482 c 128,-1,27
 463 446 463 446 463 406 c 2,28,-1
 463 264 l 1,29,-1
 192 264 l 1,30,-1
 192 171 l 2,0,1
342 406 m 2,31,32
 342 437 342 437 320 459 c 128,-1,33
 298 481 298 481 267 481 c 256,34,35
 236 481 236 481 214 459 c 128,-1,36
 192 437 192 437 192 406 c 2,37,-1
 192 385 l 1,38,-1
 342 385 l 1,39,-1
 342 406 l 2,31,32
225 640 m 1,40,-1
 190 675 l 1,41,-1
 285 771 l 1,42,-1
 336 721 l 1,43,-1
 225 640 l 1,40,-1
EndSplineSet
Validated: 1
EndChar

StartChar: ecircumflex
Encoding: 234 234 92
GlifName: ecircumflex
Width: 534
Flags: W
LayerCount: 2
Fore
SplineSet
192 171 m 2,0,1
 192 146 192 146 209.5 128 c 128,-1,2
 227 110 227 110 253 110 c 0,3,4
 278 110 278 110 295.5 128 c 128,-1,5
 313 146 313 146 313 171 c 1,6,-1
 434 171 l 1,7,8
 434 133 434 133 420 100 c 128,-1,9
 406 67 406 67 381 42.5 c 128,-1,10
 356 18 356 18 323 3.5 c 128,-1,11
 290 -11 290 -11 253 -11 c 0,12,13
 215 -11 215 -11 182 3.5 c 128,-1,14
 149 18 149 18 124 42.5 c 128,-1,15
 99 67 99 67 85 100 c 128,-1,16
 71 133 71 133 71 171 c 2,17,-1
 71 406 l 2,18,19
 71 446 71 446 86.5 482 c 128,-1,20
 102 518 102 518 128.5 544.5 c 128,-1,21
 155 571 155 571 190.5 586.5 c 128,-1,22
 226 602 226 602 267 602 c 0,23,24
 307 602 307 602 343 586.5 c 128,-1,25
 379 571 379 571 405.5 544.5 c 128,-1,26
 432 518 432 518 447.5 482 c 128,-1,27
 463 446 463 446 463 406 c 2,28,-1
 463 264 l 1,29,-1
 192 264 l 1,30,-1
 192 171 l 2,0,1
342 406 m 2,31,32
 342 437 342 437 320 459 c 128,-1,33
 298 481 298 481 267 481 c 256,34,35
 236 481 236 481 214 459 c 128,-1,36
 192 437 192 437 192 406 c 2,37,-1
 192 385 l 1,38,-1
 342 385 l 1,39,-1
 342 406 l 2,31,32
264 719 m 1,40,-1
 173 629 l 1,41,-1
 143 659 l 1,42,-1
 264 780 l 1,43,-1
 385 659 l 1,44,-1
 355 629 l 1,45,-1
 264 719 l 1,40,-1
EndSplineSet
Validated: 1
EndChar

StartChar: edieresis
Encoding: 235 235 93
GlifName: edieresis
Width: 534
Flags: W
LayerCount: 2
Fore
SplineSet
192 171 m 2,0,1
 192 146 192 146 209.5 128 c 128,-1,2
 227 110 227 110 253 110 c 0,3,4
 278 110 278 110 295.5 128 c 128,-1,5
 313 146 313 146 313 171 c 1,6,-1
 434 171 l 1,7,8
 434 133 434 133 420 100 c 128,-1,9
 406 67 406 67 381 42.5 c 128,-1,10
 356 18 356 18 323 3.5 c 128,-1,11
 290 -11 290 -11 253 -11 c 0,12,13
 215 -11 215 -11 182 3.5 c 128,-1,14
 149 18 149 18 124 42.5 c 128,-1,15
 99 67 99 67 85 100 c 128,-1,16
 71 133 71 133 71 171 c 2,17,-1
 71 406 l 2,18,19
 71 446 71 446 86.5 482 c 128,-1,20
 102 518 102 518 128.5 544.5 c 128,-1,21
 155 571 155 571 190.5 586.5 c 128,-1,22
 226 602 226 602 267 602 c 0,23,24
 307 602 307 602 343 586.5 c 128,-1,25
 379 571 379 571 405.5 544.5 c 128,-1,26
 432 518 432 518 447.5 482 c 128,-1,27
 463 446 463 446 463 406 c 2,28,-1
 463 264 l 1,29,-1
 192 264 l 1,30,-1
 192 171 l 2,0,1
342 406 m 2,31,32
 342 437 342 437 320 459 c 128,-1,33
 298 481 298 481 267 481 c 256,34,35
 236 481 236 481 214 459 c 128,-1,36
 192 437 192 437 192 406 c 2,37,-1
 192 385 l 1,38,-1
 342 385 l 1,39,-1
 342 406 l 2,31,32
156 650 m 1,40,-1
 156 721 l 1,41,-1
 227 721 l 1,42,-1
 227 650 l 1,43,-1
 156 650 l 1,40,-1
298 650 m 1,44,-1
 298 721 l 1,45,-1
 369 721 l 1,46,-1
 369 650 l 1,47,-1
 298 650 l 1,44,-1
EndSplineSet
Validated: 1
EndChar

StartChar: egrave
Encoding: 232 232 94
GlifName: egrave
Width: 534
Flags: W
LayerCount: 2
Fore
SplineSet
192 171 m 2,0,1
 192 146 192 146 209.5 128 c 128,-1,2
 227 110 227 110 253 110 c 0,3,4
 278 110 278 110 295.5 128 c 128,-1,5
 313 146 313 146 313 171 c 1,6,-1
 434 171 l 1,7,8
 434 133 434 133 420 100 c 128,-1,9
 406 67 406 67 381 42.5 c 128,-1,10
 356 18 356 18 323 3.5 c 128,-1,11
 290 -11 290 -11 253 -11 c 0,12,13
 215 -11 215 -11 182 3.5 c 128,-1,14
 149 18 149 18 124 42.5 c 128,-1,15
 99 67 99 67 85 100 c 128,-1,16
 71 133 71 133 71 171 c 2,17,-1
 71 406 l 2,18,19
 71 446 71 446 86.5 482 c 128,-1,20
 102 518 102 518 128.5 544.5 c 128,-1,21
 155 571 155 571 190.5 586.5 c 128,-1,22
 226 602 226 602 267 602 c 0,23,24
 307 602 307 602 343 586.5 c 128,-1,25
 379 571 379 571 405.5 544.5 c 128,-1,26
 432 518 432 518 447.5 482 c 128,-1,27
 463 446 463 446 463 406 c 2,28,-1
 463 264 l 1,29,-1
 192 264 l 1,30,-1
 192 171 l 2,0,1
342 406 m 2,31,32
 342 437 342 437 320 459 c 128,-1,33
 298 481 298 481 267 481 c 256,34,35
 236 481 236 481 214 459 c 128,-1,36
 192 437 192 437 192 406 c 2,37,-1
 192 385 l 1,38,-1
 342 385 l 1,39,-1
 342 406 l 2,31,32
233 771 m 1,40,-1
 329 675 l 1,41,-1
 294 640 l 1,42,-1
 183 721 l 1,43,-1
 233 771 l 1,40,-1
EndSplineSet
Validated: 1
EndChar

StartChar: eight
Encoding: 56 56 95
GlifName: eight
Width: 617
Flags: W
LayerCount: 2
Fore
SplineSet
190 223 m 0,0,1
 190 199 190 199 199.5 177.5 c 128,-1,2
 209 156 209 156 225 140 c 128,-1,3
 241 124 241 124 262.5 114.5 c 128,-1,4
 284 105 284 105 309 105 c 0,5,6
 333 105 333 105 354.5 114.5 c 128,-1,7
 376 124 376 124 392 140 c 128,-1,8
 408 156 408 156 417.5 177.5 c 128,-1,9
 427 199 427 199 427 223 c 0,10,11
 427 248 427 248 417.5 269.5 c 128,-1,12
 408 291 408 291 392 307 c 128,-1,13
 376 323 376 323 354.5 332.5 c 128,-1,14
 333 342 333 342 309 342 c 0,15,16
 284 342 284 342 262.5 332.5 c 128,-1,17
 241 323 241 323 225 307 c 128,-1,18
 209 291 209 291 199.5 269.5 c 128,-1,19
 190 248 190 248 190 223 c 0,0,1
455 410 m 1,20,21
 497 378 497 378 521.5 329 c 128,-1,22
 546 280 546 280 546 223 c 0,23,24
 546 174 546 174 527.5 131 c 128,-1,25
 509 88 509 88 476.5 55.5 c 128,-1,26
 444 23 444 23 401 4.5 c 128,-1,27
 358 -14 358 -14 309 -14 c 256,28,29
 260 -14 260 -14 216.5 4.5 c 128,-1,30
 173 23 173 23 141 55.5 c 128,-1,31
 109 88 109 88 90 131 c 128,-1,32
 71 174 71 174 71 223 c 0,33,34
 71 280 71 280 95.5 329 c 128,-1,35
 120 378 120 378 162 410 c 1,36,37
 141 436 141 436 128.5 467.5 c 128,-1,38
 116 499 116 499 116 534 c 0,39,40
 116 574 116 574 131 609 c 128,-1,41
 146 644 146 644 172.5 670.5 c 128,-1,42
 199 697 199 697 234 712 c 128,-1,43
 269 727 269 727 309 727 c 256,44,45
 349 727 349 727 384 712 c 128,-1,46
 419 697 419 697 445 670.5 c 128,-1,47
 471 644 471 644 486 609 c 128,-1,48
 501 574 501 574 501 534 c 0,49,50
 501 499 501 499 489 467.5 c 128,-1,51
 477 436 477 436 455 410 c 1,20,21
235 534 m 0,52,53
 235 504 235 504 256.5 482.5 c 128,-1,54
 278 461 278 461 309 461 c 0,55,56
 339 461 339 461 360.5 482.5 c 128,-1,57
 382 504 382 504 382 534 c 0,58,59
 382 565 382 565 360.5 586.5 c 128,-1,60
 339 608 339 608 309 608 c 0,61,62
 278 608 278 608 256.5 586.5 c 128,-1,63
 235 565 235 565 235 534 c 0,52,53
EndSplineSet
Validated: 1
EndChar

StartChar: ellipsis
Encoding: 8230 8230 96
GlifName: ellipsis
Width: 783
Flags: W
LayerCount: 2
Fore
SplineSet
71 0 m 1,0,-1
 71 119 l 1,1,-1
 190 119 l 1,2,-1
 190 0 l 1,3,-1
 71 0 l 1,0,-1
332 0 m 1,4,-1
 332 119 l 1,5,-1
 451 119 l 1,6,-1
 451 0 l 1,7,-1
 332 0 l 1,4,-1
593 0 m 1,8,-1
 593 119 l 1,9,-1
 712 119 l 1,10,-1
 712 0 l 1,11,-1
 593 0 l 1,8,-1
EndSplineSet
Validated: 1
EndChar

StartChar: emdash
Encoding: 8212 8212 97
GlifName: emdash
Width: 1000
Flags: W
LayerCount: 2
Fore
SplineSet
0 334 m 1,0,-1
 1000 334 l 1,1,-1
 1000 217 l 1,2,-1
 0 217 l 1,3,-1
 0 334 l 1,0,-1
EndSplineSet
Validated: 1
EndChar

StartChar: endash
Encoding: 8211 8211 98
GlifName: endash
Width: 613
Flags: W
LayerCount: 2
Fore
SplineSet
12 217 m 1,0,-1
 12 334 l 1,1,-1
 601 334 l 1,2,-1
 601 217 l 1,3,-1
 12 217 l 1,0,-1
EndSplineSet
Validated: 1
EndChar

StartChar: equal
Encoding: 61 61 99
GlifName: equal
Width: 624
Flags: W
LayerCount: 2
Fore
SplineSet
363 363 m 1,0,-1
 263 363 l 1,1,-1
 71 363 l 1,2,-1
 71 463 l 1,3,-1
 262 463 l 1,4,-1
 362 463 l 1,5,-1
 553 463 l 1,6,-1
 553 363 l 1,7,-1
 363 363 l 1,0,-1
363 163 m 1,8,-1
 263 163 l 1,9,-1
 71 163 l 1,10,-1
 71 263 l 1,11,-1
 262 263 l 1,12,-1
 362 263 l 1,13,-1
 553 263 l 1,14,-1
 553 163 l 1,15,-1
 363 163 l 1,8,-1
EndSplineSet
Validated: 1
EndChar

StartChar: exclam
Encoding: 33 33 100
GlifName: exclam
Width: 263
Flags: W
LayerCount: 2
Fore
SplineSet
71 712 m 1,0,-1
 191 712 l 1,1,-1
 180 208 l 1,2,-1
 81 208 l 1,3,-1
 71 712 l 1,0,-1
73 0 m 1,4,-1
 73 119 l 1,5,-1
 192 119 l 1,6,-1
 192 0 l 1,7,-1
 73 0 l 1,4,-1
EndSplineSet
Validated: 1
EndChar

StartChar: f
Encoding: 102 102 101
GlifName: f
Width: 505
Flags: W
LayerCount: 2
Fore
SplineSet
314 541 m 1,0,1
 314 567 314 567 296 584.5 c 128,-1,2
 278 602 278 602 253 602 c 0,3,4
 227 602 227 602 209.5 584.5 c 128,-1,5
 192 567 192 567 192 541 c 2,6,-1
 192 417 l 1,7,-1
 314 417 l 1,8,-1
 314 296 l 1,9,-1
 192 296 l 1,10,-1
 192 0 l 1,11,-1
 71 0 l 1,12,-1
 71 541 l 2,13,14
 71 579 71 579 85 612 c 128,-1,15
 99 645 99 645 124 670 c 128,-1,16
 149 695 149 695 182 709 c 128,-1,17
 215 723 215 723 253 723 c 0,18,19
 290 723 290 723 323 709 c 128,-1,20
 356 695 356 695 381 670 c 128,-1,21
 406 645 406 645 420 612 c 128,-1,22
 434 579 434 579 434 541 c 1,23,-1
 314 541 l 1,0,1
EndSplineSet
Validated: 1
EndChar

StartChar: fi
Encoding: 64257 64257 102
GlifName: fi
Width: 505
Flags: W
LayerCount: 2
Fore
SplineSet
313 0 m 5,0,-1
 313 417 l 5,1,-1
 434 417 l 5,2,-1
 434 0 l 5,3,-1
 313 0 l 5,0,-1
313 541 m 5,4,5
 313 567 313 567 295.5 584.5 c 132,-1,6
 278 602 278 602 253 602 c 4,7,8
 227 602 227 602 209.5 584.5 c 132,-1,9
 192 567 192 567 192 541 c 6,10,-1
 192 417 l 5,11,-1
 253 417 l 5,12,-1
 253 296 l 5,13,-1
 192 296 l 5,14,-1
 192 0 l 5,15,-1
 71 0 l 5,16,-1
 71 541 l 6,17,18
 71 579 71 579 85 612 c 132,-1,19
 99 645 99 645 124 670 c 132,-1,20
 149 695 149 695 182 709 c 132,-1,21
 215 723 215 723 253 723 c 4,22,23
 290 723 290 723 323 709 c 132,-1,24
 356 695 356 695 381 670 c 132,-1,25
 406 645 406 645 420 612 c 132,-1,26
 434 579 434 579 434 541 c 5,27,-1
 313 541 l 5,4,5
EndSplineSet
Validated: 1
LCarets2: 1 0
Ligature2: "'clig' Contextual Ligatures in Latin lookup 0 subtable" f i
EndChar

StartChar: five
Encoding: 53 53 103
GlifName: five
Width: 617
Flags: W
LayerCount: 2
Fore
SplineSet
280 518 m 0,0,1
 335 518 335 518 383.5 497 c 128,-1,2
 432 476 432 476 468 440 c 128,-1,3
 504 404 504 404 525 355.5 c 128,-1,4
 546 307 546 307 546 252 c 256,5,6
 546 197 546 197 525 148.5 c 128,-1,7
 504 100 504 100 468 64 c 128,-1,8
 432 28 432 28 383.5 7 c 128,-1,9
 335 -14 335 -14 280 -14 c 0,10,11
 216 -14 216 -14 162 13.5 c 128,-1,12
 108 41 108 41 71 88 c 1,13,-1
 164 161 l 1,14,15
 184 135 184 135 214.5 120 c 128,-1,16
 245 105 245 105 280 105 c 0,17,18
 310 105 310 105 337 116.5 c 128,-1,19
 364 128 364 128 384 148 c 128,-1,20
 404 168 404 168 415.5 195 c 128,-1,21
 427 222 427 222 427 252 c 0,22,23
 427 287 427 287 412.5 316.5 c 128,-1,24
 398 346 398 346 373 366 c 0,25,26
 332 399 332 399 280 399 c 0,27,28
 245 399 245 399 214.5 384 c 128,-1,29
 184 369 184 369 164 343 c 1,30,-1
 71 416 l 1,31,-1
 71 593 l 1,32,-1
 71 712 l 1,33,-1
 484 712 l 1,34,-1
 484 593 l 1,35,-1
 190 593 l 1,36,-1
 190 502 l 1,37,38
 211 510 211 510 233.5 514 c 128,-1,39
 256 518 256 518 280 518 c 0,0,1
EndSplineSet
Validated: 1
EndChar

StartChar: f_l
Encoding: 64258 64258 104
GlifName: f_l
Width: 505
GlyphClass: 3
Flags: W
LayerCount: 2
Fore
SplineSet
253 602 m 5,0,1
 227 602 227 602 209.5 584.5 c 132,-1,2
 192 567 192 567 192 541 c 6,3,-1
 192 417 l 5,4,-1
 253 417 l 5,5,-1
 253 296 l 5,6,-1
 192 296 l 5,7,-1
 192 0 l 5,8,-1
 71 0 l 5,9,-1
 71 541 l 6,10,11
 71 579 71 579 85 612 c 132,-1,12
 99 645 99 645 124 670 c 132,-1,13
 149 695 149 695 182 709 c 132,-1,14
 215 723 215 723 253 723 c 5,15,-1
 253 602 l 5,0,1
313 0 m 5,16,-1
 313 712 l 5,17,-1
 434 712 l 5,18,-1
 434 0 l 5,19,-1
 313 0 l 5,16,-1
EndSplineSet
Validated: 1
Ligature2: "'clig' Contextual Ligatures in Latin lookup 0 subtable" f l
EndChar

StartChar: four
Encoding: 52 52 105
GlifName: four
Width: 617
Flags: W
LayerCount: 2
Fore
SplineSet
508 249 m 1,0,-1
 546 249 l 1,1,-1
 546 130 l 1,2,-1
 508 130 l 1,3,-1
 508 0 l 1,4,-1
 389 0 l 1,5,-1
 389 130 l 1,6,-1
 71 130 l 1,7,-1
 71 249 l 1,8,-1
 389 712 l 1,9,-1
 508 712 l 1,10,-1
 508 249 l 1,0,-1
389 249 m 1,11,-1
 389 503 l 1,12,-1
 215 249 l 1,13,-1
 389 249 l 1,11,-1
EndSplineSet
Validated: 1
EndChar

StartChar: g
Encoding: 103 103 106
GlifName: g
Width: 505
Flags: W
LayerCount: 2
Fore
SplineSet
434 591 m 1,0,-1
 434 0 l 2,1,2
 434 -38 434 -38 420 -71 c 128,-1,3
 406 -104 406 -104 381 -128.5 c 128,-1,4
 356 -153 356 -153 323 -167.5 c 128,-1,5
 290 -182 290 -182 253 -182 c 0,6,7
 215 -182 215 -182 182 -167.5 c 128,-1,8
 149 -153 149 -153 124 -128 c 1,9,-1
 210 -43 l 1,10,11
 228 -61 228 -61 253 -61 c 256,12,13
 278 -61 278 -61 295.5 -43 c 128,-1,14
 313 -25 313 -25 313 0 c 2,15,-1
 313 10 l 1,16,17
 299 5 299 5 284 2.5 c 128,-1,18
 269 0 269 0 253 0 c 0,19,20
 215 0 215 0 182 14 c 128,-1,21
 149 28 149 28 124 53 c 128,-1,22
 99 78 99 78 85 111 c 128,-1,23
 71 144 71 144 71 182 c 2,24,-1
 71 410 l 2,25,26
 71 447 71 447 85 480 c 128,-1,27
 99 513 99 513 124 538 c 128,-1,28
 149 563 149 563 182 577 c 128,-1,29
 215 591 215 591 253 591 c 0,30,31
 286 591 286 591 313 581 c 1,32,-1
 313 591 l 1,33,-1
 434 591 l 1,0,-1
253 121 m 0,34,35
 278 121 278 121 295.5 138.5 c 128,-1,36
 313 156 313 156 313 182 c 2,37,-1
 313 410 l 2,38,39
 313 435 313 435 295.5 452.5 c 128,-1,40
 278 470 278 470 253 470 c 0,41,42
 227 470 227 470 209.5 452.5 c 128,-1,43
 192 435 192 435 192 410 c 2,44,-1
 192 182 l 2,45,46
 192 156 192 156 209.5 138.5 c 128,-1,47
 227 121 227 121 253 121 c 0,34,35
EndSplineSet
Validated: 1
EndChar

StartChar: grave
Encoding: 96 96 107
GlifName: grave
Width: 805
Flags: W
LayerCount: 2
Fore
SplineSet
239 886 m 1,0,-1
 335 790 l 1,1,-1
 300 755 l 1,2,-1
 189 836 l 1,3,-1
 239 886 l 1,0,-1
EndSplineSet
Validated: 1
EndChar

StartChar: greater
Encoding: 62 62 108
GlifName: greater
Width: 613
Flags: W
LayerCount: 2
Fore
SplineSet
71 130 m 1,0,-1
 454 350 l 1,1,-1
 71 570 l 1,2,-1
 71 673 l 1,3,-1
 542 401 l 1,4,-1
 542 300 l 1,5,-1
 71 28 l 1,6,-1
 71 130 l 1,0,-1
EndSplineSet
Validated: 1
EndChar

StartChar: guillemotleft
Encoding: 171 171 109
GlifName: guillemotleft
Width: 614
Flags: W
LayerCount: 2
Fore
SplineSet
153 310 m 1,0,-1
 278 185 l 1,1,-1
 278 60 l 1,2,-1
 28 310 l 1,3,-1
 278 560 l 1,4,-1
 278 435 l 1,5,-1
 153 310 l 1,0,-1
419 310 m 1,6,-1
 544 185 l 1,7,-1
 544 60 l 1,8,-1
 294 310 l 1,9,-1
 544 560 l 1,10,-1
 544 435 l 1,11,-1
 419 310 l 1,6,-1
EndSplineSet
Validated: 1
EndChar

StartChar: guillemotright
Encoding: 187 187 110
GlifName: guillemotright
Width: 614
Flags: W
LayerCount: 2
Fore
SplineSet
336 560 m 1,0,-1
 586 310 l 1,1,-1
 336 60 l 1,2,-1
 336 185 l 1,3,-1
 461 310 l 1,4,-1
 336 435 l 1,5,-1
 336 560 l 1,0,-1
70 560 m 1,6,-1
 320 310 l 1,7,-1
 70 60 l 1,8,-1
 70 185 l 1,9,-1
 195 310 l 1,10,-1
 70 435 l 1,11,-1
 70 560 l 1,6,-1
EndSplineSet
Validated: 1
EndChar

StartChar: h
Encoding: 104 104 111
GlifName: h
Width: 505
Flags: W
LayerCount: 2
Fore
SplineSet
253 591 m 0,0,1
 290 591 290 591 323 577 c 128,-1,2
 356 563 356 563 381 538 c 128,-1,3
 406 513 406 513 420 480 c 128,-1,4
 434 447 434 447 434 410 c 2,5,-1
 434 0 l 1,6,-1
 313 0 l 1,7,-1
 313 410 l 2,8,9
 313 435 313 435 295.5 452.5 c 128,-1,10
 278 470 278 470 253 470 c 0,11,12
 227 470 227 470 209.5 452.5 c 128,-1,13
 192 435 192 435 192 410 c 2,14,-1
 192 0 l 1,15,-1
 71 0 l 1,16,-1
 71 712 l 1,17,-1
 192 712 l 1,18,-1
 192 581 l 1,19,20
 219 591 219 591 253 591 c 0,0,1
EndSplineSet
Validated: 1
EndChar

StartChar: hyphen
Encoding: 45 45 112
GlifName: hyphen
Width: 617
Flags: W
LayerCount: 2
Fore
SplineSet
71 256 m 1,0,-1
 71 375 l 1,1,-1
 546 375 l 1,2,-1
 546 256 l 1,3,-1
 71 256 l 1,0,-1
EndSplineSet
Validated: 1
EndChar

StartChar: i
Encoding: 105 105 113
GlifName: i
Width: 263
Flags: W
LayerCount: 2
Fore
SplineSet
71 712 m 1,0,-1
 192 712 l 1,1,-1
 192 651 l 1,2,-1
 71 651 l 1,3,-1
 71 712 l 1,0,-1
71 0 m 1,4,-1
 71 591 l 1,5,-1
 192 591 l 1,6,-1
 192 0 l 1,7,-1
 71 0 l 1,4,-1
EndSplineSet
Validated: 1
EndChar

StartChar: iacute
Encoding: 237 237 114
GlifName: iacute
Width: 264
Flags: W
LayerCount: 2
Fore
SplineSet
71 0 m 1,0,-1
 71 591 l 1,1,-1
 192 591 l 1,2,-1
 192 0 l 1,3,-1
 71 0 l 1,0,-1
97 640 m 1,4,-1
 62 675 l 1,5,-1
 157 771 l 1,6,-1
 208 721 l 1,7,-1
 97 640 l 1,4,-1
EndSplineSet
Validated: 1
EndChar

StartChar: icircumflex
Encoding: 238 238 115
GlifName: icircumflex
Width: 264
Flags: W
LayerCount: 2
Fore
SplineSet
71 0 m 1,0,-1
 71 591 l 1,1,-1
 192 591 l 1,2,-1
 192 0 l 1,3,-1
 71 0 l 1,0,-1
133 719 m 1,4,-1
 42 629 l 1,5,-1
 12 659 l 1,6,-1
 133 780 l 1,7,-1
 254 659 l 1,8,-1
 224 629 l 1,9,-1
 133 719 l 1,4,-1
EndSplineSet
Validated: 1
EndChar

StartChar: idieresis
Encoding: 239 239 116
GlifName: idieresis
Width: 264
Flags: W
LayerCount: 2
Fore
SplineSet
71 0 m 1,0,-1
 71 591 l 1,1,-1
 192 591 l 1,2,-1
 192 0 l 1,3,-1
 71 0 l 1,0,-1
22 650 m 1,4,-1
 22 721 l 1,5,-1
 93 721 l 1,6,-1
 93 650 l 1,7,-1
 22 650 l 1,4,-1
164 650 m 1,8,-1
 164 721 l 1,9,-1
 235 721 l 1,10,-1
 235 650 l 1,11,-1
 164 650 l 1,8,-1
EndSplineSet
Validated: 1
EndChar

StartChar: igrave
Encoding: 236 236 117
GlifName: igrave
Width: 264
Flags: W
LayerCount: 2
Fore
SplineSet
71 0 m 1,0,-1
 71 591 l 1,1,-1
 192 591 l 1,2,-1
 192 0 l 1,3,-1
 71 0 l 1,0,-1
111 771 m 1,4,-1
 207 675 l 1,5,-1
 172 640 l 1,6,-1
 61 721 l 1,7,-1
 111 771 l 1,4,-1
EndSplineSet
Validated: 1
EndChar

StartChar: j
Encoding: 106 106 118
GlifName: j
Width: 452
Flags: W
LayerCount: 2
Fore
SplineSet
260 712 m 1,0,-1
 381 712 l 1,1,-1
 381 651 l 1,2,-1
 260 651 l 1,3,-1
 260 712 l 1,0,-1
157 -43 m 1,4,5
 175 -61 175 -61 200 -61 c 256,6,7
 225 -61 225 -61 242.5 -43 c 128,-1,8
 260 -25 260 -25 260 0 c 2,9,-1
 260 591 l 1,10,-1
 381 591 l 1,11,-1
 381 0 l 2,12,13
 381 -38 381 -38 367 -71 c 128,-1,14
 353 -104 353 -104 328 -128.5 c 128,-1,15
 303 -153 303 -153 270 -167.5 c 128,-1,16
 237 -182 237 -182 200 -182 c 0,17,18
 162 -182 162 -182 129 -167.5 c 128,-1,19
 96 -153 96 -153 71 -128 c 1,20,-1
 157 -43 l 1,4,5
EndSplineSet
Validated: 1
EndChar

StartChar: k
Encoding: 107 107 119
GlifName: k
Width: 541
Flags: W
LayerCount: 2
Fore
SplineSet
470 0 m 1,0,-1
 336 0 l 1,1,-1
 192 296 l 1,2,-1
 192 0 l 1,3,-1
 71 0 l 1,4,-1
 71 712 l 1,5,-1
 192 712 l 1,6,-1
 192 472 l 1,7,-1
 304 591 l 1,8,-1
 470 591 l 1,9,-1
 281 390 l 1,10,-1
 470 0 l 1,0,-1
EndSplineSet
Validated: 1
EndChar

StartChar: l
Encoding: 108 108 120
GlifName: l
Width: 263
Flags: W
LayerCount: 2
Fore
SplineSet
71 0 m 1,0,-1
 71 712 l 1,1,-1
 192 712 l 1,2,-1
 192 0 l 1,3,-1
 71 0 l 1,0,-1
EndSplineSet
Validated: 1
EndChar

StartChar: less
Encoding: 60 60 121
GlifName: less
Width: 613
Flags: W
LayerCount: 2
Fore
SplineSet
542 29 m 1,0,-1
 71 301 l 1,1,-1
 71 402 l 1,2,-1
 542 674 l 1,3,-1
 542 571 l 1,4,-1
 159 351 l 1,5,-1
 542 131 l 1,6,-1
 542 29 l 1,0,-1
EndSplineSet
Validated: 1
EndChar

StartChar: m
Encoding: 109 109 122
GlifName: m
Width: 748
Flags: W
LayerCount: 2
Fore
SplineSet
495 591 m 0,0,1
 532 591 532 591 565.5 577 c 128,-1,2
 599 563 599 563 623.5 538 c 128,-1,3
 648 513 648 513 662.5 480 c 128,-1,4
 677 447 677 447 677 410 c 2,5,-1
 677 0 l 1,6,-1
 556 0 l 1,7,-1
 556 410 l 2,8,9
 556 435 556 435 538 452.5 c 128,-1,10
 520 470 520 470 495 470 c 256,11,12
 470 470 470 470 452 452.5 c 128,-1,13
 434 435 434 435 434 410 c 2,14,-1
 434 0 l 1,15,-1
 313 0 l 1,16,-1
 313 410 l 2,17,18
 313 435 313 435 295.5 452.5 c 128,-1,19
 278 470 278 470 253 470 c 0,20,21
 227 470 227 470 209.5 452.5 c 128,-1,22
 192 435 192 435 192 410 c 2,23,-1
 192 0 l 1,24,-1
 71 0 l 1,25,-1
 71 591 l 1,26,-1
 192 591 l 1,27,-1
 192 581 l 1,28,29
 219 591 219 591 253 591 c 0,30,31
 288 591 288 591 319 579 c 128,-1,32
 350 567 350 567 374 545 c 1,33,34
 398 567 398 567 429 579 c 128,-1,35
 460 591 460 591 495 591 c 0,0,1
EndSplineSet
Validated: 1
EndChar

StartChar: n
Encoding: 110 110 123
GlifName: n
Width: 505
Flags: W
LayerCount: 2
Fore
SplineSet
253 591 m 0,0,1
 290 591 290 591 323 577 c 128,-1,2
 356 563 356 563 381 538 c 128,-1,3
 406 513 406 513 420 480 c 128,-1,4
 434 447 434 447 434 410 c 2,5,-1
 434 0 l 1,6,-1
 314 0 l 1,7,-1
 314 410 l 2,8,9
 314 435 314 435 296 452.5 c 128,-1,10
 278 470 278 470 253 470 c 0,11,12
 227 470 227 470 209.5 452.5 c 128,-1,13
 192 435 192 435 192 410 c 2,14,-1
 192 0 l 1,15,-1
 71 0 l 1,16,-1
 71 591 l 1,17,-1
 192 591 l 1,18,-1
 192 581 l 1,19,20
 219 591 219 591 253 591 c 0,0,1
EndSplineSet
Validated: 1
EndChar

StartChar: nine
Encoding: 57 57 124
GlifName: nine
Width: 617
Flags: W
LayerCount: 2
Fore
SplineSet
427 489 m 0,0,1
 427 514 427 514 417.5 535.5 c 128,-1,2
 408 557 408 557 392 573 c 128,-1,3
 376 589 376 589 354.5 598.5 c 128,-1,4
 333 608 333 608 309 608 c 0,5,6
 284 608 284 608 262.5 598.5 c 128,-1,7
 241 589 241 589 225 573 c 128,-1,8
 209 557 209 557 199.5 535.5 c 128,-1,9
 190 514 190 514 190 489 c 0,10,11
 190 465 190 465 199.5 443.5 c 128,-1,12
 209 422 209 422 225 406 c 128,-1,13
 241 390 241 390 262.5 380.5 c 128,-1,14
 284 371 284 371 309 371 c 0,15,16
 333 371 333 371 354.5 380.5 c 128,-1,17
 376 390 376 390 392 406 c 128,-1,18
 408 422 408 422 417.5 443.5 c 128,-1,19
 427 465 427 465 427 489 c 0,0,1
546 223 m 2,20,21
 546 174 546 174 527.5 131 c 128,-1,22
 509 88 509 88 476.5 55.5 c 128,-1,23
 444 23 444 23 401 4.5 c 128,-1,24
 358 -14 358 -14 309 -14 c 256,25,26
 260 -14 260 -14 216.5 4.5 c 128,-1,27
 173 23 173 23 141 55.5 c 128,-1,28
 109 88 109 88 90 131 c 128,-1,29
 71 174 71 174 71 223 c 1,30,-1
 190 223 l 1,31,32
 190 199 190 199 199.5 177.5 c 128,-1,33
 209 156 209 156 225 140 c 128,-1,34
 241 124 241 124 262.5 114.5 c 128,-1,35
 284 105 284 105 309 105 c 0,36,37
 333 105 333 105 354.5 114.5 c 128,-1,38
 376 124 376 124 392 140 c 128,-1,39
 408 156 408 156 417.5 177.5 c 128,-1,40
 427 199 427 199 427 223 c 2,41,-1
 427 284 l 1,42,43
 401 269 401 269 371 260.5 c 128,-1,44
 341 252 341 252 309 252 c 0,45,46
 260 252 260 252 216.5 270.5 c 128,-1,47
 173 289 173 289 141 321.5 c 128,-1,48
 109 354 109 354 90 397 c 128,-1,49
 71 440 71 440 71 489 c 256,50,51
 71 538 71 538 90 581.5 c 128,-1,52
 109 625 109 625 141 657 c 128,-1,53
 173 689 173 689 216.5 708 c 128,-1,54
 260 727 260 727 309 727 c 256,55,56
 358 727 358 727 401 708 c 128,-1,57
 444 689 444 689 476.5 657 c 128,-1,58
 509 625 509 625 527.5 581.5 c 128,-1,59
 546 538 546 538 546 489 c 2,60,-1
 546 223 l 2,20,21
EndSplineSet
Validated: 1
EndChar

StartChar: numbersign
Encoding: 35 35 126
GlifName: numbersign
Width: 678
Flags: W
LayerCount: 2
Fore
SplineSet
482 202 m 1,0,-1
 464 0 l 1,1,-1
 364 0 l 1,2,-1
 382 202 l 1,3,-1
 268 202 l 1,4,-1
 250 0 l 1,5,-1
 150 0 l 1,6,-1
 168 202 l 1,7,-1
 71 202 l 1,8,-1
 71 288 l 1,9,-1
 175 288 l 1,10,-1
 190 445 l 1,11,-1
 71 445 l 1,12,-1
 71 531 l 1,13,-1
 196 531 l 1,14,-1
 214 730 l 1,15,-1
 314 730 l 1,16,-1
 296 531 l 1,17,-1
 410 531 l 1,18,-1
 428 730 l 1,19,-1
 528 730 l 1,20,-1
 510 531 l 1,21,-1
 607 531 l 1,22,-1
 607 445 l 1,23,-1
 503 445 l 1,24,-1
 489 288 l 1,25,-1
 607 288 l 1,26,-1
 607 202 l 1,27,-1
 482 202 l 1,0,-1
289 445 m 1,28,-1
 275 288 l 1,29,-1
 389 288 l 1,30,-1
 404 445 l 1,31,-1
 289 445 l 1,28,-1
EndSplineSet
Validated: 1
EndChar

StartChar: o
Encoding: 111 111 127
GlifName: o
Width: 506
Flags: W
LayerCount: 2
Fore
SplineSet
435 171 m 2,0,1
 435 133 435 133 421 100 c 128,-1,2
 407 67 407 67 382 42.5 c 128,-1,3
 357 18 357 18 324 3.5 c 128,-1,4
 291 -11 291 -11 254 -11 c 0,5,6
 216 -11 216 -11 183 3.5 c 128,-1,7
 150 18 150 18 125 42.5 c 128,-1,8
 100 67 100 67 86 100 c 128,-1,9
 72 133 72 133 72 171 c 2,10,-1
 72 420 l 2,11,12
 72 458 72 458 86 491 c 128,-1,13
 100 524 100 524 125 549 c 128,-1,14
 150 574 150 574 183 588 c 128,-1,15
 216 602 216 602 254 602 c 0,16,17
 291 602 291 602 324 588 c 128,-1,18
 357 574 357 574 382 549 c 128,-1,19
 407 524 407 524 421 491 c 128,-1,20
 435 458 435 458 435 420 c 2,21,-1
 435 171 l 2,0,1
315 420 m 2,22,23
 315 446 315 446 297 463.5 c 128,-1,24
 279 481 279 481 254 481 c 0,25,26
 228 481 228 481 210.5 463.5 c 128,-1,27
 193 446 193 446 193 420 c 2,28,-1
 193 171 l 2,29,30
 193 146 193 146 210.5 128 c 128,-1,31
 228 110 228 110 254 110 c 0,32,33
 279 110 279 110 297 128 c 128,-1,34
 315 146 315 146 315 171 c 2,35,-1
 315 420 l 2,22,23
EndSplineSet
Validated: 1
EndChar

StartChar: oacute
Encoding: 243 243 128
GlifName: oacute
Width: 506
Flags: W
LayerCount: 2
Fore
SplineSet
435 171 m 2,0,1
 435 133 435 133 421 100 c 128,-1,2
 407 67 407 67 382 42.5 c 128,-1,3
 357 18 357 18 324 3.5 c 128,-1,4
 291 -11 291 -11 254 -11 c 0,5,6
 216 -11 216 -11 183 3.5 c 128,-1,7
 150 18 150 18 125 42.5 c 128,-1,8
 100 67 100 67 86 100 c 128,-1,9
 72 133 72 133 72 171 c 2,10,-1
 72 420 l 2,11,12
 72 458 72 458 86 491 c 128,-1,13
 100 524 100 524 125 549 c 128,-1,14
 150 574 150 574 183 588 c 128,-1,15
 216 602 216 602 254 602 c 0,16,17
 291 602 291 602 324 588 c 128,-1,18
 357 574 357 574 382 549 c 128,-1,19
 407 524 407 524 421 491 c 128,-1,20
 435 458 435 458 435 420 c 2,21,-1
 435 171 l 2,0,1
315 420 m 2,22,23
 315 446 315 446 297 463.5 c 128,-1,24
 279 481 279 481 254 481 c 0,25,26
 228 481 228 481 210.5 463.5 c 128,-1,27
 193 446 193 446 193 420 c 2,28,-1
 193 171 l 2,29,30
 193 146 193 146 210.5 128 c 128,-1,31
 228 110 228 110 254 110 c 0,32,33
 279 110 279 110 297 128 c 128,-1,34
 315 146 315 146 315 171 c 2,35,-1
 315 420 l 2,22,23
205 640 m 1,36,-1
 170 675 l 1,37,-1
 265 771 l 1,38,-1
 316 721 l 1,39,-1
 205 640 l 1,36,-1
EndSplineSet
Validated: 1
EndChar

StartChar: ocircumflex
Encoding: 244 244 129
GlifName: ocircumflex
Width: 506
Flags: W
LayerCount: 2
Fore
SplineSet
435 171 m 2,0,1
 435 133 435 133 421 100 c 128,-1,2
 407 67 407 67 382 42.5 c 128,-1,3
 357 18 357 18 324 3.5 c 128,-1,4
 291 -11 291 -11 254 -11 c 0,5,6
 216 -11 216 -11 183 3.5 c 128,-1,7
 150 18 150 18 125 42.5 c 128,-1,8
 100 67 100 67 86 100 c 128,-1,9
 72 133 72 133 72 171 c 2,10,-1
 72 420 l 2,11,12
 72 458 72 458 86 491 c 128,-1,13
 100 524 100 524 125 549 c 128,-1,14
 150 574 150 574 183 588 c 128,-1,15
 216 602 216 602 254 602 c 0,16,17
 291 602 291 602 324 588 c 128,-1,18
 357 574 357 574 382 549 c 128,-1,19
 407 524 407 524 421 491 c 128,-1,20
 435 458 435 458 435 420 c 2,21,-1
 435 171 l 2,0,1
315 420 m 2,22,23
 315 446 315 446 297 463.5 c 128,-1,24
 279 481 279 481 254 481 c 0,25,26
 228 481 228 481 210.5 463.5 c 128,-1,27
 193 446 193 446 193 420 c 2,28,-1
 193 171 l 2,29,30
 193 146 193 146 210.5 128 c 128,-1,31
 228 110 228 110 254 110 c 0,32,33
 279 110 279 110 297 128 c 128,-1,34
 315 146 315 146 315 171 c 2,35,-1
 315 420 l 2,22,23
252 719 m 1,36,-1
 161 629 l 1,37,-1
 131 659 l 1,38,-1
 252 780 l 1,39,-1
 373 659 l 1,40,-1
 343 629 l 1,41,-1
 252 719 l 1,36,-1
EndSplineSet
Validated: 1
EndChar

StartChar: odieresis
Encoding: 246 246 130
GlifName: odieresis
Width: 506
Flags: W
LayerCount: 2
Fore
SplineSet
435 171 m 2,0,1
 435 133 435 133 421 100 c 128,-1,2
 407 67 407 67 382 42.5 c 128,-1,3
 357 18 357 18 324 3.5 c 128,-1,4
 291 -11 291 -11 254 -11 c 0,5,6
 216 -11 216 -11 183 3.5 c 128,-1,7
 150 18 150 18 125 42.5 c 128,-1,8
 100 67 100 67 86 100 c 128,-1,9
 72 133 72 133 72 171 c 2,10,-1
 72 420 l 2,11,12
 72 458 72 458 86 491 c 128,-1,13
 100 524 100 524 125 549 c 128,-1,14
 150 574 150 574 183 588 c 128,-1,15
 216 602 216 602 254 602 c 0,16,17
 291 602 291 602 324 588 c 128,-1,18
 357 574 357 574 382 549 c 128,-1,19
 407 524 407 524 421 491 c 128,-1,20
 435 458 435 458 435 420 c 2,21,-1
 435 171 l 2,0,1
315 420 m 2,22,23
 315 446 315 446 297 463.5 c 128,-1,24
 279 481 279 481 254 481 c 0,25,26
 228 481 228 481 210.5 463.5 c 128,-1,27
 193 446 193 446 193 420 c 2,28,-1
 193 171 l 2,29,30
 193 146 193 146 210.5 128 c 128,-1,31
 228 110 228 110 254 110 c 0,32,33
 279 110 279 110 297 128 c 128,-1,34
 315 146 315 146 315 171 c 2,35,-1
 315 420 l 2,22,23
147 650 m 1,36,-1
 147 721 l 1,37,-1
 218 721 l 1,38,-1
 218 650 l 1,39,-1
 147 650 l 1,36,-1
289 650 m 1,40,-1
 289 721 l 1,41,-1
 360 721 l 1,42,-1
 360 650 l 1,43,-1
 289 650 l 1,40,-1
EndSplineSet
Validated: 1
EndChar

StartChar: oe
Encoding: 339 339 131
GlifName: oe
Width: 776
Flags: W
LayerCount: 2
Fore
SplineSet
434 264 m 1,0,-1
 434 171 l 2,1,2
 434 146 434 146 452 128 c 128,-1,3
 470 110 470 110 495 110 c 0,4,5
 521 110 521 110 538.5 128 c 128,-1,6
 556 146 556 146 556 171 c 1,7,-1
 677 171 l 1,8,9
 677 133 677 133 662.5 100 c 128,-1,10
 648 67 648 67 623.5 42.5 c 128,-1,11
 599 18 599 18 565.5 3.5 c 128,-1,12
 532 -11 532 -11 495 -11 c 0,13,14
 460 -11 460 -11 429 1.5 c 128,-1,15
 398 14 398 14 374 36 c 1,16,17
 350 14 350 14 319 1.5 c 128,-1,18
 288 -11 288 -11 253 -11 c 0,19,20
 215 -11 215 -11 182 3.5 c 128,-1,21
 149 18 149 18 124 42.5 c 128,-1,22
 99 67 99 67 85 100 c 128,-1,23
 71 133 71 133 71 171 c 2,24,-1
 71 420 l 2,25,26
 71 458 71 458 85 491 c 128,-1,27
 99 524 99 524 124 549 c 128,-1,28
 149 574 149 574 182 588 c 128,-1,29
 215 602 215 602 253 602 c 0,30,31
 290 602 290 602 322 588.5 c 128,-1,32
 354 575 354 575 378 552 c 1,33,34
 404 575 404 575 437.5 588.5 c 128,-1,35
 471 602 471 602 509 602 c 0,36,37
 550 602 550 602 585.5 586.5 c 128,-1,38
 621 571 621 571 647.5 544.5 c 128,-1,39
 674 518 674 518 689.5 482 c 128,-1,40
 705 446 705 446 705 406 c 2,41,-1
 705 264 l 1,42,-1
 434 264 l 1,0,-1
509 481 m 0,43,44
 478 481 478 481 456 459 c 128,-1,45
 434 437 434 437 434 406 c 2,46,-1
 434 385 l 1,47,-1
 584 385 l 1,48,-1
 584 406 l 2,49,50
 584 437 584 437 562.5 459 c 128,-1,51
 541 481 541 481 509 481 c 0,43,44
313 420 m 2,52,53
 313 446 313 446 295.5 463.5 c 128,-1,54
 278 481 278 481 253 481 c 0,55,56
 227 481 227 481 209.5 463.5 c 128,-1,57
 192 446 192 446 192 420 c 2,58,-1
 192 171 l 2,59,60
 192 146 192 146 209.5 128 c 128,-1,61
 227 110 227 110 253 110 c 0,62,63
 278 110 278 110 295.5 128 c 128,-1,64
 313 146 313 146 313 171 c 2,65,-1
 313 420 l 2,52,53
EndSplineSet
Validated: 1
EndChar

StartChar: ograve
Encoding: 242 242 132
GlifName: ograve
Width: 506
Flags: W
LayerCount: 2
Fore
SplineSet
435 171 m 2,0,1
 435 133 435 133 421 100 c 128,-1,2
 407 67 407 67 382 42.5 c 128,-1,3
 357 18 357 18 324 3.5 c 128,-1,4
 291 -11 291 -11 254 -11 c 0,5,6
 216 -11 216 -11 183 3.5 c 128,-1,7
 150 18 150 18 125 42.5 c 128,-1,8
 100 67 100 67 86 100 c 128,-1,9
 72 133 72 133 72 171 c 2,10,-1
 72 420 l 2,11,12
 72 458 72 458 86 491 c 128,-1,13
 100 524 100 524 125 549 c 128,-1,14
 150 574 150 574 183 588 c 128,-1,15
 216 602 216 602 254 602 c 0,16,17
 291 602 291 602 324 588 c 128,-1,18
 357 574 357 574 382 549 c 128,-1,19
 407 524 407 524 421 491 c 128,-1,20
 435 458 435 458 435 420 c 2,21,-1
 435 171 l 2,0,1
315 420 m 2,22,23
 315 446 315 446 297 463.5 c 128,-1,24
 279 481 279 481 254 481 c 0,25,26
 228 481 228 481 210.5 463.5 c 128,-1,27
 193 446 193 446 193 420 c 2,28,-1
 193 171 l 2,29,30
 193 146 193 146 210.5 128 c 128,-1,31
 228 110 228 110 254 110 c 0,32,33
 279 110 279 110 297 128 c 128,-1,34
 315 146 315 146 315 171 c 2,35,-1
 315 420 l 2,22,23
235 771 m 1,36,-1
 331 675 l 1,37,-1
 296 640 l 1,38,-1
 185 721 l 1,39,-1
 235 771 l 1,36,-1
EndSplineSet
Validated: 1
EndChar

StartChar: one
Encoding: 49 49 133
GlifName: one
Width: 342
Flags: W
LayerCount: 2
Fore
SplineSet
152 712 m 1,0,-1
 271 712 l 1,1,-1
 271 0 l 1,2,-1
 152 0 l 1,3,-1
 152 557 l 1,4,-1
 71 490 l 1,5,-1
 71 645 l 1,6,-1
 152 712 l 1,0,-1
EndSplineSet
Validated: 1
EndChar

StartChar: ordmasculine
Encoding: 186 186 134
GlifName: ordmasculine
Width: 325
Flags: W
LayerCount: 2
Fore
SplineSet
15 562 m 256,0,1
 15 585 15 585 16.5 601.5 c 128,-1,2
 18 618 18 618 21.5 630.5 c 128,-1,3
 25 643 25 643 31 653 c 128,-1,4
 37 663 37 663 47 674 c 0,5,6
 67 697 67 697 97.5 707.5 c 128,-1,7
 128 718 128 718 163 718 c 256,8,9
 198 718 198 718 228 707.5 c 128,-1,10
 258 697 258 697 278 674 c 0,11,12
 288 663 288 663 294 653 c 128,-1,13
 300 643 300 643 303.5 630.5 c 128,-1,14
 307 618 307 618 308.5 601.5 c 128,-1,15
 310 585 310 585 310 562 c 256,16,17
 310 539 310 539 308.5 522.5 c 128,-1,18
 307 506 307 506 303.5 493.5 c 128,-1,19
 300 481 300 481 294 470.5 c 128,-1,20
 288 460 288 460 278 450 c 0,21,22
 258 427 258 427 227.5 416.5 c 128,-1,23
 197 406 197 406 162 406 c 256,24,25
 127 406 127 406 97 416.5 c 128,-1,26
 67 427 67 427 47 450 c 0,27,28
 37 460 37 460 31 470.5 c 128,-1,29
 25 481 25 481 21.5 493.5 c 128,-1,30
 18 506 18 506 16.5 522.5 c 128,-1,31
 15 539 15 539 15 562 c 256,0,1
93 562 m 256,32,33
 93 535 93 535 95 522 c 128,-1,34
 97 509 97 509 108 496 c 0,35,36
 127 472 127 472 162 472 c 0,37,38
 198 472 198 472 217 496 c 0,39,40
 228 509 228 509 230 522 c 128,-1,41
 232 535 232 535 232 562 c 256,42,43
 232 589 232 589 230 602 c 128,-1,44
 228 615 228 615 217 628 c 0,45,46
 198 652 198 652 163 652 c 0,47,48
 127 652 127 652 108 628 c 0,49,50
 97 615 97 615 95 602 c 128,-1,51
 93 589 93 589 93 562 c 256,32,33
EndSplineSet
Validated: 1
EndChar

StartChar: otilde
Encoding: 245 245 135
GlifName: otilde
Width: 505
Flags: W
LayerCount: 2
Fore
SplineSet
434 171 m 2,0,1
 434 133 434 133 420 100 c 128,-1,2
 406 67 406 67 381 42.5 c 128,-1,3
 356 18 356 18 323 3.5 c 128,-1,4
 290 -11 290 -11 253 -11 c 0,5,6
 215 -11 215 -11 182 3.5 c 128,-1,7
 149 18 149 18 124 42.5 c 128,-1,8
 99 67 99 67 85 100 c 128,-1,9
 71 133 71 133 71 171 c 2,10,-1
 71 420 l 2,11,12
 71 458 71 458 85 491 c 128,-1,13
 99 524 99 524 124 549 c 128,-1,14
 149 574 149 574 182 588 c 128,-1,15
 215 602 215 602 253 602 c 0,16,17
 290 602 290 602 323 588 c 128,-1,18
 356 574 356 574 381 549 c 128,-1,19
 406 524 406 524 420 491 c 128,-1,20
 434 458 434 458 434 420 c 2,21,-1
 434 171 l 2,0,1
314 420 m 2,22,23
 314 446 314 446 296 463.5 c 128,-1,24
 278 481 278 481 253 481 c 0,25,26
 227 481 227 481 209.5 463.5 c 128,-1,27
 192 446 192 446 192 420 c 2,28,-1
 192 171 l 2,29,30
 192 146 192 146 209.5 128 c 128,-1,31
 227 110 227 110 253 110 c 0,32,33
 278 110 278 110 296 128 c 128,-1,34
 314 146 314 146 314 171 c 2,35,-1
 314 420 l 2,22,23
EndSplineSet
Validated: 1
EndChar

StartChar: p
Encoding: 112 112 136
GlifName: p
Width: 505
Flags: W
LayerCount: 2
Fore
SplineSet
253 591 m 0,0,1
 290 591 290 591 323 577 c 128,-1,2
 356 563 356 563 381 538 c 128,-1,3
 406 513 406 513 420 480 c 128,-1,4
 434 447 434 447 434 410 c 2,5,-1
 434 182 l 2,6,7
 434 144 434 144 420 111 c 128,-1,8
 406 78 406 78 381 53 c 128,-1,9
 356 28 356 28 323 14 c 128,-1,10
 290 0 290 0 253 0 c 0,11,12
 237 0 237 0 221.5 2.5 c 128,-1,13
 206 5 206 5 192 10 c 1,14,-1
 192 -121 l 1,15,-1
 71 -121 l 1,16,-1
 71 182 l 1,17,-1
 71 410 l 1,18,-1
 71 591 l 1,19,-1
 192 591 l 1,20,-1
 192 581 l 1,21,22
 219 591 219 591 253 591 c 0,0,1
313 410 m 2,23,24
 313 435 313 435 295.5 452.5 c 128,-1,25
 278 470 278 470 253 470 c 0,26,27
 227 470 227 470 209.5 452.5 c 128,-1,28
 192 435 192 435 192 410 c 2,29,-1
 192 182 l 2,30,31
 192 156 192 156 209.5 138.5 c 128,-1,32
 227 121 227 121 253 121 c 0,33,34
 278 121 278 121 295.5 138.5 c 128,-1,35
 313 156 313 156 313 182 c 2,36,-1
 313 410 l 2,23,24
EndSplineSet
Validated: 1
EndChar

StartChar: parenleft
Encoding: 40 40 137
GlifName: parenleft
Width: 278
Flags: W
LayerCount: 2
Fore
SplineSet
218 -102 m 1,0,1
 179 -58 179 -58 149 -8.5 c 128,-1,2
 119 41 119 41 99.5 93.5 c 128,-1,3
 80 146 80 146 70 200 c 128,-1,4
 60 254 60 254 60 305 c 256,5,6
 60 356 60 356 70 409.5 c 128,-1,7
 80 463 80 463 99.5 515.5 c 128,-1,8
 119 568 119 568 149 618 c 128,-1,9
 179 668 179 668 218 712 c 1,10,-1
 258 712 l 1,11,12
 213 617 213 617 187.5 515.5 c 128,-1,13
 162 414 162 414 162 305 c 256,14,15
 162 196 162 196 187.5 94.5 c 128,-1,16
 213 -7 213 -7 258 -102 c 1,17,-1
 218 -102 l 1,0,1
EndSplineSet
Validated: 1
EndChar

StartChar: parenright
Encoding: 41 41 138
GlifName: parenright
Width: 278
Flags: W
LayerCount: 2
Fore
SplineSet
60 712 m 1,0,1
 99 668 99 668 129 618 c 128,-1,2
 159 568 159 568 178.5 515.5 c 128,-1,3
 198 463 198 463 208 409.5 c 128,-1,4
 218 356 218 356 218 305 c 256,5,6
 218 254 218 254 208 200 c 128,-1,7
 198 146 198 146 178.5 93.5 c 128,-1,8
 159 41 159 41 129 -8.5 c 128,-1,9
 99 -58 99 -58 60 -102 c 1,10,-1
 20 -102 l 1,11,12
 65 -7 65 -7 90.5 94.5 c 128,-1,13
 116 196 116 196 116 305 c 256,14,15
 116 414 116 414 90.5 515.5 c 128,-1,16
 65 617 65 617 20 712 c 1,17,-1
 60 712 l 1,0,1
EndSplineSet
Validated: 1
EndChar

StartChar: period
Encoding: 46 46 139
GlifName: period
Width: 261
Flags: W
LayerCount: 2
Fore
SplineSet
71 0 m 1,0,-1
 71 119 l 1,1,-1
 190 119 l 1,2,-1
 190 0 l 1,3,-1
 71 0 l 1,0,-1
EndSplineSet
Validated: 1
EndChar

StartChar: plus
Encoding: 43 43 140
GlifName: plus
Width: 624
Flags: W
LayerCount: 2
Fore
SplineSet
363 263 m 1,0,-1
 363 72 l 1,1,-1
 263 72 l 1,2,-1
 263 263 l 1,3,-1
 71 263 l 1,4,-1
 71 363 l 1,5,-1
 262 363 l 1,6,-1
 262 554 l 1,7,-1
 362 554 l 1,8,-1
 362 363 l 1,9,-1
 553 363 l 1,10,-1
 553 263 l 1,11,-1
 363 263 l 1,0,-1
EndSplineSet
Validated: 1
EndChar

StartChar: plusminus
Encoding: 177 177 141
GlifName: plusminus
Width: 624
Flags: W
LayerCount: 2
Fore
SplineSet
363 363 m 1,0,-1
 363 172 l 1,1,-1
 263 172 l 1,2,-1
 263 363 l 1,3,-1
 71 363 l 1,4,-1
 71 463 l 1,5,-1
 262 463 l 1,6,-1
 262 654 l 1,7,-1
 362 654 l 1,8,-1
 362 463 l 1,9,-1
 553 463 l 1,10,-1
 553 363 l 1,11,-1
 363 363 l 1,0,-1
72 0 m 1,12,-1
 72 100 l 1,13,-1
 552 100 l 1,14,-1
 552 0 l 1,15,-1
 72 0 l 1,12,-1
EndSplineSet
Validated: 1
EndChar

StartChar: q
Encoding: 113 113 142
GlifName: q
Width: 505
Flags: W
LayerCount: 2
Fore
SplineSet
71 410 m 2,0,1
 71 447 71 447 85 480 c 128,-1,2
 99 513 99 513 124 538 c 128,-1,3
 149 563 149 563 182 577 c 128,-1,4
 215 591 215 591 253 591 c 0,5,6
 286 591 286 591 313 581 c 1,7,-1
 313 591 l 1,8,-1
 434 591 l 1,9,-1
 434 -121 l 1,10,-1
 313 -121 l 1,11,-1
 313 10 l 1,12,13
 299 5 299 5 284 2.5 c 128,-1,14
 269 0 269 0 253 0 c 0,15,16
 215 0 215 0 182 14 c 128,-1,17
 149 28 149 28 124 53 c 128,-1,18
 99 78 99 78 85 111 c 128,-1,19
 71 144 71 144 71 182 c 2,20,-1
 71 410 l 2,0,1
192 182 m 2,21,22
 192 156 192 156 209.5 138.5 c 128,-1,23
 227 121 227 121 253 121 c 0,24,25
 278 121 278 121 295.5 138.5 c 128,-1,26
 313 156 313 156 313 182 c 2,27,-1
 313 410 l 2,28,29
 313 435 313 435 295.5 452.5 c 128,-1,30
 278 470 278 470 253 470 c 0,31,32
 227 470 227 470 209.5 452.5 c 128,-1,33
 192 435 192 435 192 410 c 2,34,-1
 192 182 l 2,21,22
EndSplineSet
Validated: 1
EndChar

StartChar: question
Encoding: 63 63 143
GlifName: question
Width: 462
Flags: W
LayerCount: 2
Fore
SplineSet
170 241 m 2,0,1
 170 270 170 270 174.5 292 c 128,-1,2
 179 314 179 314 196 337 c 2,3,-1
 285 461 l 2,4,5
 310 495 310 495 310 527 c 0,6,7
 310 548 310 548 302 564.5 c 128,-1,8
 294 581 294 581 281.5 592.5 c 128,-1,9
 269 604 269 604 254 610 c 128,-1,10
 239 616 239 616 224 616 c 0,11,12
 186 616 186 616 159 591.5 c 128,-1,13
 132 567 132 567 132 507 c 1,14,-1
 30 507 l 1,15,-1
 30 527 l 2,16,17
 30 567 30 567 45.5 602 c 128,-1,18
 61 637 61 637 87 662.5 c 128,-1,19
 113 688 113 688 147 703 c 128,-1,20
 181 718 181 718 219 718 c 0,21,22
 256 718 256 718 291 704.5 c 128,-1,23
 326 691 326 691 353 666 c 128,-1,24
 380 641 380 641 396 605.5 c 128,-1,25
 412 570 412 570 412 526 c 0,26,27
 412 494 412 494 403.5 468 c 128,-1,28
 395 442 395 442 380 421 c 2,29,-1
 289 296 l 2,30,31
 278 282 278 282 275 267.5 c 128,-1,32
 272 253 272 253 272 233 c 2,33,-1
 272 176 l 1,34,-1
 170 176 l 1,35,-1
 170 241 l 2,0,1
170 102 m 1,36,-1
 272 102 l 1,37,-1
 272 0 l 1,38,-1
 170 0 l 1,39,-1
 170 102 l 1,36,-1
EndSplineSet
Validated: 1
EndChar

StartChar: questiondown
Encoding: 191 191 144
GlifName: questiondown
Width: 463
Flags: W
LayerCount: 2
Fore
SplineSet
192 331 m 1,0,-1
 294 331 l 1,1,-1
 294 266 l 2,2,3
 294 237 294 237 289.5 215 c 128,-1,4
 285 193 285 193 268 170 c 2,5,-1
 179 46 l 2,6,7
 154 12 154 12 154 -20 c 0,8,9
 154 -41 154 -41 162 -57.5 c 128,-1,10
 170 -74 170 -74 182.5 -85.5 c 128,-1,11
 195 -97 195 -97 210 -103 c 128,-1,12
 225 -109 225 -109 240 -109 c 0,13,14
 278 -109 278 -109 305 -84.5 c 128,-1,15
 332 -60 332 -60 332 0 c 1,16,-1
 434 0 l 1,17,-1
 434 -20 l 2,18,19
 434 -60 434 -60 418.5 -95 c 128,-1,20
 403 -130 403 -130 377 -155.5 c 128,-1,21
 351 -181 351 -181 317 -196 c 128,-1,22
 283 -211 283 -211 245 -211 c 0,23,24
 208 -211 208 -211 173 -197.5 c 128,-1,25
 138 -184 138 -184 111 -159 c 128,-1,26
 84 -134 84 -134 68 -98.5 c 128,-1,27
 52 -63 52 -63 52 -19 c 0,28,29
 52 13 52 13 60.5 39 c 128,-1,30
 69 65 69 65 84 86 c 2,31,-1
 175 211 l 2,32,33
 186 225 186 225 189 239.5 c 128,-1,34
 192 254 192 254 192 274 c 2,35,-1
 192 331 l 1,0,-1
192 507 m 1,36,-1
 294 507 l 1,37,-1
 294 405 l 1,38,-1
 192 405 l 1,39,-1
 192 507 l 1,36,-1
EndSplineSet
Validated: 1
EndChar

StartChar: quotedbl
Encoding: 34 34 145
GlifName: quotedbl
Width: 439
Flags: W
LayerCount: 2
Fore
SplineSet
71 534 m 1,0,-1
 71 712 l 1,1,-1
 190 712 l 1,2,-1
 190 594 l 1,3,-1
 71 534 l 1,0,-1
249 534 m 1,4,-1
 249 712 l 1,5,-1
 368 712 l 1,6,-1
 368 594 l 1,7,-1
 249 534 l 1,4,-1
EndSplineSet
Validated: 1
EndChar

StartChar: quotedblbase
Encoding: 8222 8222 146
GlifName: quotedblbase
Width: 341
Flags: W
LayerCount: 2
Fore
SplineSet
35 -76 m 1,0,-1
 35 102 l 1,1,-1
 142 102 l 1,2,-1
 142 -16 l 1,3,-1
 35 -76 l 1,0,-1
201 -76 m 1,4,-1
 201 102 l 1,5,-1
 306 102 l 1,6,-1
 306 -16 l 1,7,-1
 201 -76 l 1,4,-1
EndSplineSet
Validated: 1
EndChar

StartChar: quotedblleft
Encoding: 8220 8220 147
GlifName: quotedblleft
Width: 355
Flags: W
LayerCount: 2
Fore
SplineSet
313 712 m 1,0,-1
 313 534 l 1,1,-1
 206 534 l 1,2,-1
 206 652 l 1,3,-1
 313 712 l 1,0,-1
147 712 m 1,4,-1
 147 534 l 1,5,-1
 42 534 l 1,6,-1
 42 652 l 1,7,-1
 147 712 l 1,4,-1
EndSplineSet
Validated: 1
EndChar

StartChar: quotedblright
Encoding: 8221 8221 148
GlifName: quotedblright
Width: 355
Flags: W
LayerCount: 2
Fore
SplineSet
42 534 m 1,0,-1
 42 712 l 1,1,-1
 149 712 l 1,2,-1
 149 594 l 1,3,-1
 42 534 l 1,0,-1
208 534 m 1,4,-1
 208 712 l 1,5,-1
 313 712 l 1,6,-1
 313 594 l 1,7,-1
 208 534 l 1,4,-1
EndSplineSet
Validated: 1
EndChar

StartChar: quoteleft
Encoding: 8216 8216 149
GlifName: quoteleft
Width: 249
Flags: W
LayerCount: 2
Fore
SplineSet
178 712 m 1,0,-1
 178 534 l 1,1,-1
 71 534 l 1,2,-1
 71 652 l 1,3,-1
 178 712 l 1,0,-1
EndSplineSet
Validated: 1
EndChar

StartChar: quoteright
Encoding: 8217 8217 150
GlifName: quoteright
Width: 249
Flags: W
LayerCount: 2
Fore
SplineSet
71 534 m 1,0,-1
 71 712 l 1,1,-1
 178 712 l 1,2,-1
 178 594 l 1,3,-1
 71 534 l 1,0,-1
EndSplineSet
Validated: 1
EndChar

StartChar: quotesinglbase
Encoding: 8218 8218 151
GlifName: quotesinglbase
Width: 249
Flags: W
LayerCount: 2
Fore
SplineSet
71 -74 m 1,0,-1
 71 104 l 1,1,-1
 178 104 l 1,2,-1
 178 -14 l 1,3,-1
 71 -74 l 1,0,-1
EndSplineSet
Validated: 1
EndChar

StartChar: quotesingle
Encoding: 39 39 152
GlifName: quotesingle
Width: 245
Flags: W
LayerCount: 2
Fore
SplineSet
71 534 m 1,0,-1
 71 712 l 1,1,-1
 174 713 l 1,2,-1
 174 534 l 1,3,-1
 71 534 l 1,0,-1
EndSplineSet
Validated: 1
EndChar

StartChar: r
Encoding: 114 114 153
GlifName: r
Width: 505
Flags: W
LayerCount: 2
Fore
SplineSet
313 410 m 1,0,1
 313 435 313 435 295.5 452.5 c 128,-1,2
 278 470 278 470 253 470 c 0,3,4
 227 470 227 470 209.5 452.5 c 128,-1,5
 192 435 192 435 192 410 c 2,6,-1
 192 0 l 1,7,-1
 71 0 l 1,8,-1
 71 591 l 1,9,-1
 192 591 l 1,10,-1
 192 581 l 1,11,12
 219 591 219 591 253 591 c 0,13,14
 290 591 290 591 323 577 c 128,-1,15
 356 563 356 563 381 538 c 128,-1,16
 406 513 406 513 420 480 c 128,-1,17
 434 447 434 447 434 410 c 1,18,-1
 313 410 l 1,0,1
EndSplineSet
Validated: 1
EndChar

StartChar: registered
Encoding: 174 174 154
GlifName: registered
Width: 518
Flags: W
LayerCount: 2
Fore
SplineSet
392 656 m 256,0,1
 418 630 418 630 432.5 596 c 128,-1,2
 447 562 447 562 447 523 c 0,3,4
 447 485 447 485 432.5 450.5 c 128,-1,5
 418 416 418 416 392 390 c 256,6,7
 366 364 366 364 332 349.5 c 128,-1,8
 298 335 298 335 259 335 c 256,9,10
 220 335 220 335 186 349.5 c 128,-1,11
 152 364 152 364 126 390 c 256,12,13
 100 416 100 416 85.5 450.5 c 128,-1,14
 71 485 71 485 71 523 c 0,15,16
 71 562 71 562 85.5 596 c 128,-1,17
 100 630 100 630 126 656 c 256,18,19
 152 682 152 682 186 696.5 c 128,-1,20
 220 711 220 711 259 711 c 256,21,22
 298 711 298 711 332 696.5 c 128,-1,23
 366 682 366 682 392 656 c 256,0,1
367 416 m 0,24,25
 387 437 387 437 399 464 c 128,-1,26
 411 491 411 491 411 523 c 256,27,28
 411 555 411 555 399 582.5 c 128,-1,29
 387 610 387 610 367 631 c 0,30,31
 346 651 346 651 318.5 663 c 128,-1,32
 291 675 291 675 259 675 c 256,33,34
 227 675 227 675 199.5 663 c 128,-1,35
 172 651 172 651 151 631 c 0,36,37
 131 610 131 610 119 582.5 c 128,-1,38
 107 555 107 555 107 523 c 256,39,40
 107 491 107 491 119 464 c 128,-1,41
 131 437 131 437 151 416 c 0,42,43
 172 395 172 395 199.5 383 c 128,-1,44
 227 371 227 371 259 371 c 256,45,46
 291 371 291 371 318.5 383 c 128,-1,47
 346 395 346 395 367 416 c 0,24,25
263 527 m 2,48,49
 274 527 274 527 282 535 c 128,-1,50
 290 543 290 543 290 554 c 256,51,52
 290 565 290 565 282 573 c 128,-1,53
 274 581 274 581 263 581 c 2,54,-1
 231 581 l 1,55,-1
 231 527 l 1,56,-1
 263 527 l 2,48,49
202 610 m 1,57,-1
 263 610 l 2,58,59
 286 610 286 610 302.5 593.5 c 128,-1,60
 319 577 319 577 319 554 c 0,61,62
 319 538 319 538 311.5 525.5 c 128,-1,63
 304 513 304 513 291 506 c 1,64,-1
 319 435 l 1,65,-1
 288 435 l 1,66,-1
 263 498 l 1,67,-1
 231 498 l 1,68,-1
 231 435 l 1,69,-1
 202 435 l 1,70,-1
 202 610 l 1,57,-1
EndSplineSet
Validated: 1
EndChar

StartChar: s
Encoding: 115 115 155
GlifName: s
Width: 534
Flags: W
LayerCount: 2
Fore
SplineSet
267 381 m 0,0,1
 307 381 307 381 343 365.5 c 128,-1,2
 379 350 379 350 405.5 323.5 c 128,-1,3
 432 297 432 297 447.5 261 c 128,-1,4
 463 225 463 225 463 185 c 0,5,6
 463 144 463 144 447.5 108.5 c 128,-1,7
 432 73 432 73 405.5 46.5 c 128,-1,8
 379 20 379 20 343 4.5 c 128,-1,9
 307 -11 307 -11 267 -11 c 0,10,11
 226 -11 226 -11 190.5 4.5 c 128,-1,12
 155 20 155 20 128.5 46.5 c 128,-1,13
 102 73 102 73 86.5 108.5 c 128,-1,14
 71 144 71 144 71 185 c 1,15,-1
 192 185 l 1,16,17
 192 154 192 154 214 132 c 128,-1,18
 236 110 236 110 267 110 c 256,19,20
 298 110 298 110 320 132 c 128,-1,21
 342 154 342 154 342 185 c 256,22,23
 342 216 342 216 320 238 c 128,-1,24
 298 260 298 260 267 260 c 0,25,26
 232 260 232 260 200.5 273.5 c 128,-1,27
 169 287 169 287 146 310 c 128,-1,28
 123 333 123 333 109.5 364.5 c 128,-1,29
 96 396 96 396 96 431 c 256,30,31
 96 466 96 466 109.5 497 c 128,-1,32
 123 528 123 528 146 551.5 c 128,-1,33
 169 575 169 575 200.5 588.5 c 128,-1,34
 232 602 232 602 267 602 c 0,35,36
 303 602 303 602 334 588.5 c 128,-1,37
 365 575 365 575 388 551.5 c 128,-1,38
 411 528 411 528 424.5 497 c 128,-1,39
 438 466 438 466 438 431 c 1,40,-1
 317 431 l 1,41,42
 317 451 317 451 302.5 466 c 128,-1,43
 288 481 288 481 267 481 c 0,44,45
 247 481 247 481 232 466 c 128,-1,46
 217 451 217 451 217 431 c 0,47,48
 217 410 217 410 232 395.5 c 128,-1,49
 247 381 247 381 267 381 c 0,0,1
EndSplineSet
Validated: 1
EndChar

StartChar: semicolon
Encoding: 59 59 156
GlifName: semicolon
Width: 261
Flags: W
LayerCount: 2
Fore
SplineSet
71 -59 m 1,0,-1
 71 119 l 1,1,-1
 190 119 l 1,2,-1
 190 0 l 1,3,-1
 71 -59 l 1,0,-1
71 257 m 1,4,-1
 71 376 l 1,5,-1
 190 376 l 1,6,-1
 190 257 l 1,7,-1
 71 257 l 1,4,-1
EndSplineSet
Validated: 1
EndChar

StartChar: seven
Encoding: 55 55 157
GlifName: seven
Width: 617
Flags: W
LayerCount: 2
Fore
SplineSet
71 0 m 1,0,-1
 409 593 l 1,1,-1
 71 593 l 1,2,-1
 71 712 l 1,3,-1
 546 712 l 1,4,-1
 546 593 l 1,5,-1
 208 0 l 1,6,-1
 71 0 l 1,0,-1
EndSplineSet
Validated: 1
EndChar

StartChar: six
Encoding: 54 54 158
GlifName: six
Width: 617
Flags: W
LayerCount: 2
Fore
SplineSet
190 223 m 0,0,1
 190 199 190 199 199.5 177.5 c 128,-1,2
 209 156 209 156 225 140 c 128,-1,3
 241 124 241 124 262.5 114.5 c 128,-1,4
 284 105 284 105 309 105 c 0,5,6
 333 105 333 105 354.5 114.5 c 128,-1,7
 376 124 376 124 392 140 c 128,-1,8
 408 156 408 156 417.5 177.5 c 128,-1,9
 427 199 427 199 427 223 c 0,10,11
 427 248 427 248 417.5 269.5 c 128,-1,12
 408 291 408 291 392 307 c 128,-1,13
 376 323 376 323 354.5 332.5 c 128,-1,14
 333 342 333 342 309 342 c 0,15,16
 284 342 284 342 262.5 332.5 c 128,-1,17
 241 323 241 323 225 307 c 128,-1,18
 209 291 209 291 199.5 269.5 c 128,-1,19
 190 248 190 248 190 223 c 0,0,1
71 489 m 2,20,21
 71 538 71 538 90 581.5 c 128,-1,22
 109 625 109 625 141 657 c 128,-1,23
 173 689 173 689 216.5 708 c 128,-1,24
 260 727 260 727 309 727 c 256,25,26
 358 727 358 727 401 708 c 128,-1,27
 444 689 444 689 476.5 657 c 128,-1,28
 509 625 509 625 527.5 581.5 c 128,-1,29
 546 538 546 538 546 489 c 1,30,-1
 427 489 l 1,31,32
 427 514 427 514 417.5 535.5 c 128,-1,33
 408 557 408 557 392 573 c 128,-1,34
 376 589 376 589 354.5 598.5 c 128,-1,35
 333 608 333 608 309 608 c 0,36,37
 284 608 284 608 262.5 598.5 c 128,-1,38
 241 589 241 589 225 573 c 128,-1,39
 209 557 209 557 199.5 535.5 c 128,-1,40
 190 514 190 514 190 489 c 2,41,-1
 190 429 l 1,42,43
 216 444 216 444 246 452.5 c 128,-1,44
 276 461 276 461 309 461 c 0,45,46
 358 461 358 461 401 442 c 128,-1,47
 444 423 444 423 476.5 391 c 128,-1,48
 509 359 509 359 527.5 315.5 c 128,-1,49
 546 272 546 272 546 223 c 256,50,51
 546 174 546 174 527.5 131 c 128,-1,52
 509 88 509 88 476.5 55.5 c 128,-1,53
 444 23 444 23 401 4.5 c 128,-1,54
 358 -14 358 -14 309 -14 c 256,55,56
 260 -14 260 -14 216.5 4.5 c 128,-1,57
 173 23 173 23 141 55.5 c 128,-1,58
 109 88 109 88 90 131 c 128,-1,59
 71 174 71 174 71 223 c 2,60,-1
 71 489 l 2,20,21
EndSplineSet
Validated: 1
EndChar

StartChar: slash
Encoding: 47 47 159
GlifName: slash
Width: 333
Flags: W
LayerCount: 2
Fore
SplineSet
247 718 m 1,0,-1
 325 718 l 1,1,-1
 86 -6 l 1,2,-1
 8 -6 l 1,3,-1
 247 718 l 1,0,-1
EndSplineSet
Validated: 1
EndChar

StartChar: Aacute
Encoding: 193 193 160
GlifName: A_acute
Width: 684
Flags: W
LayerCount: 2
Fore
SplineSet
401 712 m 1,0,-1
 613 0 l 1,1,-1
 489 0 l 1,2,-1
 450 131 l 1,3,-1
 234 131 l 1,4,-1
 195 0 l 1,5,-1
 71 0 l 1,6,-1
 282 712 l 1,7,-1
 401 712 l 1,0,-1
415 249 m 1,8,-1
 342 495 l 1,9,-1
 269 249 l 1,10,-1
 415 249 l 1,8,-1
299 755 m 1,11,-1
 264 790 l 1,12,-1
 359 886 l 1,13,-1
 410 836 l 1,14,-1
 299 755 l 1,11,-1
EndSplineSet
Validated: 1
EndChar

StartChar: sterling
Encoding: 163 163 161
GlifName: sterling
Width: 584
Flags: W
LayerCount: 2
Fore
SplineSet
72 366 m 1,0,-1
 127 366 l 1,1,2
 107 408 107 408 99.5 443.5 c 128,-1,3
 92 479 92 479 92 516 c 0,4,5
 92 563 92 563 106 600.5 c 128,-1,6
 120 638 120 638 145 664 c 128,-1,7
 170 690 170 690 204 704 c 128,-1,8
 238 718 238 718 278 718 c 0,9,10
 328 718 328 718 365.5 703 c 128,-1,11
 403 688 403 688 427.5 660.5 c 128,-1,12
 452 633 452 633 464 595.5 c 128,-1,13
 476 558 476 558 476 513 c 1,14,-1
 374 513 l 1,15,16
 372 567 372 567 348.5 594.5 c 128,-1,17
 325 622 325 622 285 622 c 0,18,19
 244 622 244 622 219 593.5 c 128,-1,20
 194 565 194 565 194 514 c 0,21,22
 194 476 194 476 204.5 436 c 128,-1,23
 215 396 215 396 229 366 c 1,24,-1
 390 366 l 1,25,-1
 390 300 l 1,26,-1
 254 300 l 1,27,28
 261 277 261 277 266.5 254.5 c 128,-1,29
 272 232 272 232 272 212 c 0,30,31
 272 184 272 184 263.5 157.5 c 128,-1,32
 255 131 255 131 241 104 c 1,33,34
 251 103 251 103 265.5 100.5 c 128,-1,35
 280 98 280 98 295.5 96 c 128,-1,36
 311 94 311 94 326 92 c 128,-1,37
 341 90 341 90 353 90 c 0,38,39
 375 90 375 90 401 97.5 c 128,-1,40
 427 105 427 105 450 123 c 1,41,-1
 513 44 l 1,42,43
 478 15 478 15 439.5 4.5 c 128,-1,44
 401 -6 401 -6 368 -6 c 0,45,46
 354 -6 354 -6 328 -3 c 128,-1,47
 302 0 302 0 273.5 4 c 128,-1,48
 245 8 245 8 217.5 11 c 128,-1,49
 190 14 190 14 173 14 c 0,50,51
 153 14 153 14 130.5 9.5 c 128,-1,52
 108 5 108 5 85 -6 c 1,53,-1
 85 90 l 1,54,55
 102 100 102 100 120.5 104.5 c 128,-1,56
 139 109 139 109 158 110 c 1,57,58
 166 130 166 130 171 153 c 128,-1,59
 176 176 176 176 176 195 c 0,60,61
 176 215 176 215 168.5 243 c 128,-1,62
 161 271 161 271 152 300 c 1,63,-1
 72 300 l 1,64,-1
 72 366 l 1,0,-1
EndSplineSet
Validated: 1
EndChar

StartChar: t
Encoding: 116 116 162
GlifName: t
Width: 456
Flags: W
LayerCount: 2
Fore
SplineSet
71 712 m 1,0,-1
 192 712 l 1,1,-1
 192 591 l 1,2,-1
 314 591 l 1,3,-1
 314 470 l 1,4,-1
 192 470 l 1,5,-1
 192 171 l 2,6,7
 192 146 192 146 209.5 128 c 128,-1,8
 227 110 227 110 253 110 c 0,9,10
 266 110 266 110 277.5 115.5 c 128,-1,11
 289 121 289 121 297 129 c 1,12,-1
 385 46 l 1,13,14
 360 20 360 20 326 4.5 c 128,-1,15
 292 -11 292 -11 253 -11 c 0,16,17
 215 -11 215 -11 182 3.5 c 128,-1,18
 149 18 149 18 124 42.5 c 128,-1,19
 99 67 99 67 85 100 c 128,-1,20
 71 133 71 133 71 171 c 2,21,-1
 71 712 l 1,0,-1
EndSplineSet
Validated: 1
EndChar

StartChar: three
Encoding: 51 51 163
GlifName: three
Width: 617
Flags: W
LayerCount: 2
Fore
SplineSet
133 593 m 1,0,-1
 133 712 l 1,1,-1
 546 712 l 1,2,-1
 546 593 l 1,3,-1
 445 461 l 1,4,5
 491 424 491 424 518.5 370 c 128,-1,6
 546 316 546 316 546 252 c 0,7,8
 546 197 546 197 525 148.5 c 128,-1,9
 504 100 504 100 468 64 c 128,-1,10
 432 28 432 28 383.5 7 c 128,-1,11
 335 -14 335 -14 280 -14 c 0,12,13
 216 -14 216 -14 162 13.5 c 128,-1,14
 108 41 108 41 71 87 c 1,15,-1
 164 161 l 1,16,17
 184 135 184 135 214.5 120 c 128,-1,18
 245 105 245 105 280 105 c 0,19,20
 311 105 311 105 337.5 116.5 c 128,-1,21
 364 128 364 128 384 148 c 128,-1,22
 404 168 404 168 415.5 195 c 128,-1,23
 427 222 427 222 427 252 c 0,24,25
 427 287 427 287 412.5 316.5 c 128,-1,26
 398 346 398 346 373 366 c 2,27,-1
 278 438 l 1,28,-1
 397 593 l 1,29,-1
 133 593 l 1,0,-1
EndSplineSet
Validated: 1
EndChar

StartChar: trademark
Encoding: 8482 8482 164
GlifName: trademark
Width: 405
Flags: W
LayerCount: 2
Fore
SplineSet
179 684 m 1,0,-1
 140 684 l 1,1,-1
 140 536 l 1,2,-1
 110 536 l 1,3,-1
 110 684 l 1,4,-1
 71 684 l 1,5,-1
 71 714 l 1,6,-1
 179 714 l 1,7,-1
 179 684 l 1,0,-1
334 714 m 1,8,-1
 334 536 l 1,9,-1
 305 536 l 1,10,-1
 305 655 l 1,11,-1
 275 603 l 1,12,-1
 245 655 l 1,13,-1
 245 536 l 1,14,-1
 215 536 l 1,15,-1
 215 714 l 1,16,-1
 245 714 l 1,17,-1
 275 663 l 1,18,-1
 305 714 l 1,19,-1
 334 714 l 1,8,-1
EndSplineSet
Validated: 1
EndChar

StartChar: two
Encoding: 50 50 165
GlifName: two
Width: 617
Flags: W
LayerCount: 2
Fore
SplineSet
546 119 m 1,0,-1
 546 0 l 1,1,-1
 71 0 l 1,2,-1
 71 119 l 1,3,-1
 388 401 l 2,4,5
 406 418 406 418 416.5 440.5 c 128,-1,6
 427 463 427 463 427 489 c 0,7,8
 427 514 427 514 417.5 535.5 c 128,-1,9
 408 557 408 557 392 573 c 128,-1,10
 376 589 376 589 354.5 598.5 c 128,-1,11
 333 608 333 608 309 608 c 0,12,13
 284 608 284 608 262.5 598.5 c 128,-1,14
 241 589 241 589 225 573 c 128,-1,15
 209 557 209 557 199.5 535.5 c 128,-1,16
 190 514 190 514 190 489 c 0,17,18
 190 457 190 457 206 430 c 1,19,-1
 103 370 l 1,20,21
 88 396 88 396 79.5 426.5 c 128,-1,22
 71 457 71 457 71 489 c 0,23,24
 71 538 71 538 90 581.5 c 128,-1,25
 109 625 109 625 141 657 c 128,-1,26
 173 689 173 689 216.5 708 c 128,-1,27
 260 727 260 727 309 727 c 256,28,29
 358 727 358 727 401 708 c 128,-1,30
 444 689 444 689 476.5 657 c 128,-1,31
 509 625 509 625 527.5 581.5 c 128,-1,32
 546 538 546 538 546 489 c 0,33,34
 546 436 546 436 525 391 c 128,-1,35
 504 346 504 346 468 313 c 2,36,-1
 250 119 l 1,37,-1
 546 119 l 1,0,-1
EndSplineSet
Validated: 1
EndChar

StartChar: u
Encoding: 117 117 166
GlifName: u
Width: 505
Flags: W
LayerCount: 2
Fore
SplineSet
253 0 m 0,0,1
 215 0 215 0 182 14 c 128,-1,2
 149 28 149 28 124 53 c 128,-1,3
 99 78 99 78 85 111 c 128,-1,4
 71 144 71 144 71 182 c 2,5,-1
 71 591 l 1,6,-1
 192 591 l 1,7,-1
 192 182 l 2,8,9
 192 156 192 156 209.5 138.5 c 128,-1,10
 227 121 227 121 253 121 c 0,11,12
 278 121 278 121 295.5 138.5 c 128,-1,13
 313 156 313 156 313 182 c 2,14,-1
 313 591 l 1,15,-1
 434 591 l 1,16,-1
 434 0 l 1,17,-1
 313 0 l 1,18,-1
 313 10 l 1,19,20
 299 5 299 5 284 2.5 c 128,-1,21
 269 0 269 0 253 0 c 0,0,1
EndSplineSet
Validated: 1
EndChar

StartChar: uacute
Encoding: 250 250 167
GlifName: uacute
Width: 505
Flags: W
LayerCount: 2
Fore
SplineSet
253 0 m 0,0,1
 215 0 215 0 182 14 c 128,-1,2
 149 28 149 28 124 53 c 128,-1,3
 99 78 99 78 85 111 c 128,-1,4
 71 144 71 144 71 182 c 2,5,-1
 71 591 l 1,6,-1
 192 591 l 1,7,-1
 192 182 l 2,8,9
 192 156 192 156 209.5 138.5 c 128,-1,10
 227 121 227 121 253 121 c 0,11,12
 278 121 278 121 295.5 138.5 c 128,-1,13
 313 156 313 156 313 182 c 2,14,-1
 313 591 l 1,15,-1
 434 591 l 1,16,-1
 434 0 l 1,17,-1
 313 0 l 1,18,-1
 313 10 l 1,19,20
 299 5 299 5 284 2.5 c 128,-1,21
 269 0 269 0 253 0 c 0,0,1
213 640 m 1,22,-1
 178 675 l 1,23,-1
 273 771 l 1,24,-1
 324 721 l 1,25,-1
 213 640 l 1,22,-1
EndSplineSet
Validated: 1
EndChar

StartChar: ucircumflex
Encoding: 251 251 168
GlifName: ucircumflex
Width: 505
Flags: W
LayerCount: 2
Fore
SplineSet
253 0 m 0,0,1
 215 0 215 0 182 14 c 128,-1,2
 149 28 149 28 124 53 c 128,-1,3
 99 78 99 78 85 111 c 128,-1,4
 71 144 71 144 71 182 c 2,5,-1
 71 591 l 1,6,-1
 192 591 l 1,7,-1
 192 182 l 2,8,9
 192 156 192 156 209.5 138.5 c 128,-1,10
 227 121 227 121 253 121 c 0,11,12
 278 121 278 121 295.5 138.5 c 128,-1,13
 313 156 313 156 313 182 c 2,14,-1
 313 591 l 1,15,-1
 434 591 l 1,16,-1
 434 0 l 1,17,-1
 313 0 l 1,18,-1
 313 10 l 1,19,20
 299 5 299 5 284 2.5 c 128,-1,21
 269 0 269 0 253 0 c 0,0,1
255 719 m 1,22,-1
 164 629 l 1,23,-1
 134 659 l 1,24,-1
 255 780 l 1,25,-1
 376 659 l 1,26,-1
 346 629 l 1,27,-1
 255 719 l 1,22,-1
EndSplineSet
Validated: 1
EndChar

StartChar: udieresis
Encoding: 252 252 169
GlifName: udieresis
Width: 505
Flags: W
LayerCount: 2
Fore
SplineSet
253 0 m 0,0,1
 215 0 215 0 182 14 c 128,-1,2
 149 28 149 28 124 53 c 128,-1,3
 99 78 99 78 85 111 c 128,-1,4
 71 144 71 144 71 182 c 2,5,-1
 71 591 l 1,6,-1
 192 591 l 1,7,-1
 192 182 l 2,8,9
 192 156 192 156 209.5 138.5 c 128,-1,10
 227 121 227 121 253 121 c 0,11,12
 278 121 278 121 295.5 138.5 c 128,-1,13
 313 156 313 156 313 182 c 2,14,-1
 313 591 l 1,15,-1
 434 591 l 1,16,-1
 434 0 l 1,17,-1
 313 0 l 1,18,-1
 313 10 l 1,19,20
 299 5 299 5 284 2.5 c 128,-1,21
 269 0 269 0 253 0 c 0,0,1
144 650 m 1,22,-1
 144 721 l 1,23,-1
 215 721 l 1,24,-1
 215 650 l 1,25,-1
 144 650 l 1,22,-1
286 650 m 1,26,-1
 286 721 l 1,27,-1
 357 721 l 1,28,-1
 357 650 l 1,29,-1
 286 650 l 1,26,-1
EndSplineSet
Validated: 1
EndChar

StartChar: ugrave
Encoding: 249 249 170
GlifName: ugrave
Width: 505
Flags: W
LayerCount: 2
Fore
SplineSet
253 0 m 0,0,1
 215 0 215 0 182 14 c 128,-1,2
 149 28 149 28 124 53 c 128,-1,3
 99 78 99 78 85 111 c 128,-1,4
 71 144 71 144 71 182 c 2,5,-1
 71 591 l 1,6,-1
 192 591 l 1,7,-1
 192 182 l 2,8,9
 192 156 192 156 209.5 138.5 c 128,-1,10
 227 121 227 121 253 121 c 0,11,12
 278 121 278 121 295.5 138.5 c 128,-1,13
 313 156 313 156 313 182 c 2,14,-1
 313 591 l 1,15,-1
 434 591 l 1,16,-1
 434 0 l 1,17,-1
 313 0 l 1,18,-1
 313 10 l 1,19,20
 299 5 299 5 284 2.5 c 128,-1,21
 269 0 269 0 253 0 c 0,0,1
232 771 m 1,22,-1
 328 675 l 1,23,-1
 293 640 l 1,24,-1
 182 721 l 1,25,-1
 232 771 l 1,22,-1
EndSplineSet
Validated: 1
EndChar

StartChar: underscore
Encoding: 95 95 171
GlifName: underscore
Width: 500
Flags: W
LayerCount: 2
Fore
SplineSet
0 -75 m 1,0,-1
 500 -75 l 1,1,-1
 500 -125 l 1,2,-1
 0 -125 l 1,3,-1
 0 -75 l 1,0,-1
EndSplineSet
Validated: 1
EndChar

StartChar: v
Encoding: 118 118 172
GlifName: v
Width: 505
Flags: W
LayerCount: 2
Fore
SplineSet
434 591 m 1,0,-1
 314 0 l 1,1,-1
 192 0 l 1,2,-1
 71 591 l 1,3,-1
 192 591 l 1,4,-1
 253 296 l 1,5,-1
 314 591 l 1,6,-1
 434 591 l 1,0,-1
EndSplineSet
Validated: 1
EndChar

StartChar: w
Encoding: 119 119 173
GlifName: w
Width: 748
Flags: W
LayerCount: 2
Fore
SplineSet
677 591 m 1,0,-1
 556 0 l 1,1,-1
 434 0 l 1,2,-1
 374 296 l 1,3,-1
 314 0 l 1,4,-1
 192 0 l 1,5,-1
 71 591 l 1,6,-1
 192 591 l 1,7,-1
 253 296 l 1,8,-1
 314 591 l 1,9,-1
 434 591 l 1,10,-1
 495 296 l 1,11,-1
 556 591 l 1,12,-1
 677 591 l 1,0,-1
EndSplineSet
Validated: 1
EndChar

StartChar: x
Encoding: 120 120 174
GlifName: x
Width: 505
Flags: W
LayerCount: 2
Fore
SplineSet
188 296 m 1,0,-1
 71 591 l 1,1,-1
 201 591 l 1,2,-1
 253 461 l 1,3,-1
 304 591 l 1,4,-1
 434 591 l 1,5,-1
 318 296 l 1,6,-1
 434 0 l 1,7,-1
 304 0 l 1,8,-1
 253 130 l 1,9,-1
 201 0 l 1,10,-1
 71 0 l 1,11,-1
 188 296 l 1,0,-1
EndSplineSet
Validated: 1
EndChar

StartChar: y
Encoding: 121 121 175
GlifName: y
Width: 505
Flags: W
LayerCount: 2
Fore
SplineSet
192 182 m 2,0,1
 192 156 192 156 209.5 138.5 c 128,-1,2
 227 121 227 121 253 121 c 0,3,4
 278 121 278 121 295.5 138.5 c 128,-1,5
 313 156 313 156 313 182 c 2,6,-1
 313 591 l 1,7,-1
 434 591 l 1,8,-1
 434 0 l 2,9,10
 434 -38 434 -38 420 -71 c 128,-1,11
 406 -104 406 -104 381 -128.5 c 128,-1,12
 356 -153 356 -153 323 -167.5 c 128,-1,13
 290 -182 290 -182 253 -182 c 0,14,15
 215 -182 215 -182 182 -167.5 c 128,-1,16
 149 -153 149 -153 124 -128 c 1,17,-1
 210 -43 l 1,18,19
 228 -61 228 -61 253 -61 c 256,20,21
 278 -61 278 -61 295.5 -43 c 128,-1,22
 313 -25 313 -25 313 0 c 2,23,-1
 313 10 l 1,24,25
 299 5 299 5 284 2.5 c 128,-1,26
 269 0 269 0 253 0 c 0,27,28
 215 0 215 0 182 14 c 128,-1,29
 149 28 149 28 124 53 c 128,-1,30
 99 78 99 78 85 111 c 128,-1,31
 71 144 71 144 71 182 c 2,32,-1
 71 591 l 1,33,-1
 192 591 l 1,34,-1
 192 182 l 2,0,1
EndSplineSet
Validated: 1
EndChar

StartChar: ydieresis
Encoding: 255 255 176
GlifName: ydieresis
Width: 505
Flags: W
LayerCount: 2
Fore
SplineSet
192 182 m 2,0,1
 192 156 192 156 209.5 138.5 c 128,-1,2
 227 121 227 121 253 121 c 0,3,4
 278 121 278 121 295.5 138.5 c 128,-1,5
 313 156 313 156 313 182 c 2,6,-1
 313 591 l 1,7,-1
 434 591 l 1,8,-1
 434 0 l 2,9,10
 434 -38 434 -38 420 -71 c 128,-1,11
 406 -104 406 -104 381 -128.5 c 128,-1,12
 356 -153 356 -153 323 -167.5 c 128,-1,13
 290 -182 290 -182 253 -182 c 0,14,15
 215 -182 215 -182 182 -167.5 c 128,-1,16
 149 -153 149 -153 124 -128 c 1,17,-1
 210 -43 l 1,18,19
 228 -61 228 -61 253 -61 c 256,20,21
 278 -61 278 -61 295.5 -43 c 128,-1,22
 313 -25 313 -25 313 0 c 2,23,-1
 313 10 l 1,24,25
 299 5 299 5 284 2.5 c 128,-1,26
 269 0 269 0 253 0 c 0,27,28
 215 0 215 0 182 14 c 128,-1,29
 149 28 149 28 124 53 c 128,-1,30
 99 78 99 78 85 111 c 128,-1,31
 71 144 71 144 71 182 c 2,32,-1
 71 591 l 1,33,-1
 192 591 l 1,34,-1
 192 182 l 2,0,1
144 650 m 1,35,-1
 144 721 l 1,36,-1
 215 721 l 1,37,-1
 215 650 l 1,38,-1
 144 650 l 1,35,-1
286 650 m 1,39,-1
 286 721 l 1,40,-1
 357 721 l 1,41,-1
 357 650 l 1,42,-1
 286 650 l 1,39,-1
EndSplineSet
Validated: 1
EndChar

StartChar: z
Encoding: 122 122 177
GlifName: z
Width: 505
Flags: W
LayerCount: 2
Fore
SplineSet
434 470 m 1,0,-1
 214 121 l 1,1,-1
 434 121 l 1,2,-1
 434 0 l 1,3,-1
 71 0 l 1,4,-1
 71 121 l 1,5,-1
 291 470 l 1,6,-1
 71 470 l 1,7,-1
 71 591 l 1,8,-1
 434 591 l 1,9,-1
 434 470 l 1,0,-1
EndSplineSet
Validated: 1
EndChar

StartChar: zero
Encoding: 48 48 178
GlifName: zero
Width: 617
Flags: W
LayerCount: 2
Fore
SplineSet
427 489 m 2,0,1
 427 514 427 514 417.5 535.5 c 128,-1,2
 408 557 408 557 392 573 c 128,-1,3
 376 589 376 589 354.5 598.5 c 128,-1,4
 333 608 333 608 309 608 c 0,5,6
 284 608 284 608 262.5 598.5 c 128,-1,7
 241 589 241 589 225 573 c 128,-1,8
 209 557 209 557 199.5 535.5 c 128,-1,9
 190 514 190 514 190 489 c 2,10,-1
 190 223 l 2,11,12
 190 199 190 199 199.5 177.5 c 128,-1,13
 209 156 209 156 225 140 c 128,-1,14
 241 124 241 124 262.5 114.5 c 128,-1,15
 284 105 284 105 309 105 c 0,16,17
 333 105 333 105 354.5 114.5 c 128,-1,18
 376 124 376 124 392 140 c 128,-1,19
 408 156 408 156 417.5 177.5 c 128,-1,20
 427 199 427 199 427 223 c 2,21,-1
 427 489 l 2,0,1
309 -14 m 256,22,23
 260 -14 260 -14 216.5 4.5 c 128,-1,24
 173 23 173 23 141 55.5 c 128,-1,25
 109 88 109 88 90 131 c 128,-1,26
 71 174 71 174 71 223 c 2,27,-1
 71 489 l 2,28,29
 71 538 71 538 90 581.5 c 128,-1,30
 109 625 109 625 141 657 c 128,-1,31
 173 689 173 689 216.5 708 c 128,-1,32
 260 727 260 727 309 727 c 256,33,34
 358 727 358 727 401 708 c 128,-1,35
 444 689 444 689 476.5 657 c 128,-1,36
 509 625 509 625 527.5 581.5 c 128,-1,37
 546 538 546 538 546 489 c 2,38,-1
 546 223 l 2,39,40
 546 174 546 174 527.5 131 c 128,-1,41
 509 88 509 88 476.5 55.5 c 128,-1,42
 444 23 444 23 401 4.5 c 128,-1,43
 358 -14 358 -14 309 -14 c 256,22,23
EndSplineSet
Validated: 1
EndChar

StartChar: A
Encoding: 65 65 179
GlifName: A_
Width: 684
Flags: W
LayerCount: 2
Fore
SplineSet
401 712 m 1,0,-1
 613 0 l 1,1,-1
 489 0 l 1,2,-1
 450 131 l 1,3,-1
 234 131 l 1,4,-1
 195 0 l 1,5,-1
 71 0 l 1,6,-1
 282 712 l 1,7,-1
 401 712 l 1,0,-1
415 249 m 1,8,-1
 342 495 l 1,9,-1
 269 249 l 1,10,-1
 415 249 l 1,8,-1
EndSplineSet
Validated: 1
EndChar

StartChar: AE
Encoding: 198 198 180
GlifName: A_E_
Width: 882
Flags: W
LayerCount: 2
Fore
SplineSet
416 249 m 1,0,-1
 416 593 l 1,1,-1
 372 593 l 1,2,-1
 270 249 l 1,3,-1
 416 249 l 1,0,-1
235 131 m 1,4,-1
 196 0 l 1,5,-1
 72 0 l 1,6,-1
 283 712 l 1,7,-1
 416 712 l 1,8,-1
 810 712 l 1,9,-1
 810 593 l 1,10,-1
 535 593 l 1,11,-1
 535 458 l 1,12,-1
 753 458 l 1,13,-1
 753 339 l 1,14,-1
 535 339 l 1,15,-1
 535 119 l 1,16,-1
 810 119 l 1,17,-1
 810 0 l 1,18,-1
 416 0 l 1,19,-1
 416 131 l 1,20,-1
 235 131 l 1,4,-1
EndSplineSet
Validated: 1
EndChar

StartChar: percent
Encoding: 37 37 181
GlifName: percent
Width: 559
Flags: W
LayerCount: 2
Fore
SplineSet
357 100 m 2,0,1
 357 51 357 51 394 51 c 256,2,3
 431 51 431 51 431 100 c 2,4,-1
 431 154 l 2,5,6
 431 203 431 203 394 203 c 256,7,8
 357 203 357 203 357 154 c 2,9,-1
 357 100 l 2,0,1
300 161 m 2,10,11
 300 187 300 187 308 206 c 128,-1,12
 316 225 316 225 329 237 c 128,-1,13
 342 249 342 249 359 254.5 c 128,-1,14
 376 260 376 260 394 260 c 256,15,16
 412 260 412 260 429 254.5 c 128,-1,17
 446 249 446 249 459 237 c 128,-1,18
 472 225 472 225 480 206 c 128,-1,19
 488 187 488 187 488 161 c 2,20,-1
 488 93 l 2,21,22
 488 67 488 67 480 48 c 128,-1,23
 472 29 472 29 459 17 c 128,-1,24
 446 5 446 5 429 -0.5 c 128,-1,25
 412 -6 412 -6 394 -6 c 256,26,27
 376 -6 376 -6 359 -0.5 c 128,-1,28
 342 5 342 5 329 17 c 128,-1,29
 316 29 316 29 308 48 c 128,-1,30
 300 67 300 67 300 93 c 2,31,-1
 300 161 l 2,10,11
71 619 m 2,32,33
 71 645 71 645 79 664 c 128,-1,34
 87 683 87 683 100 695 c 128,-1,35
 113 707 113 707 130 712.5 c 128,-1,36
 147 718 147 718 165 718 c 256,37,38
 183 718 183 718 200 712.5 c 128,-1,39
 217 707 217 707 230 695 c 128,-1,40
 243 683 243 683 251 664 c 128,-1,41
 259 645 259 645 259 619 c 2,42,-1
 259 551 l 2,43,44
 259 525 259 525 251 506 c 128,-1,45
 243 487 243 487 230 475 c 128,-1,46
 217 463 217 463 200 457.5 c 128,-1,47
 183 452 183 452 165 452 c 256,48,49
 147 452 147 452 130 457.5 c 128,-1,50
 113 463 113 463 100 475 c 128,-1,51
 87 487 87 487 79 506 c 128,-1,52
 71 525 71 525 71 551 c 2,53,-1
 71 619 l 2,32,33
128 558 m 2,54,55
 128 509 128 509 165 509 c 256,56,57
 202 509 202 509 202 558 c 2,58,-1
 202 612 l 2,59,60
 202 661 202 661 165 661 c 256,61,62
 128 661 128 661 128 612 c 2,63,-1
 128 558 l 2,54,55
415 712 m 1,64,-1
 481 712 l 1,65,-1
 144 0 l 1,66,-1
 78 0 l 1,67,-1
 415 712 l 1,64,-1
EndSplineSet
Validated: 1
EndChar

StartChar: f_f
Encoding: 64256 64256 182
GlifName: f_f
Width: 750
VWidth: 0
GlyphClass: 3
LayerCount: 2
Fore
SplineSet
274 597 m 1,0,1
 261 601.333333333 261 601.333333333 249.555555556 601.333333333 c 0,2,3
 226.666666667 601.333333333 226.666666667 601.333333333 210 584 c 0,4,5
 192 567 192 567 192 541 c 2,6,-1
 192 417 l 1,7,-1
 253 417 l 1,8,-1
 253 296 l 1,9,-1
 192 296 l 1,10,-1
 192 0 l 1,11,-1
 71 0 l 1,12,-1
 71 541 l 2,13,14
 71 579 71 579 85 612 c 0,15,16
 99 645 99 645 124 670 c 0,17,18
 149 695 149 695 182 709 c 0,19,20
 214.603773585 722.754716981 214.603773585 722.754716981 248.764684941 722.754716981 c 0,21,22
 281.660377358 722.754716981 281.660377358 722.754716981 316 710 c 1,23,-1
 274 597 l 1,0,1
EndSplineSet
Refer: 101 102 N 1 0 0 1 245 0 2
Validated: 32769
LCarets2: 1 0
Ligature2: "'clig' Contextual Ligatures in Latin lookup 0 subtable" f f
EndChar

StartChar: uniFB03
Encoding: 64259 64259 183
GlifName: uniF_B_03
Width: 752
GlyphClass: 3
Flags: W
LayerCount: 2
Fore
SplineSet
274 597 m 1,0,1
 260.831054688 601.389648438 260.831054688 601.389648438 243.610351562 601.389648438 c 128,-1,2
 226.389648438 601.389648438 226.389648438 601.389648438 209.194335938 584.194335938 c 128,-1,3
 192 567 192 567 192 541 c 2,4,-1
 192 417 l 1,5,-1
 253 417 l 1,6,-1
 253 296 l 1,7,-1
 192 296 l 1,8,-1
 192 0 l 1,9,-1
 71 0 l 1,10,-1
 71 541 l 2,11,12
 71 617 71 617 124 670 c 0,13,14
 176.72265625 722.72265625 176.72265625 722.72265625 248.59765625 722.72265625 c 0,15,16
 281.564453125 722.72265625 281.564453125 722.72265625 315.9765625 709.875 c 1,17,-1
 274 597 l 1,0,1
560 0 m 1,18,-1
 560 417 l 1,19,-1
 681 417 l 1,20,-1
 681 0 l 1,21,-1
 560 0 l 1,18,-1
560 541 m 1,22,23
 560 567 560 567 542.5 584.5 c 128,-1,24
 525 602 525 602 499.5 602 c 128,-1,25
 474 602 474 602 456.5 584.5 c 128,-1,26
 439 567 439 567 439 541 c 2,27,-1
 439 417 l 1,28,-1
 500 417 l 1,29,-1
 500 296 l 1,30,-1
 439 296 l 1,31,-1
 439 0 l 1,32,-1
 318 0 l 1,33,-1
 318 541 l 2,34,35
 318 617 318 617 371 670 c 128,-1,36
 424 723 424 723 500 723 c 0,37,38
 575 723 575 723 628 670 c 128,-1,39
 681 617 681 617 681 541 c 1,40,-1
 560 541 l 1,22,23
EndSplineSet
Validated: 1
LCarets2: 2 0 0
Ligature2: "'clig' Contextual Ligatures in Latin lookup 0 subtable" f f i
EndChar

StartChar: uniFB04
Encoding: 64260 64260 184
GlifName: uniF_B_04
Width: 752
Flags: W
LayerCount: 2
Fore
SplineSet
274 597 m 1,0,1
 261 601.333007812 261 601.333007812 249.444335938 601.333007812 c 0,2,3
 226.333007812 601.333007812 226.333007812 601.333007812 209 584 c 0,4,5
 192 567 192 567 192 541 c 2,6,-1
 192 417 l 1,7,-1
 253 417 l 1,8,-1
 253 296 l 1,9,-1
 192 296 l 1,10,-1
 192 0 l 1,11,-1
 71 0 l 1,12,-1
 71 541 l 2,13,14
 71 579 71 579 85 612 c 128,-1,15
 99 645 99 645 124 670 c 128,-1,16
 149 695 149 695 182 709 c 0,17,18
 214.603515625 722.754882812 214.603515625 722.754882812 248.764648438 722.754882812 c 0,19,20
 281.66015625 722.754882812 281.66015625 722.754882812 316 710 c 1,21,-1
 274 597 l 1,0,1
500 602 m 1,22,23
 474 602 474 602 456.5 584.5 c 128,-1,24
 439 567 439 567 439 541 c 2,25,-1
 439 417 l 1,26,-1
 500 417 l 1,27,-1
 500 296 l 1,28,-1
 439 296 l 1,29,-1
 439 0 l 1,30,-1
 318 0 l 1,31,-1
 318 541 l 2,32,33
 318 579 318 579 332 612 c 128,-1,34
 346 645 346 645 371 670 c 128,-1,35
 396 695 396 695 429 709 c 128,-1,36
 462 723 462 723 500 723 c 1,37,-1
 500 602 l 1,22,23
560 0 m 1,38,-1
 560 712 l 1,39,-1
 681 712 l 1,40,-1
 681 0 l 1,41,-1
 560 0 l 1,38,-1
EndSplineSet
Validated: 1
LCarets2: 2 0 0
Ligature2: "'clig' Contextual Ligatures in Latin lookup 0 subtable" f f l
EndChar
